<svg width="506" height="188" viewBox="0 0 506 188" fill="none" xmlns="http://www.w3.org/2000/svg">
<path d="M153.686 80L504.659 103.71L472.677 186.351L191.927 171.598L153.686 80Z" fill="#FFC800"/>
<path d="M6.64 12.36H16.64V35.24H42.8V12.36H52.8V69H42.8V43.88H16.64V69H6.64V12.36ZM87.2931 44.04C87.2931 41.48 86.5198 39.5867 84.9731 38.36C83.4265 37.1333 81.3731 36.52 78.8131 36.52C76.7865 36.52 74.8398 36.92 72.9731 37.72C71.1598 38.52 69.6131 39.5333 68.3331 40.76L63.3731 35.24C65.3465 33.3733 67.7465 31.9067 70.5731 30.84C73.4531 29.72 76.4931 29.16 79.6931 29.16C84.7598 29.16 88.7065 30.36 91.5331 32.76C94.3598 35.16 95.9065 38.92 96.1731 44.04C96.2265 44.7867 96.2531 45.5333 96.2531 46.28C96.3065 47.0267 96.3331 47.8 96.3331 48.6V60.84C96.3331 62.2267 96.3598 63.64 96.4131 65.08C96.4665 66.4667 96.5465 67.7733 96.6531 69H87.8531C87.7998 68.2 87.7465 67.3733 87.6931 66.52C87.6398 65.6667 87.6131 64.7867 87.6131 63.88H87.4531C86.0665 65.9067 84.3331 67.4267 82.2531 68.44C80.1731 69.4533 77.7731 69.96 75.0531 69.96C73.5598 69.96 71.9865 69.7467 70.3331 69.32C68.7331 68.8933 67.2665 68.2267 65.9331 67.32C64.5998 66.36 63.4798 65.1333 62.5731 63.64C61.7198 62.0933 61.2931 60.2 61.2931 57.96C61.2931 55.08 62.0398 52.7867 63.5331 51.08C65.0798 49.3733 67.0798 48.0667 69.5331 47.16C72.0398 46.2533 74.8398 45.6667 77.9331 45.4C81.0265 45.1333 84.1465 45 87.2931 45V44.04ZM85.8531 51C84.0398 51 82.1998 51.08 80.3331 51.24C78.5198 51.4 76.8665 51.72 75.3731 52.2C73.9331 52.6267 72.7331 53.2933 71.7731 54.2C70.8665 55.0533 70.4131 56.2 70.4131 57.64C70.4131 58.7067 70.6265 59.5867 71.0531 60.28C71.4798 60.9733 72.0131 61.5333 72.6531 61.96C73.3465 62.3867 74.1198 62.7067 74.9731 62.92C75.8265 63.08 76.6798 63.16 77.5331 63.16C80.7331 63.16 83.1865 62.2 84.8931 60.28C86.5998 58.3067 87.4531 55.88 87.4531 53V51H85.8531ZM140.556 58.6H140.796L150.396 30.28H160.636L143.516 73.96C142.662 76.0933 141.782 78.04 140.876 79.8C140.022 81.56 138.982 83.0533 137.756 84.28C136.582 85.5067 135.169 86.4667 133.516 87.16C131.862 87.8533 129.862 88.2 127.516 88.2C126.449 88.2 125.382 88.12 124.316 87.96C123.302 87.8533 122.342 87.6933 121.436 87.48L122.476 79.24C123.062 79.4533 123.702 79.6133 124.396 79.72C125.142 79.88 125.862 79.96 126.556 79.96C128.529 79.96 129.996 79.4267 130.956 78.36C131.916 77.3467 132.769 75.88 133.516 73.96L135.596 68.6L119.276 30.28H129.916L140.556 58.6ZM175.296 88.2H165.696V30.28H174.896V35.88H175.136C176.522 33.8533 178.389 32.2533 180.736 31.08C183.082 29.8533 185.669 29.24 188.496 29.24C191.429 29.24 194.069 29.7733 196.416 30.84C198.762 31.9067 200.762 33.3733 202.416 35.24C204.069 37.0533 205.349 39.2133 206.256 41.72C207.162 44.1733 207.616 46.7867 207.616 49.56C207.616 52.3333 207.162 54.9733 206.256 57.48C205.402 59.9333 204.149 62.0933 202.496 63.96C200.842 65.8267 198.816 67.32 196.416 68.44C194.069 69.5067 191.429 70.04 188.496 70.04C185.936 70.04 183.456 69.5067 181.056 68.44C178.709 67.32 176.842 65.7467 175.456 63.72H175.296V88.2ZM198.096 49.56C198.096 47.9067 197.829 46.3333 197.296 44.84C196.816 43.2933 196.096 41.96 195.136 40.84C194.176 39.6667 192.976 38.76 191.536 38.12C190.096 37.4267 188.416 37.08 186.496 37.08C184.736 37.08 183.136 37.4267 181.696 38.12C180.256 38.76 179.002 39.6667 177.936 40.84C176.922 41.96 176.122 43.2933 175.536 44.84C175.002 46.3333 174.736 47.9067 174.736 49.56C174.736 51.2667 175.002 52.8933 175.536 54.44C176.122 55.9333 176.922 57.24 177.936 58.36C179.002 59.48 180.256 60.3867 181.696 61.08C183.136 61.72 184.736 62.04 186.496 62.04C188.416 62.04 190.096 61.72 191.536 61.08C192.976 60.3867 194.176 59.48 195.136 58.36C196.096 57.1867 196.816 55.8533 197.296 54.36C197.829 52.8133 198.096 51.2133 198.096 49.56ZM255.893 49.56C255.893 52.6 255.333 55.4 254.213 57.96C253.146 60.4667 251.653 62.6267 249.733 64.44C247.866 66.2533 245.626 67.6667 243.013 68.68C240.453 69.64 237.679 70.12 234.693 70.12C231.706 70.12 228.933 69.64 226.373 68.68C223.813 67.6667 221.573 66.2533 219.653 64.44C217.786 62.6267 216.293 60.4667 215.173 57.96C214.106 55.4 213.573 52.6 213.573 49.56C213.573 46.52 214.106 43.7467 215.173 41.24C216.293 38.7333 217.786 36.6 219.653 34.84C221.573 33.0267 223.813 31.64 226.373 30.68C228.933 29.6667 231.706 29.16 234.693 29.16C237.679 29.16 240.453 29.6667 243.013 30.68C245.626 31.64 247.866 33.0267 249.733 34.84C251.653 36.6 253.146 38.7333 254.213 41.24C255.333 43.7467 255.893 46.52 255.893 49.56ZM246.373 49.56C246.373 47.9067 246.106 46.3333 245.573 44.84C245.039 43.2933 244.266 41.96 243.253 40.84C242.293 39.6667 241.066 38.76 239.573 38.12C238.133 37.4267 236.506 37.08 234.693 37.08C232.879 37.08 231.253 37.4267 229.812 38.12C228.373 38.76 227.146 39.6667 226.133 40.84C225.173 41.96 224.426 43.2933 223.893 44.84C223.359 46.3333 223.093 47.9067 223.093 49.56C223.093 51.2133 223.359 52.8133 223.893 54.36C224.426 55.8533 225.173 57.1867 226.133 58.36C227.146 59.48 228.373 60.3867 229.812 61.08C231.253 61.72 232.879 62.04 234.693 62.04C236.506 62.04 238.133 61.72 239.573 61.08C241.066 60.3867 242.293 59.48 243.253 58.36C244.266 57.1867 245.039 55.8533 245.573 54.36C246.106 52.8133 246.373 51.2133 246.373 49.56ZM281.176 46.44C283.363 46.44 285.15 46.1467 286.536 45.56C287.923 44.9733 288.616 43.72 288.616 41.8C288.616 40.68 288.35 39.8267 287.816 39.24C287.283 38.6 286.563 38.12 285.656 37.8C284.75 37.48 283.683 37.2933 282.456 37.24C281.23 37.1867 279.923 37.16 278.536 37.16H273.576V46.44H281.176ZM273.576 62.12H279.416C280.91 62.12 282.323 62.0933 283.656 62.04C284.99 61.9867 286.136 61.8267 287.096 61.56C288.11 61.24 288.91 60.76 289.496 60.12C290.083 59.48 290.376 58.5467 290.376 57.32C290.376 56.1467 290.083 55.24 289.496 54.6C288.91 53.9067 288.11 53.4 287.096 53.08C286.136 52.76 284.99 52.5733 283.656 52.52C282.323 52.4133 280.91 52.36 279.416 52.36H273.576V62.12ZM263.976 69V30.28H283.336C288.243 30.28 291.95 31.2133 294.456 33.08C297.016 34.9467 298.296 37.48 298.296 40.68C298.296 42.12 298.056 43.32 297.576 44.28C297.15 45.24 296.536 46.04 295.736 46.68C294.936 47.32 294.003 47.8533 292.936 48.28C291.923 48.6533 290.83 49 289.656 49.32C291.096 49.4267 292.456 49.6667 293.736 50.04C295.016 50.4133 296.136 50.9733 297.096 51.72C298.056 52.4667 298.803 53.4267 299.336 54.6C299.923 55.72 300.216 57.08 300.216 58.68C300.216 61.7733 298.83 64.28 296.056 66.2C293.283 68.0667 289.363 69 284.296 69H263.976ZM335.534 45.88C335.481 43.1067 334.601 40.7867 332.894 38.92C331.241 37.0533 328.814 36.12 325.614 36.12C324.068 36.12 322.654 36.3867 321.374 36.92C320.094 37.4533 318.974 38.1733 318.014 39.08C317.054 39.9333 316.281 40.9733 315.694 42.2C315.161 43.3733 314.841 44.6 314.734 45.88H335.534ZM344.654 49.4C344.654 49.8267 344.654 50.28 344.654 50.76C344.654 51.24 344.628 51.72 344.574 52.2H314.654C314.708 53.64 315.054 55 315.694 56.28C316.334 57.56 317.161 58.6533 318.174 59.56C319.241 60.4667 320.441 61.1867 321.774 61.72C323.108 62.2533 324.548 62.52 326.094 62.52C328.494 62.52 330.574 62.0133 332.334 61C334.094 59.9867 335.454 58.76 336.414 57.32L343.214 61.88C341.188 64.6533 338.708 66.7333 335.774 68.12C332.894 69.4533 329.641 70.12 326.014 70.12C323.134 70.12 320.414 69.64 317.854 68.68C315.348 67.72 313.161 66.36 311.294 64.6C309.428 62.84 307.961 60.7067 306.894 58.2C305.828 55.6933 305.294 52.8667 305.294 49.72C305.294 46.68 305.801 43.9067 306.814 41.4C307.881 38.84 309.321 36.6533 311.134 34.84C313.001 33.0267 315.161 31.64 317.614 30.68C320.068 29.6667 322.734 29.16 325.614 29.16C328.548 29.16 331.188 29.6667 333.534 30.68C335.881 31.64 337.881 33 339.534 34.76C341.188 36.52 342.441 38.6533 343.294 41.16C344.201 43.6133 344.654 46.36 344.654 49.4ZM362.251 69H352.651V30.28H362.251V45.16H379.291V30.28H388.891V69H379.291V52.68H362.251V69ZM408.698 30.28V42.76H417.738C420.618 42.76 423.071 43.1067 425.098 43.8C427.125 44.44 428.751 45.3467 429.978 46.52C431.258 47.6933 432.165 49.08 432.698 50.68C433.285 52.28 433.578 53.9867 433.578 55.8C433.578 57.6667 433.231 59.4 432.538 61C431.898 62.6 430.911 63.9867 429.578 65.16C428.298 66.3333 426.698 67.2667 424.778 67.96C422.858 68.6533 420.618 69 418.058 69H399.098V30.28H408.698ZM408.698 62.04H415.978C418.378 62.04 420.325 61.6133 421.818 60.76C423.311 59.8533 424.058 58.2 424.058 55.8C424.058 54.6267 423.845 53.64 423.418 52.84C422.991 52.04 422.405 51.4267 421.658 51C420.911 50.52 420.031 50.2 419.018 50.04C418.058 49.8267 416.991 49.72 415.818 49.72H408.698V62.04Z" fill="#0E1726"/>
<path d="M227.44 100.36H247.36C249.547 100.36 251.76 100.6 254 101.08C256.24 101.507 258.24 102.28 260 103.4C261.813 104.467 263.28 105.933 264.4 107.8C265.573 109.667 266.16 112.04 266.16 114.92C266.16 117.96 265.28 120.547 263.52 122.68C261.76 124.813 259.44 126.28 256.56 127.08V127.24C258.267 127.507 259.867 128.013 261.36 128.76C262.853 129.453 264.133 130.387 265.2 131.56C266.32 132.68 267.173 134.04 267.76 135.64C268.4 137.187 268.72 138.947 268.72 140.92C268.72 143.64 268.16 146.013 267.04 148.04C265.92 150.067 264.373 151.747 262.4 153.08C260.48 154.413 258.213 155.4 255.6 156.04C253.04 156.68 250.293 157 247.36 157H227.44V100.36ZM237.2 123.96H246.48C247.813 123.96 249.067 123.827 250.24 123.56C251.467 123.24 252.533 122.76 253.44 122.12C254.347 121.48 255.067 120.68 255.6 119.72C256.133 118.707 256.4 117.48 256.4 116.04C256.4 113.373 255.387 111.453 253.36 110.28C251.333 109.107 248.693 108.52 245.44 108.52H237.2V123.96ZM237.2 148.76H246.24C247.787 148.76 249.307 148.627 250.8 148.36C252.293 148.04 253.6 147.56 254.72 146.92C255.893 146.227 256.827 145.32 257.52 144.2C258.267 143.08 258.64 141.693 258.64 140.04C258.64 137 257.573 134.84 255.44 133.56C253.307 132.227 250.4 131.56 246.72 131.56H237.2V148.76ZM286.908 118.28V130.76H292.828C296.188 130.76 299.014 131.053 301.308 131.64C303.601 132.173 305.468 133 306.908 134.12C308.348 135.187 309.388 136.547 310.028 138.2C310.668 139.8 310.988 141.667 310.988 143.8C310.988 148.28 309.414 151.613 306.268 153.8C303.174 155.933 298.588 157 292.508 157H277.308V118.28H286.908ZM286.908 150.04H293.468C295.868 150.04 297.788 149.613 299.228 148.76C300.721 147.853 301.468 146.2 301.468 143.8C301.468 141.4 300.694 139.8 299.148 139C297.601 138.147 295.628 137.72 293.228 137.72H286.908V150.04ZM324.668 118.28V157H315.068V118.28H324.668ZM334.926 157V118.28H344.526V149.4H357.966V118.28H367.566V149.4H381.086V118.28H390.606V157H334.926ZM430.584 133.88C430.531 131.107 429.651 128.787 427.944 126.92C426.291 125.053 423.864 124.12 420.664 124.12C419.118 124.12 417.704 124.387 416.424 124.92C415.144 125.453 414.024 126.173 413.064 127.08C412.104 127.933 411.331 128.973 410.744 130.2C410.211 131.373 409.891 132.6 409.784 133.88H430.584ZM439.704 137.4C439.704 137.827 439.704 138.28 439.704 138.76C439.704 139.24 439.678 139.72 439.624 140.2H409.704C409.758 141.64 410.104 143 410.744 144.28C411.384 145.56 412.211 146.653 413.224 147.56C414.291 148.467 415.491 149.187 416.824 149.72C418.158 150.253 419.598 150.52 421.144 150.52C423.544 150.52 425.624 150.013 427.384 149C429.144 147.987 430.504 146.76 431.464 145.32L438.264 149.88C436.238 152.653 433.758 154.733 430.824 156.12C427.944 157.453 424.691 158.12 421.064 158.12C418.184 158.12 415.464 157.64 412.904 156.68C410.398 155.72 408.211 154.36 406.344 152.6C404.478 150.84 403.011 148.707 401.944 146.2C400.878 143.693 400.344 140.867 400.344 137.72C400.344 134.68 400.851 131.907 401.864 129.4C402.931 126.84 404.371 124.653 406.184 122.84C408.051 121.027 410.211 119.64 412.664 118.68C415.118 117.667 417.784 117.16 420.664 117.16C423.598 117.16 426.238 117.667 428.584 118.68C430.931 119.64 432.931 121 434.584 122.76C436.238 124.52 437.491 126.653 438.344 129.16C439.251 131.613 439.704 134.36 439.704 137.4Z" fill="white"/>
</svg>
