<svg width="1468" height="402" viewBox="0 0 1468 402" fill="none" xmlns="http://www.w3.org/2000/svg">
<path d="M70.4111 235.494L316.494 176.186L532.002 271.228L109.916 311.719L70.4111 235.494Z" fill="#F0F4FF"/>
<path d="M51.9714 116.696V173.336H41.9714V125.336H17.3314V173.336H7.33141V116.696H51.9714ZM103.062 153.896C103.062 156.936 102.502 159.736 101.382 162.296C100.315 164.802 98.822 166.962 96.902 168.776C95.0354 170.589 92.7954 172.002 90.182 173.016C87.622 173.976 84.8487 174.456 81.862 174.456C78.8754 174.456 76.102 173.976 73.542 173.016C70.982 172.002 68.742 170.589 66.822 168.776C64.9554 166.962 63.462 164.802 62.342 162.296C61.2754 159.736 60.742 156.936 60.742 153.896C60.742 150.856 61.2754 148.082 62.342 145.576C63.462 143.069 64.9554 140.936 66.822 139.176C68.742 137.362 70.982 135.976 73.542 135.016C76.102 134.002 78.8754 133.496 81.862 133.496C84.8487 133.496 87.622 134.002 90.182 135.016C92.7954 135.976 95.0354 137.362 96.902 139.176C98.822 140.936 100.315 143.069 101.382 145.576C102.502 148.082 103.062 150.856 103.062 153.896ZM93.542 153.896C93.542 152.242 93.2754 150.669 92.742 149.176C92.2087 147.629 91.4354 146.296 90.422 145.176C89.462 144.002 88.2354 143.096 86.742 142.456C85.302 141.762 83.6754 141.416 81.862 141.416C80.0487 141.416 78.422 141.762 76.982 142.456C75.542 143.096 74.3154 144.002 73.302 145.176C72.342 146.296 71.5954 147.629 71.062 149.176C70.5287 150.669 70.262 152.242 70.262 153.896C70.262 155.549 70.5287 157.149 71.062 158.696C71.5954 160.189 72.342 161.522 73.302 162.696C74.3154 163.816 75.542 164.722 76.982 165.416C78.422 166.056 80.0487 166.376 81.862 166.376C83.6754 166.376 85.302 166.056 86.742 165.416C88.2354 164.722 89.462 163.816 90.422 162.696C91.4354 161.522 92.2087 160.189 92.742 158.696C93.2754 157.149 93.542 155.549 93.542 153.896ZM138.506 145.496C137.706 144.269 136.559 143.309 135.066 142.616C133.572 141.869 131.999 141.496 130.346 141.496C128.586 141.496 126.986 141.816 125.546 142.456C124.159 143.096 122.959 143.976 121.946 145.096C120.986 146.216 120.212 147.549 119.626 149.096C119.092 150.589 118.826 152.216 118.826 153.976C118.826 155.682 119.092 157.309 119.626 158.856C120.159 160.349 120.932 161.656 121.946 162.776C122.959 163.896 124.186 164.776 125.626 165.416C127.066 166.056 128.666 166.376 130.426 166.376C132.239 166.376 133.866 166.029 135.306 165.336C136.799 164.642 137.999 163.709 138.906 162.536L144.746 168.696C143.092 170.456 141.012 171.869 138.506 172.936C136.052 173.949 133.279 174.456 130.186 174.456C127.092 174.456 124.239 173.976 121.626 173.016C119.066 172.002 116.826 170.616 114.906 168.856C113.039 167.042 111.572 164.882 110.506 162.376C109.492 159.869 108.986 157.069 108.986 153.976C108.986 150.936 109.519 148.162 110.586 145.656C111.652 143.149 113.119 140.989 114.986 139.176C116.852 137.362 119.092 135.976 121.706 135.016C124.319 134.002 127.146 133.496 130.186 133.496C132.906 133.496 135.572 134.002 138.186 135.016C140.852 136.029 142.986 137.469 144.586 139.336L138.506 145.496ZM144.982 134.616H179.222V142.216H166.662V173.336H157.062V142.216H144.982V134.616ZM200.663 162.936H200.903L210.503 134.616H220.743L203.623 178.296C202.769 180.429 201.889 182.376 200.983 184.136C200.129 185.896 199.089 187.389 197.863 188.616C196.689 189.842 195.276 190.802 193.623 191.496C191.969 192.189 189.969 192.536 187.623 192.536C186.556 192.536 185.489 192.456 184.423 192.296C183.409 192.189 182.449 192.029 181.543 191.816L182.583 183.576C183.169 183.789 183.809 183.949 184.503 184.056C185.249 184.216 185.969 184.296 186.663 184.296C188.636 184.296 190.103 183.762 191.063 182.696C192.023 181.682 192.876 180.216 193.623 178.296L195.703 172.936L179.383 134.616H190.023L200.663 162.936ZM235.243 173.336H225.643V134.616H261.243V173.336H251.643V142.216H235.243V173.336ZM294.985 148.376C294.985 145.816 294.211 143.922 292.665 142.696C291.118 141.469 289.065 140.856 286.505 140.856C284.478 140.856 282.531 141.256 280.665 142.056C278.851 142.856 277.305 143.869 276.025 145.096L271.065 139.576C273.038 137.709 275.438 136.242 278.265 135.176C281.145 134.056 284.185 133.496 287.385 133.496C292.451 133.496 296.398 134.696 299.225 137.096C302.051 139.496 303.598 143.256 303.865 148.376C303.918 149.122 303.945 149.869 303.945 150.616C303.998 151.362 304.025 152.136 304.025 152.936V165.176C304.025 166.562 304.051 167.976 304.105 169.416C304.158 170.802 304.238 172.109 304.345 173.336H295.545C295.491 172.536 295.438 171.709 295.385 170.856C295.331 170.002 295.305 169.122 295.305 168.216H295.145C293.758 170.242 292.025 171.762 289.945 172.776C287.865 173.789 285.465 174.296 282.745 174.296C281.251 174.296 279.678 174.082 278.025 173.656C276.425 173.229 274.958 172.562 273.625 171.656C272.291 170.696 271.171 169.469 270.265 167.976C269.411 166.429 268.985 164.536 268.985 162.296C268.985 159.416 269.731 157.122 271.225 155.416C272.771 153.709 274.771 152.402 277.225 151.496C279.731 150.589 282.531 150.002 285.625 149.736C288.718 149.469 291.838 149.336 294.985 149.336V148.376ZM293.545 155.336C291.731 155.336 289.891 155.416 288.025 155.576C286.211 155.736 284.558 156.056 283.065 156.536C281.625 156.962 280.425 157.629 279.465 158.536C278.558 159.389 278.105 160.536 278.105 161.976C278.105 163.042 278.318 163.922 278.745 164.616C279.171 165.309 279.705 165.869 280.345 166.296C281.038 166.722 281.811 167.042 282.665 167.256C283.518 167.416 284.371 167.496 285.225 167.496C288.425 167.496 290.878 166.536 292.585 164.616C294.291 162.642 295.145 160.216 295.145 157.336V155.336H293.545ZM343.607 173.336H353.287V134.616H343.607L323.607 160.456V134.616H313.927V173.336H323.607L343.607 146.856V173.336ZM325.607 116.216C326.247 117.816 327.314 119.149 328.807 120.216C330.354 121.229 332.087 121.736 334.007 121.736C335.927 121.736 337.634 121.229 339.127 120.216C340.674 119.149 341.767 117.816 342.407 116.216L347.527 118.856C347.1 119.976 346.46 121.042 345.607 122.056C344.807 123.016 343.82 123.869 342.647 124.616C341.474 125.362 340.14 125.976 338.647 126.456C337.207 126.882 335.66 127.096 334.007 127.096C332.3 127.096 330.7 126.882 329.207 126.456C327.767 125.976 326.46 125.362 325.287 124.616C324.167 123.869 323.18 123.016 322.327 122.056C321.474 121.042 320.86 119.976 320.487 118.856L325.607 116.216ZM409.259 145.496C408.459 144.269 407.312 143.309 405.819 142.616C404.326 141.869 402.752 141.496 401.099 141.496C399.339 141.496 397.739 141.816 396.299 142.456C394.912 143.096 393.712 143.976 392.699 145.096C391.739 146.216 390.966 147.549 390.379 149.096C389.846 150.589 389.579 152.216 389.579 153.976C389.579 155.682 389.846 157.309 390.379 158.856C390.912 160.349 391.686 161.656 392.699 162.776C393.712 163.896 394.939 164.776 396.379 165.416C397.819 166.056 399.419 166.376 401.179 166.376C402.992 166.376 404.619 166.029 406.059 165.336C407.552 164.642 408.752 163.709 409.659 162.536L415.499 168.696C413.846 170.456 411.766 171.869 409.259 172.936C406.806 173.949 404.032 174.456 400.939 174.456C397.846 174.456 394.992 173.976 392.379 173.016C389.819 172.002 387.579 170.616 385.659 168.856C383.792 167.042 382.326 164.882 381.259 162.376C380.246 159.869 379.739 157.069 379.739 153.976C379.739 150.936 380.272 148.162 381.339 145.656C382.406 143.149 383.872 140.989 385.739 139.176C387.606 137.362 389.846 135.976 392.459 135.016C395.072 134.002 397.899 133.496 400.939 133.496C403.659 133.496 406.326 134.002 408.939 135.016C411.606 136.029 413.739 137.469 415.339 139.336L409.259 145.496Z" fill="#0E1726"/>
<path d="M126.051 222.936V228.296H126.291C126.771 227.549 127.385 226.802 128.131 226.056C128.931 225.256 129.891 224.562 131.011 223.976C132.131 223.336 133.385 222.829 134.771 222.456C136.211 222.029 137.811 221.816 139.571 221.816C142.291 221.816 144.798 222.349 147.091 223.416C149.385 224.429 151.358 225.842 153.011 227.656C154.665 229.469 155.945 231.602 156.851 234.056C157.758 236.509 158.211 239.149 158.211 241.976C158.211 244.802 157.758 247.469 156.851 249.976C155.998 252.429 154.745 254.589 153.091 256.456C151.491 258.269 149.518 259.736 147.171 260.856C144.878 261.922 142.265 262.456 139.331 262.456C136.611 262.456 134.105 261.896 131.811 260.776C129.571 259.656 127.838 258.136 126.611 256.216H126.451V280.536H116.851V222.936H126.051ZM148.451 241.976C148.451 240.482 148.211 239.016 147.731 237.576C147.305 236.082 146.638 234.749 145.731 233.576C144.825 232.402 143.678 231.469 142.291 230.776C140.905 230.029 139.278 229.656 137.411 229.656C135.651 229.656 134.078 230.029 132.691 230.776C131.305 231.522 130.105 232.482 129.091 233.656C128.131 234.829 127.385 236.162 126.851 237.656C126.371 239.149 126.131 240.642 126.131 242.136C126.131 243.629 126.371 245.122 126.851 246.616C127.385 248.056 128.131 249.362 129.091 250.536C130.105 251.709 131.305 252.669 132.691 253.416C134.078 254.109 135.651 254.456 137.411 254.456C139.278 254.456 140.905 254.082 142.291 253.336C143.678 252.589 144.825 251.629 145.731 250.456C146.638 249.282 147.305 247.949 147.731 246.456C148.211 244.962 148.451 243.469 148.451 241.976ZM163.636 241.976C163.636 238.936 164.17 236.189 165.236 233.736C166.356 231.229 167.85 229.096 169.716 227.336C171.583 225.576 173.796 224.216 176.356 223.256C178.916 222.296 181.636 221.816 184.516 221.816C187.396 221.816 190.116 222.296 192.676 223.256C195.236 224.216 197.45 225.576 199.316 227.336C201.183 229.096 202.65 231.229 203.716 233.736C204.836 236.189 205.396 238.936 205.396 241.976C205.396 245.016 204.836 247.789 203.716 250.296C202.65 252.802 201.183 254.962 199.316 256.776C197.45 258.536 195.236 259.922 192.676 260.936C190.116 261.949 187.396 262.456 184.516 262.456C181.636 262.456 178.916 261.949 176.356 260.936C173.796 259.922 171.583 258.536 169.716 256.776C167.85 254.962 166.356 252.802 165.236 250.296C164.17 247.789 163.636 245.016 163.636 241.976ZM173.396 241.976C173.396 243.469 173.61 244.962 174.036 246.456C174.516 247.949 175.21 249.282 176.116 250.456C177.023 251.629 178.17 252.589 179.556 253.336C180.943 254.082 182.596 254.456 184.516 254.456C186.436 254.456 188.09 254.082 189.476 253.336C190.863 252.589 192.01 251.629 192.916 250.456C193.823 249.282 194.49 247.949 194.916 246.456C195.396 244.962 195.636 243.469 195.636 241.976C195.636 240.482 195.396 239.016 194.916 237.576C194.49 236.082 193.823 234.749 192.916 233.576C192.01 232.402 190.863 231.469 189.476 230.776C188.09 230.029 186.436 229.656 184.516 229.656C182.596 229.656 180.943 230.029 179.556 230.776C178.17 231.469 177.023 232.402 176.116 233.576C175.21 234.749 174.516 236.082 174.036 237.576C173.61 239.016 173.396 240.482 173.396 241.976ZM234.145 233.176C233.291 232.056 232.118 231.096 230.625 230.296C229.131 229.442 227.505 229.016 225.745 229.016C224.198 229.016 222.785 229.336 221.505 229.976C220.225 230.616 219.585 231.682 219.585 233.176C219.585 234.669 220.278 235.736 221.665 236.376C223.105 236.962 225.185 237.576 227.905 238.216C229.345 238.536 230.785 238.962 232.225 239.496C233.718 240.029 235.051 240.749 236.225 241.656C237.451 242.509 238.438 243.602 239.185 244.936C239.931 246.216 240.305 247.789 240.305 249.656C240.305 252.002 239.851 254.002 238.945 255.656C238.091 257.256 236.918 258.562 235.425 259.576C233.985 260.589 232.278 261.309 230.305 261.736C228.385 262.216 226.385 262.456 224.305 262.456C221.318 262.456 218.411 261.922 215.585 260.856C212.758 259.736 210.411 258.162 208.545 256.136L214.865 250.216C215.931 251.602 217.318 252.749 219.025 253.656C220.731 254.562 222.625 255.016 224.705 255.016C225.398 255.016 226.091 254.936 226.785 254.776C227.531 254.616 228.198 254.376 228.785 254.056C229.425 253.682 229.931 253.202 230.305 252.616C230.678 252.029 230.865 251.309 230.865 250.456C230.865 248.856 230.118 247.709 228.625 247.016C227.185 246.322 224.998 245.629 222.065 244.936C220.625 244.616 219.211 244.216 217.825 243.736C216.491 243.202 215.291 242.536 214.225 241.736C213.158 240.882 212.305 239.842 211.665 238.616C211.025 237.389 210.705 235.869 210.705 234.056C210.705 231.922 211.131 230.082 211.985 228.536C212.891 226.989 214.065 225.736 215.505 224.776C216.945 223.762 218.571 223.016 220.385 222.536C222.198 222.056 224.065 221.816 225.985 221.816C228.758 221.816 231.451 222.296 234.065 223.256C236.731 224.216 238.838 225.682 240.385 227.656L234.145 233.176ZM241.531 230.616V222.936H248.251V211.816H257.691V222.936H267.291V230.616H257.691V248.456C257.691 250.162 257.985 251.576 258.571 252.696C259.211 253.816 260.598 254.376 262.731 254.376C263.371 254.376 264.065 254.322 264.811 254.216C265.558 254.056 266.225 253.842 266.811 253.576L267.131 261.096C266.278 261.416 265.265 261.656 264.091 261.816C262.918 262.029 261.798 262.136 260.731 262.136C258.171 262.136 256.091 261.789 254.491 261.096C252.891 260.349 251.611 259.362 250.651 258.136C249.745 256.856 249.105 255.416 248.731 253.816C248.411 252.162 248.251 250.402 248.251 248.536V230.616H241.531ZM307.679 261.336H298.559V255.176H298.399C297.546 257.096 296.052 258.802 293.919 260.296C291.839 261.736 289.359 262.456 286.479 262.456C283.972 262.456 281.812 262.029 279.999 261.176C278.239 260.269 276.772 259.096 275.599 257.656C274.479 256.216 273.652 254.562 273.119 252.696C272.586 250.829 272.319 248.909 272.319 246.936V222.936H281.919V244.216C281.919 245.336 281.999 246.509 282.159 247.736C282.319 248.962 282.666 250.082 283.199 251.096C283.732 252.056 284.452 252.856 285.359 253.496C286.319 254.136 287.572 254.456 289.119 254.456C290.612 254.456 291.919 254.162 293.039 253.576C294.212 252.936 295.146 252.136 295.839 251.176C296.586 250.216 297.146 249.122 297.519 247.896C297.892 246.616 298.079 245.336 298.079 244.056V222.936H307.679V261.336ZM326.801 222.936V228.296H327.041C327.521 227.549 328.135 226.802 328.881 226.056C329.681 225.256 330.641 224.562 331.761 223.976C332.881 223.336 334.135 222.829 335.521 222.456C336.961 222.029 338.561 221.816 340.321 221.816C343.041 221.816 345.548 222.349 347.841 223.416C350.135 224.429 352.108 225.842 353.761 227.656C355.415 229.469 356.695 231.602 357.601 234.056C358.508 236.509 358.961 239.149 358.961 241.976C358.961 244.802 358.508 247.469 357.601 249.976C356.748 252.429 355.495 254.589 353.841 256.456C352.241 258.269 350.268 259.736 347.921 260.856C345.628 261.922 343.015 262.456 340.081 262.456C337.361 262.456 334.855 261.896 332.561 260.776C330.321 259.656 328.588 258.136 327.361 256.216H327.201V280.536H317.601V222.936H326.801ZM349.201 241.976C349.201 240.482 348.961 239.016 348.481 237.576C348.055 236.082 347.388 234.749 346.481 233.576C345.575 232.402 344.428 231.469 343.041 230.776C341.655 230.029 340.028 229.656 338.161 229.656C336.401 229.656 334.828 230.029 333.441 230.776C332.055 231.522 330.855 232.482 329.841 233.656C328.881 234.829 328.135 236.162 327.601 237.656C327.121 239.149 326.881 240.642 326.881 242.136C326.881 243.629 327.121 245.122 327.601 246.616C328.135 248.056 328.881 249.362 329.841 250.536C330.855 251.709 332.055 252.669 333.441 253.416C334.828 254.109 336.401 254.456 338.161 254.456C340.028 254.456 341.655 254.082 343.041 253.336C344.428 252.589 345.575 251.629 346.481 250.456C347.388 249.282 348.055 247.949 348.481 246.456C348.961 244.962 349.201 243.469 349.201 241.976ZM390.466 256.456H390.226C389.266 258.162 387.72 259.576 385.586 260.696C383.453 261.762 381.026 262.296 378.306 262.296C376.76 262.296 375.133 262.082 373.426 261.656C371.773 261.282 370.226 260.642 368.786 259.736C367.4 258.776 366.226 257.549 365.266 256.056C364.36 254.509 363.906 252.616 363.906 250.376C363.906 247.496 364.706 245.202 366.306 243.496C367.96 241.789 370.066 240.482 372.626 239.576C375.186 238.669 378.013 238.082 381.106 237.816C384.253 237.496 387.32 237.336 390.306 237.336V236.376C390.306 233.976 389.426 232.216 387.666 231.096C385.96 229.922 383.906 229.336 381.506 229.336C379.48 229.336 377.533 229.762 375.666 230.616C373.8 231.469 372.253 232.509 371.026 233.736L366.066 227.896C368.253 225.869 370.76 224.349 373.586 223.336C376.466 222.322 379.373 221.816 382.306 221.816C385.72 221.816 388.52 222.296 390.706 223.256C392.946 224.216 394.706 225.469 395.986 227.016C397.266 228.562 398.146 230.296 398.626 232.216C399.16 234.136 399.426 236.056 399.426 237.976V261.336H390.466V256.456ZM390.306 243.816H388.146C386.6 243.816 384.973 243.896 383.266 244.056C381.56 244.162 379.986 244.456 378.546 244.936C377.106 245.362 375.906 246.002 374.946 246.856C373.986 247.656 373.506 248.776 373.506 250.216C373.506 251.122 373.693 251.896 374.066 252.536C374.493 253.122 375.026 253.602 375.666 253.976C376.306 254.349 377.026 254.616 377.826 254.776C378.626 254.936 379.426 255.016 380.226 255.016C383.533 255.016 386.04 254.136 387.746 252.376C389.453 250.616 390.306 248.216 390.306 245.176V243.816ZM403.251 222.936H413.891L424.611 250.856H424.771L434.291 222.936H444.291L426.131 269.576C425.437 271.336 424.691 272.882 423.891 274.216C423.091 275.602 422.131 276.749 421.011 277.656C419.891 278.616 418.557 279.336 417.011 279.816C415.517 280.296 413.704 280.536 411.571 280.536C410.771 280.536 409.944 280.482 409.091 280.376C408.291 280.322 407.464 280.189 406.611 279.976L407.411 271.656C408.051 271.869 408.664 272.002 409.251 272.056C409.891 272.162 410.477 272.216 411.011 272.216C412.024 272.216 412.877 272.082 413.571 271.816C414.264 271.602 414.851 271.229 415.331 270.696C415.811 270.216 416.237 269.602 416.611 268.856C416.984 268.109 417.384 267.229 417.811 266.216L419.731 261.336L403.251 222.936Z" fill="#2152F5"/>
<g filter="url(#filter0_i_1_1762)">
<path d="M442.223 79.9997L622.114 80.4485L611.662 118.971L489.723 139.728L442.223 79.9997Z" fill="#FFC800"/>
</g>
<path d="M485.76 113H480.96V93.64H498.76V113H493.96V97.44H485.76V113ZM523.951 103.28C523.951 104.8 523.671 106.2 523.111 107.48C522.578 108.733 521.831 109.813 520.871 110.72C519.938 111.627 518.818 112.333 517.511 112.84C516.231 113.32 514.844 113.56 513.351 113.56C511.858 113.56 510.471 113.32 509.191 112.84C507.911 112.333 506.791 111.627 505.831 110.72C504.898 109.813 504.151 108.733 503.591 107.48C503.058 106.2 502.791 104.8 502.791 103.28C502.791 101.76 503.058 100.373 503.591 99.12C504.151 97.8667 504.898 96.8 505.831 95.92C506.791 95.0133 507.911 94.32 509.191 93.84C510.471 93.3333 511.858 93.08 513.351 93.08C514.844 93.08 516.231 93.3333 517.511 93.84C518.818 94.32 519.938 95.0133 520.871 95.92C521.831 96.8 522.578 97.8667 523.111 99.12C523.671 100.373 523.951 101.76 523.951 103.28ZM519.191 103.28C519.191 102.453 519.058 101.667 518.791 100.92C518.524 100.147 518.138 99.48 517.631 98.92C517.151 98.3333 516.538 97.88 515.791 97.56C515.071 97.2133 514.258 97.04 513.351 97.04C512.444 97.04 511.631 97.2133 510.911 97.56C510.191 97.88 509.578 98.3333 509.071 98.92C508.591 99.48 508.218 100.147 507.951 100.92C507.684 101.667 507.551 102.453 507.551 103.28C507.551 104.107 507.684 104.907 507.951 105.68C508.218 106.427 508.591 107.093 509.071 107.68C509.578 108.24 510.191 108.693 510.911 109.04C511.631 109.36 512.444 109.52 513.351 109.52C514.258 109.52 515.071 109.36 515.791 109.04C516.538 108.693 517.151 108.24 517.631 107.68C518.138 107.093 518.524 106.427 518.791 105.68C519.058 104.907 519.191 104.107 519.191 103.28ZM542.833 99.76L532.833 113H527.993V93.64H532.833V106.56L542.833 93.64H547.673V113H542.833V99.76ZM566.459 99.08C566.059 98.4667 565.485 97.9867 564.739 97.64C563.992 97.2667 563.205 97.08 562.379 97.08C561.499 97.08 560.699 97.24 559.979 97.56C559.285 97.88 558.685 98.32 558.179 98.88C557.699 99.44 557.312 100.107 557.019 100.88C556.752 101.627 556.619 102.44 556.619 103.32C556.619 104.173 556.752 104.987 557.019 105.76C557.285 106.507 557.672 107.16 558.179 107.72C558.685 108.28 559.299 108.72 560.019 109.04C560.739 109.36 561.539 109.52 562.419 109.52C563.325 109.52 564.139 109.347 564.859 109C565.605 108.653 566.205 108.187 566.659 107.6L569.579 110.68C568.752 111.56 567.712 112.267 566.459 112.8C565.232 113.307 563.845 113.56 562.299 113.56C560.752 113.56 559.325 113.32 558.019 112.84C556.739 112.333 555.619 111.64 554.659 110.76C553.725 109.853 552.992 108.773 552.459 107.52C551.952 106.267 551.699 104.867 551.699 103.32C551.699 101.8 551.965 100.413 552.499 99.16C553.032 97.9067 553.765 96.8267 554.699 95.92C555.632 95.0133 556.752 94.32 558.059 93.84C559.365 93.3333 560.779 93.08 562.299 93.08C563.659 93.08 564.992 93.3333 566.299 93.84C567.632 94.3467 568.699 95.0667 569.499 96L566.459 99.08ZM576.857 101.08C577.684 101.08 578.457 101.16 579.177 101.32L584.737 93.64H590.017L583.297 102.72C585.217 103.653 586.724 104.973 587.817 106.68C588.91 108.387 589.777 110.493 590.417 113H585.137C584.817 111.48 584.404 110.213 583.897 109.2C583.417 108.187 582.83 107.373 582.137 106.76C581.47 106.147 580.697 105.693 579.817 105.4C578.964 105.107 577.977 104.933 576.857 104.88V113H572.057V93.64H576.857V101.08Z" fill="white"/>
<path d="M974.485 329.043C974.485 329.043 971.396 345.392 985.708 349.64C1005.28 355.452 1120.17 370.715 1092.26 382.315C1076.51 388.864 1100.3 397.755 1177.05 401.03C1253.79 404.304 1385.48 391.474 1341.19 372.492C1296.91 353.511 1477.82 368.525 1466.83 329.041H974.485V329.043Z" fill="#CFDDF9"/>
<path d="M1061.37 328.14C1061.37 328.14 1003.41 178.139 1045.12 144.738C1073.01 122.411 1102.56 171.628 1137.83 145.592C1169.24 122.414 1125.46 64.021 1177.85 48.7445C1232.93 32.6886 1278.05 162.717 1324.26 144.738C1380.33 122.921 1436.11 167.208 1387.9 328.427L1061.37 328.14V328.14Z" fill="#D4E8FF"/>
<path d="M1016.02 315.279C1015.05 312.298 1014.09 309.207 1013.16 306.096L1015.44 305.418C1016.36 308.509 1017.32 311.578 1018.28 314.541L1016.02 315.281L1016.02 315.279ZM1424.13 311.428L1421.77 311.137C1422.16 307.962 1422.53 304.767 1422.87 301.636L1425.24 301.895C1424.89 305.036 1424.52 308.242 1424.13 311.428V311.428ZM1010.53 296.847C1009.7 293.772 1008.89 290.641 1008.13 287.536L1010.44 286.969C1011.2 290.053 1012 293.167 1012.83 296.222L1010.53 296.845V296.847ZM1426.21 292.345L1423.85 292.122C1424.15 288.936 1424.43 285.73 1424.67 282.595L1427.04 282.783C1426.8 285.929 1426.51 289.148 1426.21 292.345H1426.21ZM1005.96 278.173C1005.27 275.04 1004.62 271.871 1004.02 268.758L1006.35 268.306C1006.95 271.401 1007.6 274.55 1008.28 277.663L1005.96 278.173ZM1427.73 273.205L1425.35 273.055C1425.55 269.871 1425.73 266.659 1425.88 263.508L1428.26 263.618C1428.11 266.782 1427.93 270.008 1427.73 273.205ZM1002.31 259.295C1001.78 256.125 1001.29 252.925 1000.85 249.79L1003.21 249.461C1003.64 252.576 1004.13 255.751 1004.66 258.902L1002.31 259.293V259.295ZM1428.62 254.023L1426.24 253.954C1426.33 250.755 1426.4 247.54 1426.43 244.396L1428.81 244.42C1428.78 247.578 1428.71 250.808 1428.62 254.023L1428.62 254.023ZM999.66 240.245C999.304 237.042 998.995 233.82 998.741 230.67L1001.11 230.478C1001.36 233.604 1001.67 236.803 1002.02 239.983L999.66 240.245H999.66ZM1426.44 234.836C1426.41 231.634 1426.35 228.42 1426.26 225.28L1428.64 225.209C1428.73 228.365 1428.8 231.595 1428.82 234.814L1426.44 234.834V234.836ZM998.114 221.072C997.957 217.85 997.851 214.616 997.803 211.456L1000.18 211.419C1000.23 214.55 1000.34 217.758 1000.49 220.955L998.114 221.072V221.072ZM1425.88 215.738C1425.71 212.54 1425.51 209.332 1425.28 206.204L1427.65 206.027C1427.89 209.176 1428.09 212.401 1428.25 215.616L1425.88 215.738H1425.88ZM1000.2 201.881L997.825 201.832C997.891 198.602 998.019 195.365 998.205 192.214L1000.58 192.354C1000.4 195.473 1000.27 198.679 1000.2 201.881V201.881ZM1424.45 196.688C1424.13 193.491 1423.77 190.3 1423.38 187.198L1425.74 186.9C1426.14 190.02 1426.5 193.234 1426.82 196.451L1424.45 196.688L1424.45 196.688ZM1001.34 182.855L998.969 182.617C999.291 179.398 999.686 176.181 1000.14 173.056L1002.5 173.399C1002.05 176.49 1001.66 179.671 1001.34 182.855ZM1422.05 177.748C1421.56 174.571 1421.01 171.407 1420.44 168.345L1422.77 167.905C1423.36 170.994 1423.9 174.182 1424.4 177.384L1422.05 177.75V177.748ZM1140.58 177.413C1137.27 176.892 1134.88 175.386 1131.57 172.787L1133.07 170.943C1135.97 173.215 1138.07 174.578 1140.83 175.048L1140.58 177.415L1140.58 177.413ZM1148.84 171.749L1146.72 170.667C1147.81 168.535 1148.77 165.574 1149.58 161.869L1151.91 162.377C1151.04 166.336 1150.04 169.402 1148.84 171.749ZM1124.58 165.96C1122.69 163.849 1120.66 161.419 1118.39 158.531L1120.26 157.058C1122.5 159.904 1124.49 162.295 1126.35 164.368L1124.58 165.958V165.96ZM1004.09 164.008L1001.75 163.556C1002.37 160.379 1003.07 157.212 1003.83 154.141L1006.14 154.713C1005.38 157.745 1004.7 160.873 1004.09 164.008ZM1418.52 159.001C1417.81 155.857 1417.05 152.741 1416.26 149.739L1418.56 149.129C1419.36 152.161 1420.13 155.307 1420.84 158.48L1418.52 159.001ZM1153.51 152.799L1151.15 152.494C1151.51 149.653 1151.84 146.542 1152.15 142.985L1154.52 143.19C1154.21 146.782 1153.88 149.924 1153.51 152.799H1153.51ZM1112.56 150.865C1110.62 148.253 1108.62 145.491 1106.89 143.106L1108.82 141.709C1110.54 144.086 1112.55 146.844 1114.47 149.447L1112.56 150.862L1112.56 150.865ZM1286.8 150.668C1284.95 150.668 1283.13 150.114 1281.4 149.023L1282.67 147.01C1285.27 148.652 1287.83 148.657 1290.6 147.345L1291.62 149.494C1289.98 150.273 1288.36 150.668 1286.8 150.668H1286.8ZM1008.67 145.539L1006.39 144.844C1007.34 141.75 1008.37 138.677 1009.48 135.703L1011.71 136.529C1010.62 139.459 1009.6 142.49 1008.67 145.539V145.539ZM1299.4 143.27L1297.65 141.656C1299.46 139.702 1301.39 137.29 1303.57 134.286L1305.49 135.681C1303.26 138.763 1301.27 141.245 1299.4 143.27H1299.4ZM1274.63 141.633C1273.09 139.258 1271.56 136.46 1269.97 133.08L1272.12 132.062C1273.67 135.345 1275.14 138.054 1276.63 140.34L1274.63 141.633H1274.63ZM1413.62 140.58C1412.67 137.496 1411.64 134.462 1410.58 131.559L1412.82 130.744C1413.89 133.683 1414.93 136.756 1415.9 139.876L1413.63 140.582L1413.62 140.58ZM1101.25 135.345C1099.07 132.369 1097.26 129.927 1095.54 127.657L1097.43 126.22C1099.16 128.501 1100.98 130.954 1103.17 133.939L1101.25 135.345H1101.25ZM1155.23 133.577L1152.86 133.422C1153.04 130.634 1153.22 127.501 1153.42 123.842L1155.79 123.97C1155.6 127.637 1155.41 130.779 1155.23 133.577H1155.23ZM1015.27 127.717L1013.09 126.757C1014.4 123.798 1015.79 120.892 1017.27 118.051L1019.38 119.15C1017.93 121.945 1016.56 124.805 1015.27 127.717ZM1310.95 127.717L1308.96 126.41C1310.65 123.838 1312.39 121.115 1314.16 118.362L1316.17 119.649C1314.39 122.409 1312.64 125.136 1310.95 127.717H1310.95ZM1266.13 124.198C1265.05 121.493 1263.94 118.543 1262.73 115.178L1264.96 114.37C1266.17 117.711 1267.27 120.636 1268.34 123.314L1266.13 124.195L1266.13 124.198ZM1407.08 122.714C1405.8 119.733 1404.45 116.839 1403.06 114.11L1405.18 113.03C1406.59 115.805 1407.97 118.748 1409.27 121.775L1407.08 122.714ZM1089.66 120.117C1087.5 117.437 1085.49 115.05 1083.51 112.825L1085.29 111.246C1087.29 113.502 1089.33 115.916 1091.51 118.627L1089.66 120.12V120.117ZM1156.29 114.37L1153.91 114.251C1154.07 111.072 1154.23 107.89 1154.4 104.653L1156.78 104.779C1156.61 108.014 1156.45 111.193 1156.29 114.372L1156.29 114.37ZM1321.38 111.61L1319.4 110.299C1321.39 107.289 1323.16 104.686 1324.83 102.341L1326.77 103.721C1325.12 106.044 1323.35 108.625 1321.38 111.61H1321.38ZM1024.1 110.939L1022.09 109.658C1023.96 106.729 1025.89 104.084 1027.82 101.796L1029.64 103.333C1027.78 105.541 1025.91 108.1 1024.1 110.941L1024.1 110.939ZM1259.54 106.097C1258.45 102.898 1257.38 99.6986 1256.48 96.9895L1258.74 96.2366C1259.64 98.9413 1260.71 102.136 1261.8 105.329L1259.54 106.097ZM1076.97 105.932C1074.53 103.562 1072.14 101.472 1069.86 99.7141L1071.31 97.8285C1073.67 99.6434 1076.13 101.796 1078.63 104.227L1076.97 105.932H1076.97ZM1398.43 105.83C1396.73 103.048 1394.94 100.416 1393.12 98.0073L1395.02 96.5722C1396.89 99.0429 1398.72 101.739 1400.46 104.587L1398.43 105.83ZM1036.32 96.857L1034.87 94.9648C1037.72 92.7967 1040.67 91.2335 1043.67 90.3172L1044.36 92.5936C1041.64 93.4259 1038.93 94.8611 1036.32 96.857H1036.32ZM1332.51 96.1284L1330.66 94.6292C1332.89 91.876 1335.01 89.5047 1337.13 87.3851L1338.81 89.0675C1336.75 91.1297 1334.69 93.4392 1332.51 96.1284ZM1157.31 95.1923L1154.93 95.051C1155.14 91.5912 1155.34 88.4493 1155.56 85.4466L1157.93 85.6166C1157.72 88.6105 1157.51 91.7435 1157.31 95.1923V95.1923ZM1061.99 94.6933C1059.02 93.2162 1056.1 92.2712 1053.31 91.8892L1053.63 89.5312C1056.68 89.9485 1059.85 90.9685 1063.05 92.5626L1061.99 94.6933ZM1387 90.8471C1384.7 88.5001 1382.33 86.4269 1379.94 84.6892L1381.35 82.7662C1383.84 84.5833 1386.31 86.7426 1388.7 89.1868L1387 90.8493L1387 90.8471ZM1253.44 87.8819C1252.26 84.3404 1251.28 81.4547 1250.37 78.7963L1252.62 78.0258C1253.54 80.6907 1254.51 83.5831 1255.7 87.129L1253.44 87.8841V87.8819ZM1345.93 82.9914L1344.57 81.0418C1347.5 78.995 1350.45 77.4782 1353.36 76.5354L1354.09 78.7985C1351.41 79.6685 1348.67 81.0793 1345.93 82.9914ZM1371.9 80.0747C1368.95 78.8317 1365.97 78.0611 1363.03 77.7873L1363.25 75.4182C1366.43 75.7163 1369.65 76.5443 1372.82 77.8823L1371.9 80.0747H1371.9ZM1158.7 76.0607L1156.32 75.851C1156.62 72.5126 1156.94 69.2869 1157.28 66.2664L1159.65 66.5336C1159.31 69.5364 1158.99 72.7422 1158.69 76.0629L1158.7 76.0607ZM1247.21 69.7439C1246.06 66.5336 1244.97 63.5993 1243.89 60.7732L1246.12 59.9231C1247.2 62.7647 1248.29 65.7145 1249.44 68.9402L1247.2 69.7439H1247.21ZM1160.86 57.0418L1158.51 56.7018C1158.99 53.3701 1159.52 50.1642 1160.08 47.1769L1162.42 47.6162C1161.86 50.5704 1161.34 53.741 1160.86 57.0418L1160.86 57.0418ZM1240.36 51.8886C1239.08 48.8129 1237.79 45.8698 1236.53 43.1408L1238.69 42.1406C1239.96 44.8983 1241.26 47.8702 1242.56 50.9745L1240.36 51.8886H1240.36ZM1164.44 38.3055L1162.13 37.7292C1162.96 34.4063 1163.87 31.2755 1164.85 28.4251L1167.1 29.1957C1166.15 31.982 1165.25 35.0488 1164.44 38.3077V38.3055ZM1232.3 34.6006C1230.73 31.6531 1229.13 28.8843 1227.54 26.374L1229.56 25.1022C1231.18 27.6634 1232.81 30.4829 1234.4 33.4834L1232.3 34.6006H1232.3ZM1170.67 20.4744L1168.54 19.4213C1170.1 16.2551 1171.83 13.4555 1173.69 11.0996L1175.56 12.5723C1173.81 14.7979 1172.16 17.4562 1170.67 20.4744ZM1222.09 18.6551C1220.01 16.0476 1217.86 13.7381 1215.71 11.7907L1217.31 10.0266C1219.55 12.0601 1221.79 14.4645 1223.95 17.1714L1222.09 18.6551H1222.09ZM1182.2 6.40342L1180.92 4.39864C1183.74 2.59478 1186.84 1.42017 1190.15 0.912354L1190.51 3.26378C1187.54 3.72302 1184.74 4.7784 1182.2 6.40342ZM1208.2 6.40342C1205.43 4.90867 1202.54 3.88641 1199.62 3.36755L1200.03 1.02496C1203.21 1.59018 1206.34 2.69634 1209.33 4.31033L1208.2 6.40563L1208.2 6.40342Z" fill="#DCE6FF"/>
<path d="M1440.65 261.532C1420.9 258.604 1422.68 302.599 1394.53 302.599C1368.79 302.599 1355.02 204.305 1326.77 224.297C1213.22 304.668 1301.57 167.903 1225.22 165.229C1190.69 164.022 1167.69 200.834 1159.2 266.014C1146.9 324.938 1118.39 221.07 1089.04 230.727C1070.38 236.865 1072.52 302.597 1046.78 302.597C1018.63 302.597 1020.48 265.601 1000.73 268.529C979.468 271.684 974.485 329.043 974.485 329.043H1466.83C1466.83 329.043 1461.91 264.685 1440.65 261.532H1440.65Z" fill="#EEF7FF"/>
<path d="M1421.72 307.708C1403.55 306.458 1406.52 317.752 1380.62 317.752C1356.94 317.752 1357.59 292.442 1341.74 287.062C1312.56 277.155 1288.5 327.292 1277.19 302.128C1255.7 235.364 1193.03 201.881 1164.12 302.128C1152.81 327.29 1126.35 282.392 1099.57 287.062C1083.08 289.934 1084.37 317.752 1060.69 317.752C1034.79 317.752 1037.76 306.458 1019.59 307.708C1000.03 309.055 994.182 329.043 994.182 329.043H1447.13C1447.13 329.043 1441.28 309.055 1421.72 307.708H1421.72Z" fill="#DCE6FF"/>
<path d="M1092.46 163.565C1091.11 161.725 1107.1 146.846 1110.1 145.875C1107.33 145.049 1104.14 143.799 1100.71 141.927C1100.13 144.305 1080.25 157.541 1078.91 155.64C1077.88 153.591 1096.51 141.572 1099.54 141.269C1096.89 139.732 1094.12 137.818 1091.29 135.434C1091.25 137.547 1067.94 147.559 1067.18 145.345C1066.39 143.157 1088.23 134.111 1090.64 134.871C1088.68 133.168 1086.71 131.243 1084.73 129.055C1083.26 131.214 1061.12 138.692 1060.26 136.538C1059.81 134.299 1080.72 127.567 1083.81 127.997C1082.18 126.127 1080.49 123.955 1078.93 121.78C1077.02 123.674 1054.22 127.675 1053.67 125.425C1053.59 123.162 1074.85 119.731 1078.01 120.526C1076.35 118.265 1074.75 116.154 1073.2 114.182C1071.07 116.048 1048.67 119.976 1048.09 117.744C1048.01 115.509 1068.76 112.134 1072.13 112.82C1070.26 110.464 1068.49 108.323 1066.81 106.371C1064.8 108.254 1042.18 112.222 1041.61 109.979C1041.54 107.742 1062.32 104.364 1065.67 105.055C1063.78 102.898 1062.03 100.997 1060.41 99.3189C1059.05 101.279 1035.31 105.435 1034.88 103.147C1034.78 100.871 1056.33 97.4046 1059.37 98.2657C1057.14 96.0114 1055.2 94.2075 1053.54 92.7746C1052.03 94.5873 1027.89 96.124 1027.72 93.7991C1027.89 91.5823 1048.69 90.4983 1052.04 91.5139C1046.8 86.917 1044.56 88.1976 1037.09 84.0931C1021.88 76.4648 1023.53 73.1861 1038.71 80.8851C1046.52 84.824 1047.65 86.3518 1052.24 89.7763C1049.85 86.7558 1042.24 68.7239 1044.1 67.7149C1046.18 66.6396 1055.99 90.1582 1054.49 91.642C1056.08 93.0109 1057.92 94.7131 1060.02 96.8151C1058.19 93.6909 1053.92 73.727 1055.99 73.0249C1058.24 72.3934 1063.34 97.2191 1061.64 98.4754C1063.21 100.105 1064.9 101.944 1066.71 104.015C1065.59 100.454 1065.41 80.428 1067.55 80.1741C1069.87 80.2911 1069.88 103.841 1068.27 105.828C1069.86 107.693 1071.54 109.731 1073.3 111.955C1072.49 108.63 1075.06 87.7472 1077.29 87.7582C1079.59 88.1159 1076.36 111.992 1074.45 113.421C1075.99 115.401 1077.6 117.521 1079.27 119.788C1079.13 116.174 1084.78 96.5501 1086.94 96.9078C1089.08 97.7667 1082.58 119.515 1080.47 121.435C1082.02 123.593 1083.64 125.622 1085.23 127.432C1084.37 124.86 1090.65 102.644 1092.92 103.121C1095.2 103.655 1088.02 127.803 1085.92 128.209C1087.8 130.28 1089.67 132.108 1091.53 133.727C1090.82 130.932 1096.97 109.188 1099.23 109.621C1101.45 110.341 1094.57 133.363 1092.46 134.52C1095.25 136.853 1097.98 138.717 1100.59 140.203C1099.55 137.668 1104.01 115.099 1106.3 115.384C1108.57 115.927 1103.56 139.408 1101.55 140.741C1104.88 142.545 1107.97 143.74 1110.66 144.528C1109.69 141.514 1112.32 119.868 1114.59 119.894C1116.82 120.444 1113.84 142.442 1112.1 144.925C1120.14 146.985 1125.78 145.959 1125.85 145.945L1126.12 147.367C1125.87 147.416 1120.01 148.5 1111.51 146.266C1111.32 148.727 1094.12 165.192 1092.45 163.562L1092.46 163.565Z" fill="#9358E0"/>
<path d="M1102.98 117.36C1103.47 115.132 1125.21 117.276 1127.92 118.883C1126.7 116.254 1125.53 113.037 1124.66 109.228C1122.5 110.369 1099.42 104.225 1099.96 101.96C1100.81 99.8333 1122.15 105.848 1124.38 107.914C1123.78 104.911 1123.38 101.564 1123.3 97.8727C1121.69 99.2394 1098.76 88.3897 1099.91 86.354C1101.03 84.3139 1122.26 94.7021 1123.29 97.0094C1123.27 94.4151 1123.4 91.6596 1123.74 88.732C1121.15 89.0521 1100.89 77.4054 1101.93 75.3344C1103.32 73.5151 1122.2 84.7379 1123.92 87.3344C1124.24 84.8748 1124.76 82.1745 1125.36 79.5647C1122.67 79.3881 1104.58 64.9417 1105.91 63.0407C1107.55 61.4798 1124.19 75.1467 1125.69 78.0457C1126.28 75.3013 1126.8 72.7025 1127.26 70.2407C1124.45 69.8786 1106.68 55.6818 1107.97 53.7675C1109.6 52.2308 1125.86 65.5577 1127.57 68.534C1128.1 65.5732 1128.54 62.8266 1128.89 60.2764C1126.15 60.0159 1108.2 45.6799 1109.51 43.7745C1111.13 42.2378 1127.42 55.5802 1129.12 58.5521C1129.49 55.7083 1129.75 53.1339 1129.93 50.8089C1127.57 51.0893 1108.75 36.0468 1110.17 34.2032C1111.81 32.6246 1128.67 46.4858 1130.04 49.3384C1130.26 46.1745 1130.32 43.5206 1130.3 41.3281C1127.94 41.3988 1110.82 24.3184 1112.45 22.6537C1114.22 21.3112 1128.8 36.1904 1130.25 39.3742C1130.23 32.4016 1127.79 31.5714 1125.92 23.2542C1121.58 6.80529 1125.13 5.87134 1129.4 22.3445C1131.62 30.8097 1131.22 32.6687 1131.69 38.3762C1132.37 34.5852 1140.85 16.9462 1142.84 17.6704C1145.02 18.5182 1133.88 41.4363 1131.78 41.2973C1131.8 43.3926 1131.75 45.9007 1131.56 48.8615C1132.69 45.426 1144.83 29.0102 1146.73 30.0987C1148.69 31.3705 1133.45 51.6236 1131.39 51.1776C1131.2 53.4297 1130.94 55.9136 1130.59 58.6404C1132.52 55.4499 1147.41 42.0612 1149.02 43.4963C1150.47 45.3156 1132.82 60.9035 1130.26 61.0117C1129.92 63.4382 1129.5 66.0435 1129 68.8365C1130.95 66.0258 1148.31 54.1362 1149.78 55.8165C1151.04 57.7793 1130.99 71.1548 1128.66 70.6691C1128.2 73.1375 1127.67 75.7428 1127.07 78.4961C1129.69 76.0034 1148.14 67.249 1149.3 69.1059C1150.08 71.2807 1129.47 80.7967 1126.63 80.4876C1126.04 83.0797 1125.59 85.6365 1125.29 88.0276C1126.65 85.6806 1147.46 75.6876 1148.6 77.7012C1149.71 79.7612 1126.86 90.3636 1125.17 89.0587C1124.85 91.8319 1124.72 94.4504 1124.74 96.9145C1126.36 94.5299 1146.73 84.7533 1147.91 86.7338C1148.83 88.8711 1127.02 98.9479 1124.76 98.1332C1124.86 101.767 1125.27 105.053 1125.88 107.989C1127.09 105.532 1146.96 93.9382 1148.27 95.848C1149.36 97.9058 1128.44 109.692 1126.12 109.069C1126.97 112.758 1128.12 115.865 1129.3 118.397C1130.92 115.677 1148.89 103.326 1150.37 105.048C1151.43 107.082 1132.97 119.409 1129.96 119.749C1133.73 127.139 1138.23 130.687 1138.29 130.729L1137.4 131.877C1137.2 131.72 1132.51 128.042 1128.56 120.19C1126.59 121.676 1102.86 119.678 1102.98 117.353L1102.98 117.36Z" fill="#8A9EDD"/>
<path d="M1261.96 136.445C1277.28 127.337 1290.24 117.053 1300.87 107.15C1298.78 107.621 1290.63 105.494 1291.04 103.732C1291.53 101.763 1301.46 104.148 1302.24 105.865C1302.95 105.187 1303.66 104.512 1304.36 103.838C1302.33 104.209 1294.04 100.714 1294.72 98.9413C1295.51 97.0712 1304.95 100.953 1305.45 102.768C1306.32 101.911 1307.18 101.061 1308.01 100.215C1305.92 100.476 1297.9 97.0491 1298.58 95.3182C1299.38 93.4834 1308.47 97.2037 1309.22 98.9855C1310.04 98.1355 1310.86 97.2898 1311.65 96.453C1309.77 96.8968 1301.4 91.7656 1302.41 90.0413C1303.49 88.2992 1312.36 93.7616 1312.43 95.6272C1313.19 94.8147 1313.93 94.0089 1314.66 93.214C1312.65 93.3708 1304.79 88.4913 1305.76 86.8177C1306.84 85.1397 1315.17 90.2311 1315.66 92.11C1316.52 91.1496 1317.36 90.2024 1318.17 89.2707C1316.14 89.3767 1308.39 84.5435 1309.35 82.8832C1310.42 81.2229 1318.61 86.2105 1319.2 88.0872C1319.82 87.3653 1320.42 86.6565 1321.01 85.9566C1319.03 85.9014 1311.91 79.6376 1313.16 78.1296C1314.49 76.6878 1321.61 82.8501 1321.97 84.8107C1322.8 83.8083 1323.58 82.8567 1324.36 81.8808C1322.35 81.6821 1315.45 75.5795 1316.68 74.0957C1317.98 72.6827 1324.87 78.5954 1325.41 80.5737C1325.99 79.8275 1326.57 79.0878 1327.13 78.3614C1325.23 78.198 1319.27 70.1524 1320.87 68.9292C1322.45 67.8186 1327.98 75.1776 1328.02 77.2045C1328.7 76.3036 1329.36 75.4205 1330 74.5528C1328.1 74.3187 1322.2 66.357 1323.79 65.136C1325.35 64.0365 1330.8 71.252 1330.92 73.3031C1331.6 72.3669 1332.25 71.4551 1332.88 70.5697C1330.96 69.6887 1325.91 62.6411 1327.38 61.5195C1328.71 60.4707 1333.58 66.5491 1334.19 68.6886C1334.79 67.8142 1335.36 66.9686 1335.91 66.1517C1334.1 65.2906 1329.92 56.8939 1331.64 55.9754C1333.15 55.1695 1336.93 62.0648 1337.14 64.2706C1337.63 63.522 1338.09 62.8067 1338.52 62.1222C1336.7 61.6144 1332.73 52.2507 1334.59 51.4448C1336.23 50.7471 1339.64 58.2761 1339.57 60.4442C1340.21 59.3977 1340.78 58.4505 1341.27 57.6137C1339.5 56.8188 1335.73 47.8746 1337.54 47.0621C1339.06 46.3511 1342.35 53.3281 1342.46 55.5581C1342.89 54.7964 1343.2 54.2201 1343.4 53.8426C1342.92 51.8842 1346.48 43.3329 1348.29 44.0262C1349.12 44.3684 1348.81 47.0687 1347.59 50.0582C1346.22 53.6152 1344.95 53.8315 1343.69 56.3773C1345.51 55.0657 1352.88 53.2243 1353.27 54.8251C1353.85 56.7857 1343.88 59.7289 1342.44 58.5432C1341.98 59.3204 1341.46 60.1881 1340.87 61.1353C1342.83 60.144 1350.87 59.8039 1350.97 61.5416C1351.08 63.5508 1341.12 64.275 1339.74 62.9502C1339.23 63.7561 1338.69 64.6061 1338.1 65.5003C1340.15 64.6944 1348.14 65.0588 1348.08 66.7897C1348.01 68.7747 1338.31 68.6576 1336.9 67.3108C1336.36 68.1277 1335.78 68.9756 1335.18 69.8477C1337.26 69.1898 1345.33 70.2672 1345.12 72.0137C1344.87 73.9743 1335.32 72.9962 1333.99 71.5522C1333.42 72.3581 1332.83 73.1861 1332.21 74.0295C1334.29 73.5261 1342.53 75.6611 1342.11 77.4385C1341.61 79.3528 1332.23 77.136 1331.12 75.5264C1330.55 76.2926 1329.97 77.072 1329.37 77.8668C1331.38 77.476 1339.72 80.9822 1339.03 82.764C1338.24 84.5943 1329.19 80.8939 1328.41 79.1165C1327.78 79.9379 1327.13 80.7724 1326.46 81.6181C1328.42 81.1389 1336.96 84.7003 1336.27 86.5086C1335.48 88.3676 1326.16 84.5414 1325.57 82.7353C1324.84 83.6538 1324.11 84.5458 1323.33 85.4863C1325.36 85.1154 1333.65 88.6105 1332.96 90.3835C1332.17 92.2204 1323.04 88.4869 1322.32 86.7007C1321.76 87.3586 1321.2 88.0276 1320.62 88.7055C1322.7 88.7275 1330.2 93.4458 1329.24 95.0686C1328.19 96.6981 1320.23 91.8893 1319.48 90.0214C1318.78 90.8317 1318.06 91.653 1317.31 92.4854C1319.35 92.3993 1327.07 97.2147 1326.11 98.8707C1325.03 100.531 1316.83 95.5389 1316.25 93.6622C1315.49 94.5034 1314.71 95.3557 1313.91 96.2146C1315.87 95.9429 1323.94 100.924 1322.95 102.622C1321.87 104.329 1313.3 99.0672 1312.99 97.1904C1312.25 97.9765 1311.49 98.7735 1310.72 99.5728C1312.73 99.6324 1320.02 105.329 1318.88 106.89C1317.63 108.422 1310.05 102.602 1309.65 100.672C1308.81 101.527 1307.95 102.386 1307.08 103.251C1308.98 102.98 1316.8 109.012 1315.6 110.619C1314.35 112.22 1306.23 105.934 1306.26 104.055C1305.34 104.96 1304.39 105.87 1303.43 106.782C1305.37 106.848 1312.18 113.823 1310.79 115.245C1309.33 116.609 1302.48 109.619 1302.48 107.682C1291.68 117.819 1278.43 128.386 1262.72 137.725L1261.96 136.456L1261.96 136.445Z" fill="#EB5648"/>
<path d="M1247.77 175.169C1266.27 168.131 1282.41 159.356 1295.92 150.553C1293.54 150.668 1285.03 146.787 1285.82 144.941C1286.73 142.879 1297.14 147.381 1297.66 149.407C1298.57 148.803 1299.47 148.198 1300.36 147.593C1298.07 147.61 1289.67 142.208 1290.76 140.397C1291.98 138.5 1301.56 144.548 1301.77 146.63C1302.88 145.859 1303.98 145.093 1305.05 144.327C1302.72 144.215 1294.6 138.935 1295.67 137.171C1296.89 135.317 1306.13 141.121 1306.61 143.212C1307.67 142.439 1308.73 141.671 1309.75 140.905C1307.61 141.033 1299.44 133.822 1300.87 132.131C1302.37 130.428 1311.04 138.099 1310.75 140.152C1311.74 139.408 1312.71 138.67 1313.66 137.937C1311.43 137.725 1303.76 130.888 1305.15 129.243C1306.65 127.613 1314.79 134.771 1314.96 136.92C1316.09 136.034 1317.19 135.16 1318.25 134.294C1316.01 134.021 1308.45 127.256 1309.82 125.624C1311.31 124.014 1319.32 131.029 1319.6 133.195C1320.42 132.524 1321.21 131.863 1321.99 131.21C1319.83 130.771 1313.23 122.562 1314.9 121.151C1316.62 119.826 1323.24 127.927 1323.26 130.139C1324.36 129.201 1325.39 128.311 1326.43 127.39C1324.26 126.787 1317.88 118.797 1319.52 117.408C1321.2 116.11 1327.61 123.893 1327.82 126.156C1328.61 125.452 1329.38 124.754 1330.13 124.065C1328.08 123.522 1323.09 113.584 1325.08 112.553C1327.02 111.641 1331.66 120.74 1331.32 122.968C1332.24 122.113 1333.13 121.274 1334 120.449C1331.96 119.828 1327.02 109.996 1329 108.963C1330.91 108.058 1335.5 116.989 1335.24 119.256C1336.16 118.362 1337.04 117.49 1337.9 116.64C1329.06 106.294 1334.52 99.3013 1339.69 114.832C1340.51 113.99 1341.3 113.174 1342.05 112.388C1340.24 111.102 1337.28 101.121 1339.33 100.445C1341.13 99.8488 1343.95 108.111 1343.77 110.566C1344.44 109.842 1345.08 109.146 1345.68 108.482C1343.79 107.579 1341.23 96.5811 1343.42 96.0534C1345.34 95.603 1347.63 104.488 1347.15 106.848C1348.05 105.828 1348.85 104.898 1349.55 104.079C1347.76 102.871 1345.34 92.3662 1347.48 91.8252C1349.28 91.3373 1351.55 99.5971 1351.24 102.057C1351.86 101.304 1352.31 100.734 1352.6 100.361C1352.44 98.1266 1357.97 89.4539 1359.82 90.5579C1360.67 91.0922 1359.81 93.9846 1357.9 97.0205C1355.73 100.65 1354.3 100.644 1352.43 103.189C1354.67 102.103 1363.09 101.494 1363.21 103.322C1363.47 105.576 1352 106.894 1350.65 105.322C1350 106.084 1349.26 106.934 1348.44 107.859C1350.77 107.146 1359.63 108.312 1359.41 110.23C1359.15 112.452 1348.11 111.339 1346.86 109.628C1346.15 110.414 1345.39 111.237 1344.58 112.103C1346.97 111.61 1355.64 113.536 1355.25 115.417C1354.79 117.574 1344.21 115.593 1342.92 113.851C1342.17 114.642 1341.38 115.457 1340.55 116.298C1342.95 115.975 1351.57 118.693 1351.01 120.563C1350.36 122.659 1340.11 119.766 1338.92 117.934C1338.15 118.707 1337.34 119.499 1336.51 120.305C1338.87 120.151 1347.48 124.056 1346.69 125.924C1345.77 127.922 1335.94 123.707 1335.03 121.734C1334.26 122.464 1333.47 123.206 1332.66 123.959C1334.94 123.915 1343.4 129.342 1342.31 131.159C1341.09 133.009 1331.89 127.231 1331.38 125.14C1330.53 125.92 1329.66 126.708 1328.77 127.507C1331.01 127.355 1339.67 132.881 1338.57 134.729C1337.35 136.613 1327.88 130.645 1327.58 128.558C1326.61 129.424 1325.64 130.261 1324.61 131.141C1326.9 131.124 1335.3 136.527 1334.21 138.337C1332.99 140.196 1323.73 134.369 1323.27 132.279C1322.54 132.895 1321.8 133.517 1321.03 134.147C1323.3 134.568 1330.6 141.159 1329.25 142.753C1327.78 144.334 1320 137.555 1319.53 135.37C1318.61 136.123 1317.66 136.882 1316.69 137.65C1318.94 137.946 1326.46 144.685 1325.09 146.312C1323.6 147.924 1315.58 140.898 1315.3 138.734C1314.31 139.509 1313.29 140.291 1312.25 141.079C1314.45 141.157 1322.32 148.145 1320.92 149.812C1319.41 151.472 1311.03 144.082 1311.06 141.971C1310.1 142.691 1309.12 143.415 1308.12 144.142C1310.31 144.592 1317.2 152.214 1315.64 153.702C1313.99 155.141 1306.8 147.328 1306.74 145.14C1305.66 145.912 1304.55 146.69 1303.43 147.469C1305.57 147.535 1312.96 155.625 1311.35 157.155C1309.67 158.668 1301.99 150.242 1302.39 148.193C1301.2 149.006 1299.99 149.82 1298.77 150.635C1300.88 151.077 1307 160.008 1305.2 161.295C1303.35 162.509 1297.19 153.558 1297.56 151.439C1283.81 160.465 1267.3 169.495 1248.33 176.711L1247.75 175.178L1247.77 175.169Z" fill="#FCB4B4"/>
<path d="M1296.63 352.979L1125.81 357.222C1114.5 357.222 1107.08 349.565 1106.73 345.143L1086.84 99.3454C1086.46 94.4041 1092.84 85.9389 1105.93 85.9389L1276.74 90.1826C1281.18 90.1826 1284.87 93.596 1285.22 98.0184L1305.1 343.814C1305.49 348.755 1301.59 352.977 1296.63 352.977V352.979Z" fill="#7689D6"/>
<path d="M1307.24 357.22H1125.81C1121.37 357.22 1117.69 353.807 1117.34 349.384L1097.45 95.104C1097.07 90.1627 1100.97 85.9411 1105.93 85.9411H1287.35C1291.79 85.9411 1295.48 89.3546 1295.83 93.777L1315.71 348.057C1316.1 352.999 1312.19 357.22 1307.24 357.22Z" fill="#8A9EDD"/>
<path d="M1296.31 346.836H1136.08C1131.67 346.836 1128 343.461 1127.62 339.067L1123.21 287.035L1107.85 105.976C1107.43 101.023 1111.33 96.7732 1116.3 96.7732H1276.53C1280.94 96.7732 1284.61 100.149 1284.99 104.541L1287.71 136.69L1304.76 337.632C1305.18 342.584 1301.28 346.836 1296.31 346.836Z" fill="white"/>
<path d="M1194.89 346.836H1136.08C1131.67 346.836 1128 343.461 1127.62 339.067L1123.21 287.035C1126.65 277.391 1132.8 263.243 1140.8 257.323C1153.48 247.935 1144.76 278.038 1140.83 294.613C1136.91 311.185 1142.88 314.197 1151.9 305.418C1160.92 296.642 1168.7 279.747 1176.82 281.937C1184.94 284.127 1151.11 319.642 1158.22 327.42C1165.32 335.201 1208.28 296.98 1226.88 302.053C1242.78 306.392 1214.2 335.554 1194.89 346.836Z" fill="#EB5648"/>
<path d="M1287.71 136.69C1253.07 142.66 1247 165.761 1237.36 161.869C1226.09 157.316 1218.14 167.868 1214.89 192.753C1211.66 217.435 1225.82 242.694 1213.46 244.049C1202.64 245.237 1205.72 222.619 1206.58 209.816C1208.5 181.449 1176.48 158.308 1192.27 126.224C1199.01 112.524 1211.46 103.088 1223.51 96.7753H1276.53C1280.94 96.7753 1284.61 100.151 1284.99 104.543L1287.71 136.692V136.69Z" fill="#CE4ABF"/>
<path d="M1145.36 171.749C1145.36 171.749 1157.38 164.549 1165.66 169.711C1179.93 178.612 1173.96 195.944 1178.73 209.814C1185.72 230.12 1160.7 230.857 1159.34 218.676C1157.89 205.592 1163.85 187.191 1161.37 178.612C1158.89 170.029 1145.36 171.752 1145.36 171.752L1145.36 171.749Z" fill="#3A72AA"/>
<circle cx="1208.57" cy="97.9911" r="6.88426" transform="rotate(-80.7798 1208.57 97.9911)" fill="#EB5648"/>
<path d="M1318.11 317.509V365.211C1318.11 372.144 1311.83 377.763 1304.07 377.763H1280.99C1273.24 377.763 1266.95 372.144 1266.95 365.211V317.509C1266.95 313.945 1268.61 310.73 1271.28 308.445C1275.41 304.906 1278.05 300.201 1278.74 295.123L1279.66 288.298H1305.4L1306.32 295.123C1307.01 300.203 1309.65 304.906 1313.78 308.445C1316.45 310.73 1318.11 313.945 1318.11 317.509H1318.11Z" fill="#5770B5"/>
<path d="M1313.62 317.509V365.211C1313.62 372.144 1307.33 377.763 1299.58 377.763H1280.99C1273.24 377.763 1266.95 372.144 1266.95 365.211V317.509C1266.95 313.945 1268.61 310.73 1271.28 308.445C1275.41 304.906 1278.05 300.201 1278.74 295.123L1279.66 288.298H1300.91L1301.83 295.123C1302.52 300.203 1305.16 304.906 1309.29 308.445C1311.96 310.73 1313.62 313.945 1313.62 317.509H1313.62Z" fill="#8A9EDD"/>
<rect x="1266.95" y="328.621" width="51.1595" height="25.4771" fill="#5770B5"/>
<path d="M1275.8 287.19C1275.8 284.395 1278.07 282.129 1280.86 282.129H1304.2C1307 282.129 1309.26 284.395 1309.26 287.19C1309.26 289.985 1307 292.25 1304.2 292.25H1280.86C1278.07 292.25 1275.8 289.985 1275.8 287.19Z" fill="#1D3F70"/>
<path d="M1260.19 328.741V367.551C1260.19 373.192 1255.08 377.763 1248.77 377.763H1229.99C1223.68 377.763 1218.57 373.19 1218.57 367.551V328.741C1218.57 325.842 1219.92 323.225 1222.09 321.368C1225.45 318.487 1227.6 314.661 1228.16 310.527L1228.91 304.972H1249.86L1250.6 310.527C1251.16 314.661 1253.31 318.485 1256.67 321.368C1258.84 323.227 1260.19 325.842 1260.19 328.741H1260.19Z" fill="#F49F9F"/>
<path d="M1256 328.741V367.551C1256 373.192 1250.88 377.763 1244.58 377.763H1229.99C1223.68 377.763 1218.57 373.19 1218.57 367.551V328.741C1218.57 325.842 1219.92 323.225 1222.09 321.368C1225.45 318.487 1227.6 314.661 1228.16 310.527L1228.91 304.972H1245.66L1246.41 310.527C1246.97 314.661 1249.12 318.485 1252.48 321.368C1254.65 323.227 1256 325.842 1256 328.741Z" fill="#FCB4B4"/>
<path d="M1225.77 304.072C1225.77 301.797 1227.61 299.954 1229.89 299.954H1248.87C1251.15 299.954 1252.99 301.797 1252.99 304.072C1252.99 306.346 1251.15 308.189 1248.87 308.189H1229.89C1227.61 308.189 1225.77 306.346 1225.77 304.072Z" fill="#1D3F70"/>
<ellipse cx="1239.38" cy="344.633" rx="13.6118" ry="12.17" fill="#FFD2D2"/>
<path d="M1315.15 229.899C1315.15 229.899 1313.21 229.075 1312.76 225.748L1314.89 221.884L1317.3 223.249L1318.42 228.117L1315.16 229.899H1315.15Z" fill="#F99370"/>
<path d="M1397.11 374.87L1412.08 367.204C1411.93 366.279 1409.34 363.038 1408.8 361.632C1408.32 360.832 1404.03 349.515 1403.55 348.36L1394.95 352.762L1402 363.111C1402.84 364.339 1402.69 365.983 1401.64 367.039C1399.42 369.505 1396.01 370.607 1395.35 373.684C1395.27 374.636 1396.26 375.307 1397.11 374.872L1397.11 374.87Z" fill="#F99370"/>
<path d="M1411.8 365.531C1412 366.067 1412.11 366.63 1412.08 367.202L1396.99 374.932C1396.25 375.307 1395.35 374.857 1395.24 374.04C1394.99 372.128 1395.77 368.761 1402.54 364.833C1402.54 364.833 1405.27 364.325 1408.8 361.627C1408.8 361.627 1411 363.349 1411.79 365.529L1411.8 365.531Z" fill="#EB5648"/>
<path d="M1395.24 374.014L1411.8 365.533C1412 366.07 1412.11 366.633 1412.08 367.204L1396.99 374.934C1396.24 375.316 1395.33 374.844 1395.24 374.014Z" fill="#CE3932"/>
<path d="M1347.1 376.372L1363.91 376.149C1364.19 375.252 1363.3 371.196 1363.45 369.699C1363.37 368.77 1364.55 356.721 1364.63 355.474L1354.98 355.602L1356.7 368.006C1356.91 369.476 1356.04 370.883 1354.63 371.364C1351.54 372.587 1348 372.059 1346.04 374.526C1345.55 375.34 1346.14 376.385 1347.1 376.374V376.372Z" fill="#F99370"/>
<path d="M1364.4 374.524C1364.34 375.093 1364.19 375.648 1363.91 376.149L1346.96 376.374C1346.14 376.385 1345.53 375.581 1345.79 374.8C1346.41 372.974 1348.61 370.304 1356.42 369.792C1356.42 369.792 1359.09 370.55 1363.45 369.699C1363.45 369.699 1364.65 372.219 1364.4 374.526L1364.4 374.524Z" fill="#EB5648"/>
<path d="M1345.8 374.773L1364.4 374.526C1364.34 375.095 1364.19 375.65 1363.91 376.151L1346.96 376.376C1346.12 376.389 1345.51 375.559 1345.8 374.773Z" fill="#CE3932"/>
<path d="M1344.21 360.746C1344.44 362.857 1344.61 364.007 1344.61 364.007C1352.04 367.679 1363.11 366.86 1370.4 365.001C1370.3 364.374 1370.21 363.749 1370.11 363.129C1370.03 362.599 1369.95 362.071 1369.88 361.548C1364.11 321.423 1368.6 293.339 1368.6 293.339C1371.54 312.658 1374.53 326.005 1388.95 359.724C1389.44 360.866 1389.94 362.029 1390.47 363.217C1399.03 361.744 1409.12 356.739 1415.48 351.789C1414.81 350.678 1414.16 349.568 1413.54 348.457C1395.06 315.336 1399.18 282.739 1389.66 265.283C1389.66 265.283 1351.61 267.899 1351.16 269.224C1337.93 308.013 1342.85 348.499 1344.21 360.746Z" fill="#9358E0"/>
<path d="M1359.04 200.505C1359.04 200.505 1364.91 192.755 1373.91 199.989C1378.17 203.413 1381.83 211.123 1384.53 213.942C1393.65 223.487 1387.56 233.509 1381.73 235.567C1376.01 237.587 1361.3 245.109 1352.91 236.397C1347.39 230.656 1352 223.432 1353.94 218.59C1355.88 213.748 1359.04 200.503 1359.04 200.503V200.505Z" fill="#1D3F70"/>
<path d="M1362.13 201.28C1362.13 201.28 1357.78 198.743 1354.34 202.837C1350.9 206.93 1354.4 216.565 1354.4 216.565L1362.13 201.278V201.28Z" fill="#1D3F70"/>
<path d="M1360.04 225.947L1360.28 228.243C1358.99 229.667 1360.75 231.758 1361.94 231.687C1363.74 231.584 1366.84 228.7 1367.38 227.806C1367.38 227.806 1367 225.625 1366.95 224.607L1360.04 225.947H1360.04Z" fill="#F99370"/>
<path d="M1353.85 231.526C1347.69 236.326 1342.5 241.758 1334.55 243.354C1328.58 244.88 1325.53 237.975 1322.95 233.533C1321.91 231.599 1320.89 229.583 1319.78 227.563C1318.28 224.816 1313.99 226.768 1315.08 229.692C1316.64 234.006 1317.83 238.351 1319.94 242.617C1325.86 255.389 1337.75 254.349 1348.76 248.909C1353.01 246.849 1356.47 243.919 1360.33 241.486C1367.39 237.207 1360.64 226.797 1353.85 231.524L1353.85 231.526Z" fill="#F99370"/>
<path d="M1315.38 233.31C1315.51 234.82 1315.89 237.035 1316.87 240.133C1319.09 247.156 1325.25 254.369 1334.25 255.553C1336.47 255.844 1338.88 255.738 1341.22 255.376C1346.36 254.584 1351.17 252.55 1352.88 250.715C1353.13 250.452 1353.36 250.028 1353.57 249.476C1355.55 244.438 1356.37 228.811 1356.37 228.811C1355.99 229.267 1353.22 229.974 1346.33 236.169C1340.53 241.391 1332.87 242.641 1328.57 237.422C1326.38 234.754 1323.96 231.533 1322.09 229.654C1321.28 228.839 1320.57 228.272 1320.03 228.117C1320.03 228.117 1318.28 230.495 1315.47 230.617C1315.47 230.617 1315.22 231.394 1315.38 233.31H1315.38Z" fill="#EB5648"/>
<path d="M1367.02 217.374C1367.02 217.495 1367.01 217.621 1366.99 217.742C1366.82 217.65 1366.73 222.079 1366.99 225.265C1364.11 226.876 1360.72 226.558 1360.1 226.483C1359.7 222.452 1359.76 218.742 1360.16 216.384C1361.05 212.375 1367.3 213.285 1367.02 217.374H1367.02Z" fill="#E57D61"/>
<path d="M1371.24 213.461C1371.12 216.629 1370.5 220.262 1368.29 222.617H1368.29C1367.4 223.562 1366.25 224.234 1365 224.642C1358.07 227.594 1348.42 220.089 1353.38 213.326C1355.21 211.172 1355.23 207.747 1356.64 205.654C1358.61 201.898 1363.87 201.441 1367.05 203.921C1369.91 206.164 1371.22 209.577 1371.24 213.459V213.461Z" fill="#F99370"/>
<path d="M1341.22 255.376C1346.36 254.583 1351.18 252.55 1352.88 250.715C1353.13 250.452 1353.36 250.029 1353.57 249.477L1348.5 242.829C1348.5 242.829 1347.28 245.637 1346.64 248.779C1346 251.919 1344.28 253.967 1341.22 255.376Z" fill="#CE3932"/>
<path d="M1359.14 212.989C1358.79 212.483 1359.59 211.944 1359.93 212.461C1360.28 212.967 1359.48 213.505 1359.14 212.989Z" fill="#C16256"/>
<path d="M1355.1 212.805C1354.75 212.3 1355.56 211.761 1355.89 212.278C1356.24 212.783 1355.44 213.322 1355.1 212.805Z" fill="#C16256"/>
<path d="M1356.82 216.733C1357.11 216.7 1357.76 216.733 1357.7 216.34C1357.66 216.25 1357.55 216.21 1357.46 216.252C1356.89 216.517 1356.01 216.32 1355.86 216.064C1355.8 215.974 1355.92 215.863 1356.03 215.788C1356.97 215.166 1357.92 212.2 1357.08 212.964C1357.08 212.984 1356.65 214.907 1355.82 215.495C1354.91 216.307 1356.01 216.716 1356.82 216.733Z" fill="#C16256"/>
<path d="M1351.46 267.707C1368.21 273.388 1389.4 263.104 1389.4 263.104C1389.4 263.104 1386.4 258.686 1384.85 254.078C1384.48 252.985 1384.19 251.879 1384.04 250.819C1383.28 245.306 1385.1 233.474 1371.39 227.446C1371.39 227.446 1369.67 227.821 1367.38 227.806C1367.38 227.806 1364.24 233.114 1360.24 231.217C1358.69 230.482 1360.28 228.241 1360.28 228.241C1358.17 229.281 1356.37 228.806 1356.37 228.806C1351.04 235.163 1348.25 241.232 1348.08 245.725C1347.8 252.755 1352.34 257.727 1351.46 267.705V267.707Z" fill="#EB5648"/>
<path d="M1371.24 213.461C1371.12 216.629 1370.5 220.262 1368.29 222.617H1368.29C1369.44 220.763 1369.83 216.881 1369.83 216.881L1368.98 215.278C1357.76 213.11 1357.63 204.329 1357.63 204.329C1363.92 198.551 1371.79 206.171 1371.24 213.463V213.461Z" fill="#E57D61"/>
<path d="M1358.69 203.417C1358.69 203.417 1358.86 212.07 1368.95 214.402L1372.18 212.066C1374.76 205.018 1367.44 196.027 1358.69 203.417H1358.69Z" fill="#1D3F70"/>
<path d="M1373.41 214.79C1373.13 218.391 1368.59 217.996 1368.95 214.402C1369.22 210.801 1373.76 211.198 1373.41 214.79Z" fill="#F99370"/>
<path d="M1372.35 215.66C1372.99 214.804 1372.52 213.296 1372.1 213.077C1371.33 212.604 1370.11 213.059 1370.25 213.404C1370.51 213.731 1371.14 212.892 1371.89 213.368C1372.66 213.803 1371.9 215.417 1372.35 215.66H1372.35Z" fill="#C16256"/>
<path d="M1370.66 215.614C1371.02 215.55 1370.99 214.21 1372.38 213.898C1372.47 213.881 1372.54 213.786 1372.52 213.689C1371.45 213.07 1370.01 215.768 1370.66 215.614V215.614Z" fill="#C16256"/>
<path d="M1371.66 216.658C1371.73 217.175 1370.91 217.274 1370.86 216.755C1370.79 216.239 1371.6 216.139 1371.66 216.658Z" fill="#F4D4BE"/>
<path d="M1371.97 244.047C1371.97 244.047 1376.07 251.4 1376.6 257.337C1377.07 262.523 1371.97 266.239 1371.97 266.239L1380.17 267.067L1379.29 247.836L1371.97 244.047Z" fill="#CE3932"/>
<path d="M1360.35 236.761C1360.54 237.276 1361.1 237.543 1361.62 237.359C1362.13 237.176 1362.4 236.611 1362.21 236.097C1362.03 235.582 1361.47 235.315 1360.95 235.498C1360.44 235.681 1360.17 236.247 1360.35 236.761Z" fill="#CE3932"/>
<path d="M1359.14 240.888C1359.33 241.402 1359.89 241.669 1360.41 241.486C1360.92 241.303 1361.19 240.738 1361.01 240.223C1360.82 239.709 1360.26 239.442 1359.74 239.625C1359.23 239.808 1358.96 240.373 1359.14 240.888Z" fill="#CE3932"/>
<path d="M1413.54 348.457C1413.54 348.457 1401.27 358.128 1388.95 359.724C1389.44 360.865 1389.95 362.029 1390.47 363.217C1399.03 361.744 1409.12 356.739 1415.48 351.789C1414.81 350.678 1414.16 349.568 1413.54 348.457Z" fill="#7640CC"/>
<path d="M1344.21 360.746C1344.44 362.857 1344.61 364.007 1344.61 364.007C1352.04 367.679 1363.11 366.86 1370.4 365.001C1370.22 363.842 1370.04 362.689 1369.88 361.548C1369.68 361.61 1357.02 365.445 1344.21 360.746H1344.21Z" fill="#7640CC"/>
<path d="M1366.97 363.456L1370.11 363.126C1370.03 362.597 1369.95 362.069 1369.88 361.545C1364.11 321.421 1368.6 293.337 1368.6 293.337C1368.49 293.805 1366.69 295.626 1365.28 302.738C1363.87 309.852 1362.87 340.833 1366.97 363.453V363.456Z" fill="#7640CC"/>
<path d="M1315.38 233.31C1316.22 233.217 1316.3 232.019 1317.02 231.712C1317.74 231.405 1318.26 231.95 1319.11 231.685C1319.96 231.42 1319.82 230.528 1320.21 229.815C1320.59 229.117 1322.03 229.634 1322.09 229.654C1321.28 228.839 1320.57 228.272 1320.03 228.117C1320.03 228.117 1318.28 230.495 1315.47 230.617C1315.47 230.617 1315.22 231.394 1315.38 233.31H1315.38Z" fill="#A523A2"/>
<path d="M1411.2 352.623C1411.32 352.623 1411.43 352.588 1411.54 352.522C1411.85 352.325 1411.95 351.915 1411.75 351.603C1411.63 351.415 1399.88 332.483 1395.86 309.744C1391.81 286.832 1385.69 265.643 1385.63 265.431C1385.53 265.078 1385.16 264.874 1384.81 264.976C1384.46 265.078 1384.25 265.449 1384.35 265.802C1384.42 266.011 1390.51 287.137 1394.54 309.975C1398.61 332.978 1410.5 352.12 1410.62 352.312C1410.75 352.517 1410.97 352.628 1411.2 352.623L1411.2 352.623Z" fill="#7640CC"/>
<path d="M1404.4 357.137C1404.51 357.137 1404.62 357.106 1404.72 357.048C1405.04 356.865 1405.15 356.459 1404.97 356.138C1404.89 356.006 1397.32 342.615 1391.56 317.138C1385.76 291.52 1378.58 267.286 1378.51 267.045C1378.41 266.692 1378.04 266.491 1377.68 266.597C1377.33 266.7 1377.13 267.071 1377.24 267.425C1377.31 267.665 1384.47 291.86 1390.26 317.434C1396.07 343.127 1403.74 356.671 1403.82 356.803C1403.94 357.019 1404.17 357.141 1404.4 357.139L1404.4 357.137Z" fill="#7640CC"/>
<path d="M1395.75 360.291C1395.57 359.799 1378.13 310.724 1374.47 287.883C1373.3 280.575 1371.36 268.226 1371.47 267.619C1371.53 267.257 1371.88 267.014 1372.24 267.08C1372.57 267.14 1372.8 267.429 1372.79 267.754C1372.8 267.963 1372.97 270.023 1375.79 287.676C1379.43 310.395 1396.83 359.355 1397 359.846C1397.13 360.192 1396.95 360.574 1396.6 360.698C1396.53 360.722 1396.46 360.735 1396.39 360.738C1396.11 360.742 1395.85 360.57 1395.75 360.296V360.291Z" fill="#7640CC"/>
<path d="M1363.15 365.158C1363.18 365.158 1363.21 365.156 1363.24 365.151C1363.61 365.098 1363.86 364.761 1363.81 364.396C1362.69 356.699 1360.46 325.541 1360.67 311.291C1360.88 297.395 1366.69 269.71 1366.75 269.432C1366.82 269.072 1366.59 268.719 1366.23 268.641C1365.87 268.566 1365.52 268.796 1365.44 269.156C1365.38 269.434 1359.55 297.245 1359.34 311.272C1359.13 325.574 1361.37 356.856 1362.48 364.588C1362.53 364.924 1362.82 365.162 1363.15 365.158H1363.15Z" fill="#7640CC"/>
<path d="M1356.13 365.25C1356.16 365.25 1356.19 365.248 1356.22 365.242C1356.59 365.184 1356.83 364.844 1356.78 364.48C1356.74 364.226 1352.83 338.831 1353.73 317.805C1354.63 296.761 1360.06 269.867 1360.12 269.597C1360.19 269.237 1359.96 268.884 1359.6 268.811C1359.24 268.738 1358.88 268.97 1358.81 269.332C1358.76 269.602 1353.3 296.602 1352.4 317.749C1351.5 338.91 1355.42 364.431 1355.46 364.687C1355.51 365.019 1355.8 365.255 1356.13 365.25H1356.13Z" fill="#7640CC"/>
<path d="M1349.59 363.358C1349.62 363.358 1349.64 363.358 1349.67 363.352C1350.03 363.303 1350.29 362.97 1350.24 362.605C1350.21 362.345 1346.84 336.185 1347.73 314.387C1348.62 292.617 1355.45 269.86 1355.51 269.633C1355.62 269.281 1355.42 268.908 1355.07 268.802C1354.72 268.696 1354.35 268.895 1354.24 269.246C1354.17 269.476 1347.3 292.387 1346.4 314.332C1345.51 336.247 1348.88 362.515 1348.92 362.778C1348.96 363.115 1349.25 363.363 1349.59 363.358H1349.59Z" fill="#7640CC"/>
<path d="M1388.53 261.377C1388.53 261.377 1368.25 270.37 1351.25 266.106C1351.25 266.106 1350.42 267.285 1351.16 269.222C1351.16 269.222 1364.04 276.194 1389.66 265.281C1389.66 265.281 1389.82 262.934 1388.53 261.375V261.377Z" fill="#7640CC"/>
<path d="M1354.69 211.578C1354.72 211.578 1354.76 211.567 1354.79 211.547C1355.7 210.949 1356.53 211.18 1356.54 211.183C1356.64 211.211 1356.74 211.154 1356.78 211.055C1356.8 210.953 1356.75 210.849 1356.65 210.818C1356.61 210.807 1355.64 210.536 1354.59 211.229C1354.5 211.286 1354.47 211.403 1354.53 211.492C1354.57 211.547 1354.63 211.578 1354.69 211.578L1354.69 211.578Z" fill="#C16256"/>
<path d="M1360.87 212.081C1360.92 212.081 1360.97 212.061 1361.01 212.019C1361.08 211.942 1361.07 211.823 1360.99 211.75C1360.95 211.712 1359.97 210.82 1358.66 210.977C1358.56 210.991 1358.48 211.083 1358.5 211.189C1358.51 211.293 1358.6 211.368 1358.71 211.355C1359.84 211.22 1360.73 212.022 1360.74 212.03C1360.77 212.064 1360.82 212.081 1360.87 212.081Z" fill="#C16256"/>
<path d="M1357.34 218.091C1358.99 218.091 1359.67 216.989 1359.7 216.941C1359.75 216.85 1359.72 216.733 1359.63 216.68C1359.54 216.627 1359.43 216.656 1359.37 216.744C1359.34 216.793 1358.67 217.853 1357.01 217.696C1356.9 217.687 1356.81 217.762 1356.8 217.868C1356.79 217.972 1356.87 218.065 1356.97 218.076C1357.1 218.087 1357.22 218.093 1357.34 218.093L1357.34 218.091Z" fill="#C16256"/>
<path d="M1318.42 228.305C1318.42 228.305 1318.43 228.305 1318.43 228.305C1318.91 228.298 1319.28 227.912 1319.27 227.439C1319.27 227.305 1319.21 224.114 1317.43 220.807C1317.2 220.392 1316.68 220.235 1316.27 220.46C1315.85 220.685 1315.7 221.202 1315.92 221.619C1317.5 224.543 1317.56 227.435 1317.57 227.466C1317.57 227.934 1317.95 228.307 1318.42 228.307V228.305Z" fill="#F99370"/>
<path d="M1424.35 332.478C1424.33 333.894 1423.78 335.302 1422.71 336.389C1420.54 338.608 1416.99 338.698 1414.71 336.594L1296.94 228.183L1261.47 195.524L1264.79 192.133L1278.54 178.09L1311.93 212.885L1422.75 328.378C1423.85 329.522 1424.38 331.006 1424.35 332.478V332.478Z" fill="#23659B"/>
<path d="M1424.35 332.478C1422.17 334.192 1419.01 334.108 1416.91 332.178L1299.15 223.768L1264.79 192.133L1278.54 178.09L1311.93 212.885L1422.75 328.378C1423.85 329.522 1424.38 331.006 1424.35 332.478V332.478Z" fill="#3A72AA"/>
<path d="M1278.54 178.09C1278.54 178.09 1281.38 153.26 1261.46 147.01C1241.55 140.757 1231.41 155.13 1215.26 136.849C1215.26 136.849 1207.66 200.395 1261.46 195.524L1278.54 178.093V178.09Z" fill="#7640CC"/>
<path d="M1359.74 274.781C1359.76 275.073 1360.02 275.294 1360.31 275.276H1360.35C1360.58 275.258 1360.82 275.236 1361.05 275.225C1361.29 275.225 1361.52 275.205 1361.76 275.219C1362.18 275.223 1362.6 275.265 1363.02 275.318C1361.94 276.523 1360.5 277.429 1360.5 277.44C1360.22 277.555 1359.93 277.667 1359.64 277.778C1359.12 277.976 1358.59 278.171 1358.05 278.356C1356.99 278.727 1355.91 279.069 1354.82 279.383C1354.57 279.456 1354.4 279.709 1354.44 279.977C1354.49 280.266 1354.76 280.464 1355.05 280.418C1356.19 280.239 1357.32 280.027 1358.45 279.787C1359.02 279.667 1359.58 279.537 1360.14 279.4C1360.36 279.345 1360.58 279.29 1360.8 279.235C1360.81 279.243 1360.81 279.252 1360.82 279.261C1360.28 279.621 1359.74 279.97 1359.19 280.31C1358.57 280.692 1357.95 281.059 1357.31 281.412C1356.68 281.767 1356.03 282.094 1355.38 282.414L1355.37 282.421C1355.13 282.54 1355.02 282.825 1355.11 283.083C1355.22 283.357 1355.52 283.496 1355.79 283.392C1356.49 283.13 1357.19 282.856 1357.87 282.553C1358.56 282.255 1359.23 281.942 1359.9 281.61C1360.56 281.286 1361.22 280.948 1361.86 280.597C1361.87 280.601 1361.87 280.604 1361.87 280.606C1361.69 280.78 1361.5 280.955 1361.31 281.122C1360.88 281.505 1360.43 281.878 1359.97 282.231C1359.51 282.584 1359.04 282.931 1358.56 283.253C1358.08 283.582 1357.58 283.887 1357.08 284.185L1357.07 284.192C1356.84 284.326 1356.74 284.613 1356.85 284.863C1356.97 285.13 1357.29 285.251 1357.55 285.134C1358.11 284.887 1358.67 284.633 1359.21 284.35C1359.75 284.075 1360.28 283.772 1360.81 283.459C1361.34 283.145 1361.85 282.809 1362.36 282.458C1362.61 282.284 1362.86 282.101 1363.11 281.915C1363.22 281.829 1363.33 281.747 1363.44 281.661C1363.45 281.666 1363.45 281.668 1363.46 281.672C1363.37 281.794 1363.27 281.917 1363.17 282.039C1362.87 282.399 1362.55 282.752 1362.22 283.099C1361.9 283.445 1361.56 283.783 1361.21 284.114C1360.87 284.448 1360.51 284.77 1360.15 285.09L1360.14 285.095C1359.95 285.267 1359.91 285.56 1360.05 285.783C1360.21 286.029 1360.54 286.097 1360.79 285.936C1361.2 285.664 1361.62 285.386 1362.02 285.095C1362.43 284.805 1362.83 284.505 1363.22 284.194C1363.62 283.88 1364 283.558 1364.38 283.22C1364.57 283.05 1364.76 282.878 1364.95 282.697L1365.23 282.421C1365.26 282.385 1365.29 282.35 1365.33 282.315C1365.85 282.096 1367.65 281.173 1369.59 278.16C1370.22 277.173 1368.87 274.296 1367.79 273.916C1366.56 273.488 1364.61 273.806 1364.09 273.903C1363.81 273.878 1363.54 273.865 1363.26 273.861C1362.73 273.863 1362.21 273.885 1361.69 273.954C1361.43 273.978 1361.18 274.033 1360.92 274.07C1360.67 274.119 1360.41 274.179 1360.16 274.232C1359.91 274.285 1359.73 274.519 1359.74 274.784V274.781Z" fill="#F99370"/>
<path d="M1379.55 232.476C1384.62 239.044 1390.11 245.981 1391.65 254.457C1394.41 265.95 1385.74 272.242 1376.21 275.766C1374.09 276.623 1372.01 277.407 1370 278.246C1368.68 278.806 1367.16 278.184 1366.61 276.861C1366.11 275.671 1366.57 274.322 1367.63 273.664C1369.59 272.452 1371.56 271.332 1373.44 270.198C1377.92 267.354 1384.9 263.678 1382.51 257.586C1380.58 250.183 1374.75 245.069 1369.91 239.437C1364.87 232.908 1374.91 225.614 1379.55 232.471V232.476Z" fill="#F99370"/>
<path d="M1393.86 248.275C1398.33 262.918 1389.06 271.668 1382.28 275.117C1378.77 276.905 1375.68 277.634 1373.52 277.923C1371.51 278.193 1370.31 278.08 1370.31 278.08C1370.51 274.943 1368.26 273.434 1368.26 273.434C1368.21 272.604 1368.76 271.644 1369.64 270.622C1372.57 267.257 1377.95 263.934 1378.43 260.326C1379.07 255.577 1377.04 249.326 1371.97 244.049C1365.17 236.964 1367.05 231.314 1367.05 231.314C1367.05 231.314 1367.31 228.499 1371.39 227.448C1376.06 226.245 1388.61 231.069 1393.86 248.275L1393.86 248.275Z" fill="#EB5648"/>
<path d="M1369.65 270.619C1370.25 271.598 1369.36 272.096 1369.64 272.845C1369.92 273.596 1371.53 273.282 1371.57 274.046C1371.62 274.81 1370.65 275.722 1372.01 276.236C1373.33 276.735 1373.51 277.868 1373.52 277.923C1371.52 278.193 1370.26 278.14 1370.26 278.14C1370.46 275.002 1368.16 273.401 1368.16 273.401C1368.11 272.571 1368.76 271.646 1369.65 270.622V270.619Z" fill="#CE3932"/>
<path d="M1371.39 227.448C1371.39 227.448 1372.08 229.755 1369.94 230.798C1367.8 231.84 1368.81 234.253 1366.19 234.522C1363.58 234.792 1363.12 232.294 1360.71 233.825C1358.11 235.474 1356.58 233.12 1357.22 231.718C1357.86 230.316 1355.71 230.82 1356.37 228.81C1356.37 228.81 1358.6 227.144 1360.28 228.245C1360.28 228.245 1360.71 230.436 1362.31 230.581C1363.36 230.678 1365.99 229.06 1367.38 227.808C1367.38 227.808 1369.47 226.693 1371.39 227.448H1371.39Z" fill="#CE3932"/>
<path d="M1312.92 242.751C1311.38 244.12 1309.86 241.963 1312.08 241.605L1312.06 241.627C1312.9 240.901 1313.72 242.089 1312.92 242.751H1312.92Z" fill="#F99370"/>
<path d="M1311.76 241.998C1309.74 243.215 1309.01 240.444 1311.03 240.72C1310.99 240.724 1311.22 240.663 1311.18 240.669C1312.16 240.119 1312.63 241.537 1311.76 241.998Z" fill="#F99370"/>
<path d="M1310.52 241.245L1309.75 241.431C1308.68 241.652 1308.75 240.069 1309.65 239.91L1310.41 239.724C1311.48 239.503 1311.41 241.087 1310.52 241.245Z" fill="#F99370"/>
<path d="M1309.54 240.424L1308.78 240.61C1307.7 240.83 1307.77 239.247 1308.67 239.088L1309.43 238.903C1310.5 238.682 1310.44 240.265 1309.54 240.424Z" fill="#F99370"/>
<path d="M1265.53 192.473C1265.5 192.473 1265.47 192.473 1265.44 192.468C1264.56 192.395 1243.82 190.55 1233.67 179.351C1223.59 168.23 1221.15 153.589 1221.05 152.971C1220.95 152.368 1221.36 151.803 1221.97 151.706C1222.57 151.609 1223.13 152.019 1223.23 152.622C1223.26 152.766 1225.68 167.245 1235.3 177.867C1244.87 188.417 1265.42 190.252 1265.62 190.267C1266.23 190.318 1266.68 190.852 1266.63 191.459C1266.58 192.036 1266.1 192.471 1265.53 192.471V192.473Z" fill="#9358E0"/>
<path d="M1269.89 188.024C1269.71 188.024 1269.54 187.982 1269.37 187.894C1255.96 180.72 1243.17 167.711 1243.05 167.581C1242.62 167.146 1242.63 166.446 1243.06 166.02C1243.5 165.594 1244.2 165.602 1244.62 166.037C1244.75 166.166 1257.31 178.936 1270.41 185.948C1270.95 186.235 1271.15 186.904 1270.86 187.443C1270.66 187.814 1270.28 188.026 1269.89 188.026L1269.89 188.024Z" fill="#9358E0"/>
<path d="M1273.9 183.937C1273.4 183.937 1272.95 183.604 1272.83 183.105C1272.8 183.021 1270.59 174.538 1263.73 165.887C1256.29 156.504 1241.49 155.358 1241.35 155.347C1240.74 155.305 1240.28 154.775 1240.32 154.168C1240.36 153.561 1240.89 153.104 1241.5 153.143C1242.15 153.19 1257.42 154.375 1265.46 164.514C1272.62 173.555 1274.87 182.197 1274.97 182.559C1275.12 183.151 1274.76 183.752 1274.17 183.902C1274.08 183.924 1273.98 183.935 1273.9 183.935V183.937Z" fill="#9358E0"/>
<path d="M1278.54 178.09L1311.93 212.883L1296.94 228.183L1261.46 195.522L1278.54 178.09Z" fill="#1D3F70"/>
<path d="M1060.59 201.338C1060.59 201.338 1056.13 206.202 1059.74 211.838L1064.62 210.253L1060.59 201.338Z" fill="#F99370"/>
<path d="M1093.83 233.365C1099.92 230.257 1119.68 220.672 1121.83 214.212C1123.23 209.593 1122.73 204.075 1122.03 199.205C1121.94 197.376 1120.35 194.332 1122.99 193.698C1124.61 193.38 1125.24 195.058 1125.85 196.189C1135.58 214.642 1125.94 231.08 1108.01 240.155C1104.89 241.894 1101.69 243.497 1098.36 244.791C1090.84 247.56 1086.46 236.501 1093.83 233.363L1093.83 233.365Z" fill="#F99370"/>
<path d="M1117.17 188.404C1117.17 188.404 1124.06 187.518 1125.38 195.286L1121.05 197.003L1117.17 188.404Z" fill="#F99370"/>
<path d="M1118.1 376.966L1102.3 376.345C1100.92 376.235 1100.99 374.831 1101.29 373.751C1102.31 369.859 1101.13 360.338 1101 356.289C1100.95 355.547 1101.56 354.926 1102.31 354.955L1109.28 355.229C1110.03 355.258 1110.59 355.944 1110.47 356.688L1108.8 366.737C1108.09 371.336 1113 372.446 1116.12 373.184C1117.35 373.548 1118.64 374.084 1119.22 375.041C1119.75 375.897 1119.11 377.003 1118.1 376.964L1118.1 376.966Z" fill="#F99370"/>
<path d="M1100.65 374.638C1100.66 375.414 1101.01 376.312 1101.91 376.328L1118.3 376.972C1119.14 377.008 1119.78 376.182 1119.51 375.38C1118.94 373.568 1116.41 370.662 1109.35 369.828C1108.24 369.695 1105.1 370.653 1101.7 369.64C1101.7 369.64 1100.41 371.706 1100.65 374.641L1100.65 374.638Z" fill="#1D3F70"/>
<path d="M1114.48 374.603C1114.43 374.603 1114.39 374.592 1114.34 374.572C1114.17 374.493 1114.09 374.287 1114.17 374.111C1114.99 372.3 1116.41 371.786 1116.47 371.766C1116.65 371.704 1116.85 371.799 1116.91 371.98C1116.98 372.161 1116.88 372.36 1116.7 372.424C1116.65 372.442 1115.5 372.872 1114.81 374.4C1114.75 374.532 1114.61 374.61 1114.47 374.605L1114.48 374.603Z" fill="#E8C0A6"/>
<path d="M1111.78 374.171C1111.75 374.171 1111.71 374.164 1111.68 374.151C1111.5 374.087 1111.4 373.888 1111.47 373.707C1112.19 371.66 1114 370.792 1114.07 370.757C1114.25 370.675 1114.45 370.75 1114.53 370.923C1114.62 371.097 1114.54 371.302 1114.37 371.386C1114.35 371.393 1112.75 372.172 1112.13 373.939C1112.07 374.087 1111.93 374.177 1111.78 374.171H1111.78Z" fill="#E8C0A6"/>
<path d="M1108.72 373.671C1108.68 373.671 1108.64 373.663 1108.6 373.647C1108.42 373.576 1108.33 373.376 1108.41 373.197C1109.22 371.13 1110.9 370.093 1110.97 370.048C1111.14 369.949 1111.35 370 1111.45 370.165C1111.55 370.329 1111.5 370.543 1111.34 370.644C1111.32 370.653 1109.78 371.611 1109.05 373.453C1109 373.594 1108.86 373.678 1108.72 373.674V373.671Z" fill="#E8C0A6"/>
<path d="M1119.51 375.381L1100.65 374.638C1100.69 375.217 1100.83 375.78 1101.1 376.297L1118.29 376.972C1119.13 377.005 1119.76 376.206 1119.52 375.409C1119.51 375.4 1119.51 375.389 1119.51 375.381Z" fill="#10325B"/>
<path d="M1112.74 362.72C1112.09 364.802 1111.68 366.012 1111.68 366.012C1111.68 366.012 1104.86 368.805 1098.54 366.321C1098.54 366.321 1098.57 365.864 1098.63 365.036C1098.63 364.939 1098.64 364.835 1098.65 364.727C1098.67 364.403 1098.69 364.03 1098.72 363.614C1099.27 354.769 1100.41 328.732 1099.9 322.183C1099.25 313.769 1095.97 306.637 1092.42 301.627C1091.18 299.892 1089.92 298.41 1088.71 297.218C1081.65 290.217 1074.22 290.477 1076.83 278.199C1077.22 276.393 1093.17 277.186 1093.17 277.186L1111.18 280.087C1111.18 280.087 1119.11 299.459 1120.58 317.75C1121.76 332.381 1115.19 354.732 1112.74 362.72Z" fill="#1D3F70"/>
<path d="M1101.3 365.034H1098.63C1098.63 364.937 1098.64 364.833 1098.65 364.725C1098.67 364.4 1098.69 364.027 1098.72 363.612C1099.27 354.767 1100.41 328.73 1099.9 322.181C1099.25 313.766 1095.97 306.635 1092.41 301.625L1092.82 296.79C1092.82 296.79 1099.72 306.569 1101.48 315.475C1103.25 324.387 1101.3 365.034 1101.3 365.034H1101.3Z" fill="#103663"/>
<path d="M1112.74 362.72C1112.09 364.802 1111.68 366.012 1111.68 366.012C1111.68 366.012 1104.86 368.805 1098.54 366.321C1098.54 366.321 1098.61 365.321 1098.71 363.614H1098.72C1098.72 363.614 1106.04 365.747 1112.74 362.72Z" fill="#103663"/>
<path d="M1033.24 356.443L1027.92 341.555C1027.68 340.875 1028.05 340.136 1028.74 339.926C1032.35 339.458 1037.51 336.978 1040.79 335.395C1040.79 335.395 1045.08 342.312 1044.34 342.478L1036.34 345.75C1034.91 347.263 1035.21 346.686 1035.43 348.905C1035.6 351.736 1036.82 354.438 1035.45 356.759C1034.85 357.576 1033.59 357.395 1033.24 356.443H1033.24Z" fill="#F99370"/>
<path d="M1028.88 339.385C1028.17 339.685 1027.47 340.345 1027.79 341.184L1033.31 356.629C1033.59 357.428 1034.59 357.708 1035.24 357.159C1036.71 355.957 1038.64 353.149 1036.44 345.706C1035.97 344.695 1034.56 342.14 1033.79 338.513C1033.79 338.513 1031.51 338.067 1028.88 339.387L1028.88 339.385Z" fill="#1D3F70"/>
<path d="M1034.08 352.199C1034.06 352.158 1034.06 352.113 1034.06 352.067C1034.07 351.875 1034.23 351.725 1034.42 351.734C1036.41 351.817 1037.41 352.941 1037.45 352.99C1037.58 353.136 1037.57 353.354 1037.42 353.482C1037.28 353.608 1037.06 353.595 1036.93 353.451C1036.9 353.411 1036.07 352.502 1034.39 352.431C1034.25 352.425 1034.12 352.33 1034.08 352.199V352.199Z" fill="#E8C0A6"/>
<path d="M1033.48 349.539C1033.46 349.506 1033.46 349.473 1033.46 349.438C1033.45 349.245 1033.6 349.082 1033.79 349.075C1035.96 348.983 1037.44 350.332 1037.5 350.389C1037.64 350.521 1037.65 350.74 1037.52 350.881C1037.39 351.023 1037.17 351.032 1037.03 350.901C1037.01 350.888 1035.69 349.691 1033.82 349.773C1033.66 349.78 1033.53 349.683 1033.48 349.541L1033.48 349.539Z" fill="#E8C0A6"/>
<path d="M1032.79 346.512C1032.78 346.477 1032.77 346.437 1032.77 346.397C1032.77 346.205 1032.93 346.048 1033.12 346.046C1035.34 346.028 1036.93 347.203 1037 347.252C1037.15 347.366 1037.18 347.585 1037.07 347.74C1036.95 347.894 1036.73 347.925 1036.58 347.81C1036.56 347.799 1035.1 346.726 1033.12 346.742C1032.97 346.742 1032.84 346.647 1032.79 346.51L1032.79 346.512Z" fill="#E8C0A6"/>
<path d="M1108.9 365.116L1108.07 364.952C1108.13 364.61 1114.73 330.646 1113.96 315.926C1113.18 301.237 1104.08 280.893 1103.99 280.69L1104.77 280.339C1104.86 280.544 1114.03 301.031 1114.81 315.881C1115.59 330.705 1108.97 364.773 1108.9 365.116H1108.9Z" fill="#103663"/>
<path d="M1035.24 357.156L1028.88 339.385C1028.55 339.55 1028.24 339.751 1027.95 339.99C1027.68 340.222 1027.58 340.601 1027.7 340.939L1033.31 356.629C1033.59 357.415 1034.57 357.702 1035.22 357.176C1035.22 357.169 1035.23 357.163 1035.24 357.156Z" fill="#10325B"/>
<path d="M1098.98 281.193C1093.89 300.464 1089.85 315.469 1075.18 330.299C1065.52 340.067 1050.47 344.618 1044.04 345.598C1041.87 345.927 1040.56 346.015 1040.56 346.015C1040.56 346.015 1034.05 340.52 1036.38 332.317C1036.38 332.317 1037.47 332.01 1039.19 331.445C1044.57 329.686 1055.68 325.162 1059.48 320.211C1071.36 304.714 1065.85 291.597 1071.85 278.047L1098.98 281.195V281.193Z" fill="#1D3F70"/>
<path d="M1044.04 345.596C1041.87 345.925 1040.56 346.013 1040.56 346.013C1040.56 346.013 1034.05 340.518 1036.38 332.315C1036.38 332.315 1037.47 332.008 1039.19 331.443C1039.19 331.443 1038.32 340.376 1044.03 345.596H1044.04Z" fill="#103663"/>
<path d="M1095.36 232.169C1095.76 228.72 1095.22 223.73 1094.73 221.694C1093.87 217.656 1087.45 219.219 1088.52 223.189C1088.73 223.059 1089.39 230.378 1088.93 232.409C1082.91 234.213 1101.01 240.141 1095.36 232.169H1095.36Z" fill="#F99370"/>
<path d="M1088.46 222.856C1088.46 222.902 1088.47 222.951 1088.48 222.997C1088.49 223.063 1088.5 223.125 1088.52 223.189C1088.67 223.09 1089.09 227.128 1089.09 230.06C1091.85 231.312 1094.91 230.742 1095.48 230.628C1095.6 227.53 1095.13 223.706 1094.87 222.271C1094.8 221.933 1094.75 221.736 1094.74 221.697C1094.71 221.606 1094.69 221.516 1094.66 221.429C1094.35 220.511 1093.65 219.813 1092.8 219.475C1092.21 219.244 1091.54 219.186 1090.88 219.345C1090.22 219.504 1089.66 219.857 1089.24 220.328C1089.23 220.345 1089.21 220.367 1089.19 220.385C1088.63 221.054 1088.34 221.944 1088.46 222.858L1088.46 222.856Z" fill="#E57D61"/>
<path d="M1099.33 215.386C1099.33 215.386 1098.72 211.988 1097.27 209.814L1095.48 211.085L1099.33 215.386Z" fill="#8E4A35"/>
<path d="M1101 225.346C1099.07 228.075 1095.6 229.323 1092.65 229.173C1091.72 229.14 1090.83 228.965 1089.99 228.616C1089.71 228.499 1089.44 228.365 1089.18 228.212H1089.18C1076.52 219.032 1088.38 198.712 1097.66 213.256C1100.66 217.29 1105.01 219.005 1101 225.346H1101Z" fill="#F99370"/>
<path d="M1094.21 292.608C1094.2 292.608 1094.18 292.608 1094.18 292.608C1094.06 292.604 1093.95 292.548 1093.87 292.46C1093.8 292.37 1093.76 292.252 1093.77 292.135L1094.43 286.238C1094.46 286.004 1094.67 285.836 1094.9 285.861C1095.14 285.887 1095.31 286.099 1095.28 286.333L1094.69 291.612C1094.86 291.524 1095.06 291.385 1095.28 291.162C1096.16 290.23 1097.17 287.952 1096.89 282.39C1096.88 282.154 1097.06 281.953 1097.3 281.942C1097.53 281.928 1097.73 282.112 1097.74 282.348C1098.04 288.289 1096.87 290.773 1095.84 291.809C1095.09 292.566 1094.38 292.615 1094.21 292.615V292.608Z" fill="#103663"/>
<path d="M1094.88 217.23C1094.95 216.998 1094.82 216.749 1094.59 216.676C1094.36 216.601 1094.11 216.729 1094.03 216.963C1093.96 217.195 1094.09 217.444 1094.32 217.517C1094.55 217.592 1094.8 217.464 1094.88 217.23H1094.88Z" fill="#C16256"/>
<path d="M1040.05 342.405L1039.86 341.571C1040.07 341.524 1060.25 336.892 1071.21 327.248C1082.55 317.273 1086.24 295.984 1088.93 280.44L1089.77 280.586C1087.06 296.255 1083.34 317.714 1071.78 327.89C1060.65 337.68 1040.26 342.359 1040.05 342.405H1040.05Z" fill="#103663"/>
<path d="M1098.44 216.022C1098.52 215.79 1098.39 215.541 1098.16 215.468C1097.92 215.393 1097.68 215.521 1097.6 215.755C1097.53 215.987 1097.65 216.237 1097.89 216.309C1098.12 216.384 1098.37 216.256 1098.44 216.022Z" fill="#C16256"/>
<path d="M1097.92 219.979C1097.67 220.052 1097.4 220.078 1097.17 220.045C1097.08 220.032 1097.02 219.946 1097.03 219.855C1097.04 219.763 1097.13 219.703 1097.22 219.714C1097.8 219.802 1098.54 219.398 1098.61 219.129C1098.63 219.034 1098.5 218.968 1098.38 218.926C1097.37 218.57 1096.45 216.903 1096.41 216.833C1096.37 216.751 1096.4 216.649 1096.48 216.605C1096.56 216.559 1096.66 216.592 1096.71 216.671C1096.72 216.687 1097.6 218.297 1098.49 218.608C1098.98 218.778 1098.96 219.083 1098.93 219.206C1098.85 219.529 1098.41 219.833 1097.92 219.975V219.979Z" fill="#C16256"/>
<path d="M1096.98 212.256C1094.41 211.395 1090.31 213.225 1088.2 213.552C1088.2 213.552 1089.23 217.08 1086.01 220.235C1086.24 223.595 1085.93 225.13 1089.99 228.616C1089.71 228.499 1089.44 228.365 1089.18 228.212H1089.17C1077.01 219.476 1087.75 199.441 1096.98 212.258L1096.98 212.256Z" fill="#E57D61"/>
<path d="M1097.6 204.791C1095.81 202.336 1091.54 201.534 1088.6 205.409C1086.34 208.392 1083.45 208.842 1083.94 211.514C1078.97 214.823 1082.6 220.306 1082.6 220.306L1085.24 219.551C1087.91 216.563 1087.22 212.922 1087.22 212.922C1087.91 212.845 1088.63 212.697 1089.24 212.43C1091.14 211.602 1094.03 210.88 1096.4 211.339C1098.76 211.799 1099.6 207.537 1097.6 204.793V204.791Z" fill="#8E4A35"/>
<path d="M1082.57 222.536C1083.09 223.869 1084.37 224.616 1085.45 224.2C1086.53 223.785 1086.98 222.368 1086.46 221.032C1085.95 219.698 1084.66 218.952 1083.58 219.367C1082.51 219.782 1082.05 221.2 1082.57 222.536Z" fill="#F99370"/>
<path d="M1084.91 220.277C1084.87 220.268 1083.78 220.038 1083.3 220.663C1083.17 220.822 1083.1 221.021 1083.09 221.253C1083.09 221.275 1083.08 221.295 1083.08 221.317C1083.06 221.745 1083.22 222.293 1083.54 222.951C1083.58 223.024 1083.66 223.059 1083.74 223.037C1083.75 223.035 1083.75 223.03 1083.77 223.026C1083.85 222.986 1083.88 222.885 1083.84 222.803C1083.58 222.268 1083.44 221.822 1083.42 221.471C1084.4 221.487 1085.05 222.474 1085.05 222.485C1085.09 222.549 1085.17 222.575 1085.24 222.555C1085.26 222.551 1085.27 222.545 1085.29 222.536C1085.36 222.487 1085.39 222.383 1085.34 222.306C1085.31 222.257 1084.6 221.151 1083.45 221.127C1083.47 221.028 1083.5 220.937 1083.56 220.866C1083.92 220.407 1084.84 220.599 1084.85 220.602C1084.94 220.621 1085.02 220.564 1085.04 220.473C1085.06 220.383 1085.01 220.295 1084.92 220.275L1084.91 220.277Z" fill="#C16256"/>
<path d="M1111.47 277.312C1111.4 278.329 1111.3 279.264 1111.17 280.087C1111.17 280.087 1090.35 286.638 1071.85 278.045C1070.94 273.781 1071.76 270.679 1073.96 262.121C1075.34 257.312 1075.27 247.792 1075.64 245.416C1077.75 233.847 1085.23 233.376 1088.96 232.169C1090.87 237.042 1096.48 235.725 1095.37 232.173C1111.44 236.284 1111.61 261.73 1111.47 277.312Z" fill="#CE4ABF"/>
<path d="M1092.82 216.868C1092.78 216.868 1092.75 216.861 1092.73 216.848C1092.62 216.797 1092.57 216.671 1092.62 216.565C1092.65 216.51 1093.28 215.201 1094.71 214.94C1094.82 214.921 1094.93 214.996 1094.95 215.11C1094.97 215.225 1094.9 215.338 1094.78 215.358C1093.57 215.581 1093.01 216.735 1093.01 216.746C1092.97 216.824 1092.9 216.868 1092.82 216.868Z" fill="#C16256"/>
<path d="M1098.46 214.899C1098.43 214.899 1098.4 214.892 1098.38 214.881C1097.41 214.446 1096.66 214.854 1096.63 214.872C1096.52 214.929 1096.39 214.894 1096.34 214.79C1096.28 214.689 1096.32 214.558 1096.42 214.501C1096.45 214.479 1097.38 213.965 1098.55 214.492C1098.66 214.541 1098.71 214.667 1098.66 214.773C1098.62 214.852 1098.54 214.899 1098.46 214.899Z" fill="#C16256"/>
<path d="M1077.51 285.282C1077.47 285.282 1077.44 285.278 1077.41 285.271C1072.11 284.039 1072.24 280.635 1072.24 280.491C1072.25 280.356 1072.32 280.233 1072.43 280.158C1072.55 280.083 1072.69 280.065 1072.81 280.111C1077.85 281.913 1083.01 282.851 1083.06 282.86C1083.29 282.902 1083.44 283.125 1083.4 283.357C1083.36 283.589 1083.14 283.743 1082.9 283.701C1082.85 283.692 1078.06 282.82 1073.18 281.147C1073.42 282.039 1074.31 283.671 1077.6 284.437C1077.83 284.49 1077.97 284.719 1077.92 284.951C1077.87 285.147 1077.7 285.282 1077.5 285.282H1077.51Z" fill="#103663"/>
<path d="M1110.44 243.99C1109.61 244.456 1108.79 244.873 1107.98 245.237C1107.53 245.44 1107.09 245.626 1106.65 245.794L1095.36 232.171C1098.71 229.493 1118.17 220.138 1120.49 214.85C1121.77 212.549 1122.69 203.965 1121.97 198.637C1122.02 198.637 1124.11 198.624 1125.89 196.253C1128.06 200.158 1130.33 204.817 1131.75 212.359C1134.44 222.211 1121.95 237.554 1110.44 243.99Z" fill="#CE4ABF"/>
<path d="M1126.92 198.163C1124.81 200.638 1122.14 200.388 1122.14 200.388C1122.1 199.794 1122.04 199.192 1121.97 198.635C1121.97 198.635 1124.09 198.648 1125.89 196.25C1125.89 196.25 1126.3 196.937 1126.92 198.163Z" fill="#A523A2"/>
<path d="M1111.47 277.311C1111.4 278.329 1111.3 279.263 1111.17 280.087C1111.17 280.087 1090.35 286.638 1071.85 278.044C1071.85 278.044 1071.49 277.239 1071.48 275.28C1071.48 275.28 1080.63 279.144 1091.53 279.864C1097.94 280.285 1105.95 278.694 1111.47 277.311Z" fill="#A523A2"/>
<path d="M1143.56 173.502C1143.9 175.728 1142.44 177.909 1140.11 178.609C1136.24 179.768 1132.97 182.303 1130.75 185.677C1130.58 185.935 1130.4 186.191 1130.21 186.443C1127.8 189.675 1124.06 192.234 1119.52 193.422L1111.36 195.493L1072.97 205.234L1053.76 210.107L1046.51 173.675L1066.13 170.829L1105.32 165.139L1113.65 163.931C1118.68 163.238 1123.45 164.386 1127.01 166.81C1130.34 169.073 1134.34 170.146 1138.34 169.74H1138.35C1139.59 169.612 1140.77 169.934 1141.7 170.577C1142.63 171.217 1143.3 172.175 1143.53 173.319C1143.54 173.381 1143.55 173.443 1143.56 173.505V173.502Z" fill="#F4D4BE"/>
<path d="M1072.97 205.234L1066.13 170.828L1105.32 165.141L1111.36 195.493L1072.97 205.234Z" fill="#3A72AA"/>
<path d="M1046.95 208.935L1040.37 177.625C1040.16 176.642 1040.57 175.633 1041.4 175.072L1046.85 171.405C1048.31 170.422 1050.3 171.242 1050.65 172.968L1057.82 209.056C1058.16 210.765 1056.67 212.275 1054.96 211.962L1048.92 210.851C1047.93 210.67 1047.16 209.913 1046.95 208.935H1046.95Z" fill="#D1A68F"/>
<path d="M1143.56 173.502C1143.9 175.728 1142.44 177.909 1140.11 178.609C1136.8 174.348 1138.34 169.738 1138.34 169.738H1138.35C1139.59 169.61 1140.77 169.932 1141.7 170.575C1142.63 171.215 1143.3 172.173 1143.53 173.317C1143.54 173.379 1143.55 173.441 1143.56 173.502Z" fill="#1D3F70"/>
<path d="M1121.75 197.441C1119.49 196.867 1118.09 195.001 1117.44 193.159C1117.24 192.61 1116.91 191.757 1117.68 191.515C1118.02 191.415 1118.37 191.572 1118.52 191.874C1119.15 193.382 1120.42 194.709 1122.02 195.122C1123.49 195.557 1123.21 197.92 1121.75 197.441H1121.75Z" fill="#F99370"/>
<path d="M1063.53 212.006C1066 209.65 1065.11 206.235 1064.1 204.563C1063.8 204.062 1063.35 203.269 1062.67 203.711C1062.38 203.905 1062.28 204.276 1062.42 204.585C1063.18 206.029 1063.4 207.857 1062.71 209.35C1062.11 210.763 1063.53 212.008 1063.53 212.008L1063.53 212.006Z" fill="#F99370"/>
<path d="M1084.61 244.937C1055.52 245.741 1046.49 236.852 1060.33 209.485C1061.26 207.696 1064.14 208.719 1063.75 210.67C1063.74 210.71 1063.5 212.211 1063.49 212.26C1062.87 217.404 1060.63 227.561 1063.4 231.829C1069.78 234.377 1077.18 233.52 1083.97 233.412C1091.47 233.202 1092.08 244.317 1084.61 244.937H1084.61Z" fill="#F99370"/>
<path d="M1090.68 241.51C1090.75 244.44 1086.6 250.697 1078.79 250.925C1077.76 250.954 1076.58 250.852 1075.3 250.627C1071.57 249.973 1067.01 248.28 1063 245.794C1063 245.792 1063 245.791 1063 245.791C1057.95 242.667 1053.79 238.291 1053.25 233.167C1052.39 225.143 1056.14 217.144 1058.01 213.728H1058.01C1058.61 212.631 1059.01 212.008 1059.01 212.008C1062.11 211.706 1063.41 212.872 1063.41 212.872C1063.41 212.872 1063.42 213.521 1063.44 214.578C1063.48 216.786 1063.58 220.772 1063.81 224.317C1064.15 229.559 1067.19 232.151 1076.3 231.701C1085.41 231.25 1088.96 232.171 1088.96 232.171C1088.96 232.171 1090.6 238.578 1090.68 241.51Z" fill="#CE4ABF"/>
<path d="M1063.44 214.578C1060.38 213.32 1058.1 213.713 1058.01 213.728C1058.61 212.631 1059.01 212.008 1059.01 212.008C1062.11 211.706 1063.41 212.872 1063.41 212.872C1063.41 212.872 1063.42 213.521 1063.44 214.578Z" fill="#A523A2"/>
<path d="M1076.36 243.652C1075.52 247.26 1075.3 250.627 1075.3 250.627C1071.57 249.973 1067.01 248.28 1063 245.794C1072.3 249.119 1076.36 243.652 1076.36 243.652Z" fill="#A523A2"/>
<path d="M1110.44 243.99C1109.61 244.456 1108.79 244.873 1107.97 245.237C1107.18 242.822 1105.12 239.422 1105.06 239.316C1108.77 241.345 1110.44 243.99 1110.44 243.99Z" fill="#A523A2"/>
<path d="M1098.52 222.041L1094.92 220.423C1094.92 220.423 1094.8 222.35 1096.22 222.801C1097.58 223.231 1098.52 222.041 1098.52 222.041Z" fill="#F9F8F3"/>
<path d="M1098.55 222.191C1098.52 222.196 1098.49 222.191 1098.46 222.18L1094.86 220.562C1094.78 220.527 1094.74 220.436 1094.78 220.359C1094.81 220.281 1094.9 220.246 1094.98 220.281L1098.59 221.9C1098.66 221.935 1098.7 222.026 1098.66 222.103C1098.64 222.152 1098.6 222.182 1098.55 222.191Z" fill="#C16256"/>
<defs>
<filter id="filter0_i_1_1762" x="442.223" y="79.9997" width="179.891" height="63.728" filterUnits="userSpaceOnUse" color-interpolation-filters="sRGB">
<feFlood flood-opacity="0" result="BackgroundImageFix"/>
<feBlend mode="normal" in="SourceGraphic" in2="BackgroundImageFix" result="shape"/>
<feColorMatrix in="SourceAlpha" type="matrix" values="0 0 0 0 0 0 0 0 0 0 0 0 0 0 0 0 0 0 127 0" result="hardAlpha"/>
<feOffset dy="4"/>
<feGaussianBlur stdDeviation="2.5"/>
<feComposite in2="hardAlpha" operator="arithmetic" k2="-1" k3="1"/>
<feColorMatrix type="matrix" values="0 0 0 0 0 0 0 0 0 0 0 0 0 0 0 0 0 0 0.25 0"/>
<feBlend mode="normal" in2="shape" result="effect1_innerShadow_1_1762"/>
</filter>
</defs>
</svg>
