<svg width="1495" height="406" viewBox="0 0 1495 406" fill="none" xmlns="http://www.w3.org/2000/svg">
<path d="M153.686 159L504.659 182.71L472.677 265.351L191.927 250.598L153.686 159Z" fill="#FFC800"/>
<path d="M6.64 91.36H16.64V114.24H42.8V91.36H52.8V148H42.8V122.88H16.64V148H6.64V91.36ZM87.2931 123.04C87.2931 120.48 86.5198 118.587 84.9731 117.36C83.4265 116.133 81.3731 115.52 78.8131 115.52C76.7865 115.52 74.8398 115.92 72.9731 116.72C71.1598 117.52 69.6131 118.533 68.3331 119.76L63.3731 114.24C65.3465 112.373 67.7465 110.907 70.5731 109.84C73.4531 108.72 76.4931 108.16 79.6931 108.16C84.7598 108.16 88.7065 109.36 91.5331 111.76C94.3598 114.16 95.9065 117.92 96.1731 123.04C96.2265 123.787 96.2531 124.533 96.2531 125.28C96.3065 126.027 96.3331 126.8 96.3331 127.6V139.84C96.3331 141.227 96.3598 142.64 96.4131 144.08C96.4665 145.467 96.5465 146.773 96.6531 148H87.8531C87.7998 147.2 87.7465 146.373 87.6931 145.52C87.6398 144.667 87.6131 143.787 87.6131 142.88H87.4531C86.0665 144.907 84.3331 146.427 82.2531 147.44C80.1731 148.453 77.7731 148.96 75.0531 148.96C73.5598 148.96 71.9865 148.747 70.3331 148.32C68.7331 147.893 67.2665 147.227 65.9331 146.32C64.5998 145.36 63.4798 144.133 62.5731 142.64C61.7198 141.093 61.2931 139.2 61.2931 136.96C61.2931 134.08 62.0398 131.787 63.5331 130.08C65.0798 128.373 67.0798 127.067 69.5331 126.16C72.0398 125.253 74.8398 124.667 77.9331 124.4C81.0265 124.133 84.1465 124 87.2931 124V123.04ZM85.8531 130C84.0398 130 82.1998 130.08 80.3331 130.24C78.5198 130.4 76.8665 130.72 75.3731 131.2C73.9331 131.627 72.7331 132.293 71.7731 133.2C70.8665 134.053 70.4131 135.2 70.4131 136.64C70.4131 137.707 70.6265 138.587 71.0531 139.28C71.4798 139.973 72.0131 140.533 72.6531 140.96C73.3465 141.387 74.1198 141.707 74.9731 141.92C75.8265 142.08 76.6798 142.16 77.5331 142.16C80.7331 142.16 83.1865 141.2 84.8931 139.28C86.5998 137.307 87.4531 134.88 87.4531 132V130H85.8531ZM140.556 137.6H140.796L150.396 109.28H160.636L143.516 152.96C142.662 155.093 141.782 157.04 140.876 158.8C140.022 160.56 138.982 162.053 137.756 163.28C136.582 164.507 135.169 165.467 133.516 166.16C131.862 166.853 129.862 167.2 127.516 167.2C126.449 167.2 125.382 167.12 124.316 166.96C123.302 166.853 122.342 166.693 121.436 166.48L122.476 158.24C123.062 158.453 123.702 158.613 124.396 158.72C125.142 158.88 125.862 158.96 126.556 158.96C128.529 158.96 129.996 158.427 130.956 157.36C131.916 156.347 132.769 154.88 133.516 152.96L135.596 147.6L119.276 109.28H129.916L140.556 137.6ZM175.296 167.2H165.696V109.28H174.896V114.88H175.136C176.522 112.853 178.389 111.253 180.736 110.08C183.082 108.853 185.669 108.24 188.496 108.24C191.429 108.24 194.069 108.773 196.416 109.84C198.762 110.907 200.762 112.373 202.416 114.24C204.069 116.053 205.349 118.213 206.256 120.72C207.162 123.173 207.616 125.787 207.616 128.56C207.616 131.333 207.162 133.973 206.256 136.48C205.402 138.933 204.149 141.093 202.496 142.96C200.842 144.827 198.816 146.32 196.416 147.44C194.069 148.507 191.429 149.04 188.496 149.04C185.936 149.04 183.456 148.507 181.056 147.44C178.709 146.32 176.842 144.747 175.456 142.72H175.296V167.2ZM198.096 128.56C198.096 126.907 197.829 125.333 197.296 123.84C196.816 122.293 196.096 120.96 195.136 119.84C194.176 118.667 192.976 117.76 191.536 117.12C190.096 116.427 188.416 116.08 186.496 116.08C184.736 116.08 183.136 116.427 181.696 117.12C180.256 117.76 179.002 118.667 177.936 119.84C176.922 120.96 176.122 122.293 175.536 123.84C175.002 125.333 174.736 126.907 174.736 128.56C174.736 130.267 175.002 131.893 175.536 133.44C176.122 134.933 176.922 136.24 177.936 137.36C179.002 138.48 180.256 139.387 181.696 140.08C183.136 140.72 184.736 141.04 186.496 141.04C188.416 141.04 190.096 140.72 191.536 140.08C192.976 139.387 194.176 138.48 195.136 137.36C196.096 136.187 196.816 134.853 197.296 133.36C197.829 131.813 198.096 130.213 198.096 128.56ZM255.893 128.56C255.893 131.6 255.333 134.4 254.213 136.96C253.146 139.467 251.653 141.627 249.733 143.44C247.866 145.253 245.626 146.667 243.013 147.68C240.453 148.64 237.679 149.12 234.693 149.12C231.706 149.12 228.933 148.64 226.373 147.68C223.813 146.667 221.573 145.253 219.653 143.44C217.786 141.627 216.293 139.467 215.173 136.96C214.106 134.4 213.573 131.6 213.573 128.56C213.573 125.52 214.106 122.747 215.173 120.24C216.293 117.733 217.786 115.6 219.653 113.84C221.573 112.027 223.813 110.64 226.373 109.68C228.933 108.667 231.706 108.16 234.693 108.16C237.679 108.16 240.453 108.667 243.013 109.68C245.626 110.64 247.866 112.027 249.733 113.84C251.653 115.6 253.146 117.733 254.213 120.24C255.333 122.747 255.893 125.52 255.893 128.56ZM246.373 128.56C246.373 126.907 246.106 125.333 245.573 123.84C245.039 122.293 244.266 120.96 243.253 119.84C242.293 118.667 241.066 117.76 239.573 117.12C238.133 116.427 236.506 116.08 234.693 116.08C232.879 116.08 231.253 116.427 229.812 117.12C228.373 117.76 227.146 118.667 226.133 119.84C225.173 120.96 224.426 122.293 223.893 123.84C223.359 125.333 223.093 126.907 223.093 128.56C223.093 130.213 223.359 131.813 223.893 133.36C224.426 134.853 225.173 136.187 226.133 137.36C227.146 138.48 228.373 139.387 229.812 140.08C231.253 140.72 232.879 141.04 234.693 141.04C236.506 141.04 238.133 140.72 239.573 140.08C241.066 139.387 242.293 138.48 243.253 137.36C244.266 136.187 245.039 134.853 245.573 133.36C246.106 131.813 246.373 130.213 246.373 128.56ZM281.176 125.44C283.363 125.44 285.15 125.147 286.536 124.56C287.923 123.973 288.616 122.72 288.616 120.8C288.616 119.68 288.35 118.827 287.816 118.24C287.283 117.6 286.563 117.12 285.656 116.8C284.75 116.48 283.683 116.293 282.456 116.24C281.23 116.187 279.923 116.16 278.536 116.16H273.576V125.44H281.176ZM273.576 141.12H279.416C280.91 141.12 282.323 141.093 283.656 141.04C284.99 140.987 286.136 140.827 287.096 140.56C288.11 140.24 288.91 139.76 289.496 139.12C290.083 138.48 290.376 137.547 290.376 136.32C290.376 135.147 290.083 134.24 289.496 133.6C288.91 132.907 288.11 132.4 287.096 132.08C286.136 131.76 284.99 131.573 283.656 131.52C282.323 131.413 280.91 131.36 279.416 131.36H273.576V141.12ZM263.976 148V109.28H283.336C288.243 109.28 291.95 110.213 294.456 112.08C297.016 113.947 298.296 116.48 298.296 119.68C298.296 121.12 298.056 122.32 297.576 123.28C297.15 124.24 296.536 125.04 295.736 125.68C294.936 126.32 294.003 126.853 292.936 127.28C291.923 127.653 290.83 128 289.656 128.32C291.096 128.427 292.456 128.667 293.736 129.04C295.016 129.413 296.136 129.973 297.096 130.72C298.056 131.467 298.803 132.427 299.336 133.6C299.923 134.72 300.216 136.08 300.216 137.68C300.216 140.773 298.83 143.28 296.056 145.2C293.283 147.067 289.363 148 284.296 148H263.976ZM335.534 124.88C335.481 122.107 334.601 119.787 332.894 117.92C331.241 116.053 328.814 115.12 325.614 115.12C324.068 115.12 322.654 115.387 321.374 115.92C320.094 116.453 318.974 117.173 318.014 118.08C317.054 118.933 316.281 119.973 315.694 121.2C315.161 122.373 314.841 123.6 314.734 124.88H335.534ZM344.654 128.4C344.654 128.827 344.654 129.28 344.654 129.76C344.654 130.24 344.628 130.72 344.574 131.2H314.654C314.708 132.64 315.054 134 315.694 135.28C316.334 136.56 317.161 137.653 318.174 138.56C319.241 139.467 320.441 140.187 321.774 140.72C323.108 141.253 324.548 141.52 326.094 141.52C328.494 141.52 330.574 141.013 332.334 140C334.094 138.987 335.454 137.76 336.414 136.32L343.214 140.88C341.188 143.653 338.708 145.733 335.774 147.12C332.894 148.453 329.641 149.12 326.014 149.12C323.134 149.12 320.414 148.64 317.854 147.68C315.348 146.72 313.161 145.36 311.294 143.6C309.428 141.84 307.961 139.707 306.894 137.2C305.828 134.693 305.294 131.867 305.294 128.72C305.294 125.68 305.801 122.907 306.814 120.4C307.881 117.84 309.321 115.653 311.134 113.84C313.001 112.027 315.161 110.64 317.614 109.68C320.068 108.667 322.734 108.16 325.614 108.16C328.548 108.16 331.188 108.667 333.534 109.68C335.881 110.64 337.881 112 339.534 113.76C341.188 115.52 342.441 117.653 343.294 120.16C344.201 122.613 344.654 125.36 344.654 128.4ZM362.251 148H352.651V109.28H362.251V124.16H379.291V109.28H388.891V148H379.291V131.68H362.251V148ZM408.698 109.28V121.76H417.738C420.618 121.76 423.071 122.107 425.098 122.8C427.125 123.44 428.751 124.347 429.978 125.52C431.258 126.693 432.165 128.08 432.698 129.68C433.285 131.28 433.578 132.987 433.578 134.8C433.578 136.667 433.231 138.4 432.538 140C431.898 141.6 430.911 142.987 429.578 144.16C428.298 145.333 426.698 146.267 424.778 146.96C422.858 147.653 420.618 148 418.058 148H399.098V109.28H408.698ZM408.698 141.04H415.978C418.378 141.04 420.325 140.613 421.818 139.76C423.311 138.853 424.058 137.2 424.058 134.8C424.058 133.627 423.845 132.64 423.418 131.84C422.991 131.04 422.405 130.427 421.658 130C420.911 129.52 420.031 129.2 419.018 129.04C418.058 128.827 416.991 128.72 415.818 128.72H408.698V141.04Z" fill="#0E1726"/>
<path d="M227.44 179.36H247.36C249.547 179.36 251.76 179.6 254 180.08C256.24 180.507 258.24 181.28 260 182.4C261.813 183.467 263.28 184.933 264.4 186.8C265.573 188.667 266.16 191.04 266.16 193.92C266.16 196.96 265.28 199.547 263.52 201.68C261.76 203.813 259.44 205.28 256.56 206.08V206.24C258.267 206.507 259.867 207.013 261.36 207.76C262.853 208.453 264.133 209.387 265.2 210.56C266.32 211.68 267.173 213.04 267.76 214.64C268.4 216.187 268.72 217.947 268.72 219.92C268.72 222.64 268.16 225.013 267.04 227.04C265.92 229.067 264.373 230.747 262.4 232.08C260.48 233.413 258.213 234.4 255.6 235.04C253.04 235.68 250.293 236 247.36 236H227.44V179.36ZM237.2 202.96H246.48C247.813 202.96 249.067 202.827 250.24 202.56C251.467 202.24 252.533 201.76 253.44 201.12C254.347 200.48 255.067 199.68 255.6 198.72C256.133 197.707 256.4 196.48 256.4 195.04C256.4 192.373 255.387 190.453 253.36 189.28C251.333 188.107 248.693 187.52 245.44 187.52H237.2V202.96ZM237.2 227.76H246.24C247.787 227.76 249.307 227.627 250.8 227.36C252.293 227.04 253.6 226.56 254.72 225.92C255.893 225.227 256.827 224.32 257.52 223.2C258.267 222.08 258.64 220.693 258.64 219.04C258.64 216 257.573 213.84 255.44 212.56C253.307 211.227 250.4 210.56 246.72 210.56H237.2V227.76ZM286.908 197.28V209.76H292.828C296.188 209.76 299.014 210.053 301.308 210.64C303.601 211.173 305.468 212 306.908 213.12C308.348 214.187 309.388 215.547 310.028 217.2C310.668 218.8 310.988 220.667 310.988 222.8C310.988 227.28 309.414 230.613 306.268 232.8C303.174 234.933 298.588 236 292.508 236H277.308V197.28H286.908ZM286.908 229.04H293.468C295.868 229.04 297.788 228.613 299.228 227.76C300.721 226.853 301.468 225.2 301.468 222.8C301.468 220.4 300.694 218.8 299.148 218C297.601 217.147 295.628 216.72 293.228 216.72H286.908V229.04ZM324.668 197.28V236H315.068V197.28H324.668ZM334.926 236V197.28H344.526V228.4H357.966V197.28H367.566V228.4H381.086V197.28H390.606V236H334.926ZM430.584 212.88C430.531 210.107 429.651 207.787 427.944 205.92C426.291 204.053 423.864 203.12 420.664 203.12C419.118 203.12 417.704 203.387 416.424 203.92C415.144 204.453 414.024 205.173 413.064 206.08C412.104 206.933 411.331 207.973 410.744 209.2C410.211 210.373 409.891 211.6 409.784 212.88H430.584ZM439.704 216.4C439.704 216.827 439.704 217.28 439.704 217.76C439.704 218.24 439.678 218.72 439.624 219.2H409.704C409.758 220.64 410.104 222 410.744 223.28C411.384 224.56 412.211 225.653 413.224 226.56C414.291 227.467 415.491 228.187 416.824 228.72C418.158 229.253 419.598 229.52 421.144 229.52C423.544 229.52 425.624 229.013 427.384 228C429.144 226.987 430.504 225.76 431.464 224.32L438.264 228.88C436.238 231.653 433.758 233.733 430.824 235.12C427.944 236.453 424.691 237.12 421.064 237.12C418.184 237.12 415.464 236.64 412.904 235.68C410.398 234.72 408.211 233.36 406.344 231.6C404.478 229.84 403.011 227.707 401.944 225.2C400.878 222.693 400.344 219.867 400.344 216.72C400.344 213.68 400.851 210.907 401.864 208.4C402.931 205.84 404.371 203.653 406.184 201.84C408.051 200.027 410.211 198.64 412.664 197.68C415.118 196.667 417.784 196.16 420.664 196.16C423.598 196.16 426.238 196.667 428.584 197.68C430.931 198.64 432.931 200 434.584 201.76C436.238 203.52 437.491 205.653 438.344 208.16C439.251 210.613 439.704 213.36 439.704 216.4Z" fill="white"/>
<path d="M1388.82 33.1667C1403.69 52.113 1386.87 83.2205 1408.77 97.3666C1430.09 111.136 1455.81 87.984 1475.89 99.8212C1505.67 117.381 1501.21 199.076 1458.56 250.218C1445.73 265.597 1434.93 271.637 1430.32 288.937C1420.41 326.082 1456.98 347.772 1450.29 366.161C1435.2 407.566 1196.29 444.477 1098.83 321.408C1053.31 263.929 1045.64 180.374 1084.97 116.483C1156.05 1.02919 1355.47 -9.34518 1388.82 33.1667Z" fill="#F4F7FA"/>
<path d="M1351.75 291.766C1349.19 291.568 1343.81 289.082 1342.71 287.908C1335.33 280.097 1320.49 266.288 1320.67 255.403C1320.7 253.544 1329.72 251.461 1330.92 249.709C1336.32 247.11 1338.37 246.514 1342.16 241.748C1353.37 227.681 1325.1 203.223 1356.15 193C1378.89 185.511 1398.71 191.97 1394.67 159.481C1390.63 126.993 1416.17 66.487 1455.06 87.7181C1477.38 99.9034 1456.68 128.487 1468.82 148.484C1480.36 167.487 1472.08 183.836 1449.97 196.392C1427.86 208.948 1440.4 217.428 1447.87 235.625C1456.85 257.483 1419.57 262.898 1402.12 264.061C1388.08 264.998 1353 276.012 1351.74 291.765L1351.75 291.766Z" fill="url(#paint0_linear_4_2600)"/>
<path d="M1351.75 291.766C1349.19 291.568 1343.81 289.082 1342.71 287.908C1335.33 280.097 1320.49 266.288 1320.67 255.403C1320.7 253.544 1329.72 251.461 1330.92 249.709C1336.32 247.11 1338.37 246.514 1342.16 241.748C1353.37 227.681 1325.1 203.223 1356.15 193C1378.89 185.511 1398.71 191.97 1394.67 159.481C1390.63 126.993 1416.17 66.487 1455.06 87.7181C1477.38 99.9034 1456.68 128.487 1468.82 148.484C1480.36 167.487 1472.08 183.836 1449.97 196.392C1427.86 208.948 1440.4 217.428 1447.87 235.625C1456.85 257.483 1419.57 262.898 1402.12 264.061C1388.08 264.998 1353 276.012 1351.74 291.765L1351.75 291.766Z" fill="url(#paint1_linear_4_2600)"/>
<g style="mix-blend-mode:soft-light" opacity="0.7">
<path d="M1332.05 272.579L1331.79 272.142C1405.74 235.629 1447.87 163.137 1444.5 78.2237L1445.05 78.2053C1446.64 118.448 1437.63 157.376 1418.97 190.78C1399.36 225.898 1369.3 254.183 1332.05 272.578L1332.05 272.579Z" fill="#FCFDFE"/>
<path d="M1452.75 244.321C1430.6 238.665 1394.06 239.935 1371.3 247.156L1371.11 246.686C1393.97 239.439 1430.65 238.162 1452.9 243.843L1452.75 244.321H1452.75Z" fill="#FCFDFE"/>
<path d="M1346.48 265.259L1346.09 264.904C1355.02 256.901 1359.16 245.098 1358.39 229.821C1357.83 218.621 1354.7 205.848 1349.08 191.858L1349.59 191.687C1355.23 205.724 1358.38 218.546 1358.94 229.797C1359.71 245.219 1355.52 257.15 1346.48 265.258L1346.48 265.259Z" fill="#FCFDFE"/>
<path d="M1421.42 185.946L1421.01 185.61C1436.99 169.737 1461.23 164.699 1478.75 163.267L1478.8 163.762C1461.37 165.186 1437.27 170.191 1421.42 185.946Z" fill="#FCFDFE"/>
<path d="M1439.14 139.386L1438.6 139.372C1439.37 115.132 1423.07 94.444 1413.29 84.2705L1413.7 83.9423C1423.54 94.1709 1439.92 114.976 1439.14 139.386Z" fill="#FCFDFE"/>
</g>
<path d="M1229.79 366.454C1233.34 366.178 1240.8 362.73 1242.34 361.102C1252.56 350.263 1273.16 331.105 1272.91 316.001C1272.86 313.422 1260.35 310.531 1258.69 308.101C1251.2 304.496 1248.36 303.667 1243.09 297.056C1227.53 277.538 1266.77 243.602 1223.69 229.418C1192.13 219.028 1164.63 227.989 1170.23 182.912C1175.84 137.836 1140.4 53.8829 1086.44 83.3422C1055.48 100.249 1084.19 139.91 1067.35 167.654C1051.34 194.02 1062.83 216.704 1093.5 234.125C1124.18 251.546 1106.78 263.313 1096.42 288.56C1083.97 318.888 1135.69 326.402 1159.89 328.016C1179.38 329.316 1228.05 344.597 1229.79 366.455L1229.79 366.454Z" fill="url(#paint2_linear_4_2600)"/>
<path d="M1229.79 366.454C1233.34 366.178 1240.8 362.73 1242.34 361.102C1252.56 350.263 1273.16 331.105 1272.91 316.001C1272.86 313.422 1260.35 310.531 1258.69 308.101C1251.2 304.496 1248.36 303.667 1243.09 297.056C1227.53 277.538 1266.77 243.602 1223.69 229.418C1192.13 219.028 1164.63 227.989 1170.23 182.912C1175.84 137.836 1140.4 53.8829 1086.44 83.3422C1055.48 100.249 1084.19 139.91 1067.35 167.654C1051.34 194.02 1062.83 216.704 1093.5 234.125C1124.18 251.546 1106.78 263.313 1096.42 288.56C1083.97 318.888 1135.69 326.402 1159.89 328.016C1179.38 329.316 1228.05 344.597 1229.79 366.455L1229.79 366.454Z" fill="url(#paint3_linear_4_2600)"/>
<g style="mix-blend-mode:soft-light" opacity="0.7">
<path d="M1257.12 339.833L1257.48 339.227C1154.89 288.565 1096.43 187.982 1101.1 70.1668L1100.34 70.1414C1098.13 125.977 1110.64 179.988 1136.52 226.337C1163.73 275.064 1205.43 314.309 1257.12 339.831L1257.12 339.833Z" fill="#FCFDFE"/>
<path d="M1089.65 300.626C1120.39 292.777 1171.09 294.541 1202.67 304.559L1202.92 303.908C1171.21 293.85 1120.31 292.081 1089.45 299.962L1089.65 300.627V300.626Z" fill="#FCFDFE"/>
<path d="M1237.1 329.678L1237.64 329.185C1225.25 318.081 1219.51 301.704 1220.57 280.508C1221.35 264.967 1225.7 247.246 1233.5 227.835L1232.78 227.599C1224.96 247.076 1220.59 264.867 1219.81 280.477C1218.74 301.877 1224.56 318.429 1237.1 329.678Z" fill="#FCFDFE"/>
<path d="M1133.13 219.63L1133.69 219.164C1111.52 197.139 1077.89 190.149 1053.57 188.163L1053.51 188.85C1077.69 190.825 1111.13 197.769 1133.13 219.63H1133.13Z" fill="#FCFDFE"/>
<path d="M1108.53 155.029L1109.29 155.01C1108.22 121.377 1130.83 92.6728 1144.4 78.5564L1143.83 78.1023C1130.18 92.295 1107.46 121.162 1108.53 155.031L1108.53 155.029Z" fill="#FCFDFE"/>
</g>
<path d="M1303.89 310.599C1315.56 294.069 1306.24 265.469 1294.02 248.472C1279.76 228.629 1267.27 232.567 1257.5 216.35C1239.3 186.153 1275.13 160.118 1259.44 128.342C1246.6 102.366 1217.78 109.908 1205.01 80.5536C1195.79 59.3706 1206.37 45.2613 1191.67 29.2307C1190.41 27.8598 1176.63 13.2582 1159.01 15.1525C1141.22 17.0653 1129.92 34.6662 1125.93 46.959C1118.56 69.6841 1135.05 77.6675 1137.17 107.527C1140.05 148.18 1111.19 157.444 1120.11 186.978C1127.48 211.366 1148.86 210.674 1156.43 237.863C1163.47 263.11 1147.59 272.88 1154.11 289.454C1169.12 327.579 1280.08 344.317 1303.89 310.599Z" fill="url(#paint4_linear_4_2600)"/>
<path d="M1303.89 310.599C1315.56 294.069 1306.24 265.469 1294.02 248.472C1279.76 228.629 1267.27 232.567 1257.5 216.35C1239.3 186.153 1275.13 160.118 1259.44 128.342C1246.6 102.366 1217.78 109.908 1205.01 80.5536C1195.79 59.3706 1206.37 45.2613 1191.67 29.2307C1190.41 27.8598 1176.63 13.2582 1159.01 15.1525C1141.22 17.0653 1129.92 34.6662 1125.93 46.959C1118.56 69.6841 1135.05 77.6675 1137.17 107.527C1140.05 148.18 1111.19 157.444 1120.11 186.978C1127.48 211.366 1148.86 210.674 1156.43 237.863C1163.47 263.11 1147.59 272.88 1154.11 289.454C1169.12 327.579 1280.08 344.317 1303.89 310.599Z" fill="url(#paint5_linear_4_2600)"/>
<g style="mix-blend-mode:soft-light" opacity="0.7">
<path d="M1287.93 336.662C1288.07 336.662 1288.2 336.566 1288.22 336.431C1288.24 336.284 1288.13 336.147 1287.97 336.126C1269.11 333.595 1251.66 327.584 1236.11 318.259C1221.37 309.427 1206.14 300.293 1199.91 284.284C1195.2 272.176 1198.48 263.509 1202.64 252.537C1206.68 241.861 1211.71 228.574 1210.19 207.928C1209.32 196.139 1208.24 181.468 1197.69 167.233C1191.55 158.941 1185.39 155.258 1179.95 152.009C1174.25 148.601 1169.75 145.91 1167.36 139.061C1163.46 127.896 1166.77 118.547 1170.6 107.723C1172.96 101.042 1175.41 94.1327 1176.59 85.8663C1179.91 62.6007 1168.93 37.039 1143.95 9.89279C1143.84 9.7782 1143.66 9.76405 1143.53 9.85884C1143.41 9.95363 1143.39 10.1248 1143.49 10.238C1168.37 37.264 1179.31 62.6856 1176 85.7956C1174.83 94.0139 1172.39 100.898 1170.04 107.556C1166.17 118.468 1162.84 127.893 1166.79 139.222C1169.25 146.252 1174.06 149.128 1179.63 152.457C1185.02 155.679 1191.12 159.33 1197.2 167.533C1207.66 181.649 1208.74 196.24 1209.6 207.964C1211.11 228.501 1206.1 241.731 1202.08 252.361C1197.88 263.433 1194.57 272.179 1199.35 284.465C1205.64 300.645 1220.96 309.828 1235.78 318.71C1251.41 328.079 1268.94 334.118 1287.88 336.661C1287.9 336.662 1287.91 336.663 1287.92 336.663L1287.93 336.662Z" fill="white"/>
</g>
<g style="mix-blend-mode:soft-light" opacity="0.7">
<path d="M1201.89 174.643C1202 174.643 1202.11 174.588 1202.16 174.493C1218.85 143.583 1222.34 119.305 1222.34 104.379C1222.33 88.1861 1218.31 79.1798 1218.27 79.0907C1218.21 78.9535 1218.03 78.8884 1217.88 78.945C1217.73 79.0015 1217.66 79.16 1217.72 79.2972C1217.76 79.3863 1221.74 88.3191 1221.74 104.416C1221.74 119.277 1218.25 143.456 1201.62 174.254C1201.55 174.387 1201.61 174.548 1201.76 174.615C1201.8 174.633 1201.85 174.643 1201.89 174.643H1201.89Z" fill="white"/>
</g>
<g style="mix-blend-mode:soft-light" opacity="0.7">
<path d="M1209.72 224.974C1209.85 224.974 1209.96 224.899 1210 224.785C1210.05 224.643 1209.96 224.492 1209.81 224.448C1190.62 219.038 1174.25 210.919 1161.16 200.318C1150.69 191.839 1142.28 181.761 1136.16 170.363C1125.75 150.959 1125.6 134.249 1125.6 134.084C1125.6 133.935 1125.46 133.815 1125.3 133.815C1125.14 133.815 1125.01 133.936 1125.01 134.085C1125.01 134.253 1125.16 151.086 1135.63 170.601C1141.79 182.062 1150.24 192.196 1160.77 200.721C1173.93 211.374 1190.37 219.53 1209.64 224.963C1209.67 224.971 1209.7 224.975 1209.72 224.975L1209.72 224.974Z" fill="white"/>
</g>
<g style="mix-blend-mode:soft-light" opacity="0.7">
<path d="M1219.57 309.271C1219.63 309.271 1219.7 309.251 1219.75 309.213C1234.76 298.387 1246.73 286.342 1255.33 273.408C1262.21 263.058 1266.96 252.121 1269.45 240.899C1273.69 221.784 1269.83 208.283 1269.79 208.149C1269.75 208.004 1269.58 207.921 1269.43 207.958C1269.27 207.996 1269.18 208.144 1269.22 208.287C1269.26 208.42 1273.09 221.822 1268.86 240.821C1264.97 258.354 1253.22 284.38 1219.38 308.788C1219.25 308.882 1219.23 309.05 1219.33 309.168C1219.39 309.234 1219.48 309.269 1219.56 309.269L1219.57 309.271Z" fill="white"/>
</g>
<g style="mix-blend-mode:soft-light" opacity="0.7">
<path d="M1176 82.0746C1176.11 82.0746 1176.22 82.0181 1176.27 81.9204C1176.34 81.786 1176.28 81.6247 1176.13 81.5611C1162.33 75.6304 1150.99 67.6711 1142.42 57.9036C1135.57 50.0885 1130.46 41.1049 1127.24 31.2002C1121.75 14.3251 1123.69 0.443522 1123.71 0.304879C1123.73 0.157741 1123.61 0.0219212 1123.45 0.0021207C1123.29 -0.0162748 1123.14 0.087008 1123.12 0.234133C1123.1 0.372789 1121.15 14.3491 1126.67 31.3304C1129.91 41.3044 1135.05 50.3545 1141.95 58.2262C1150.58 68.0644 1161.99 76.0789 1175.87 82.0463C1175.91 82.0633 1175.96 82.0718 1176 82.0718L1176 82.0746Z" fill="white"/>
</g>
<path d="M1317.95 234.357C1310.48 223.788 1316.44 205.499 1324.25 194.631C1333.37 181.942 1341.36 184.462 1347.61 174.09C1359.24 154.782 1336.33 138.133 1346.37 117.814C1354.57 101.204 1373 106.026 1381.17 87.2556C1387.07 73.7108 1380.3 64.6889 1389.7 54.4376C1390.51 53.5619 1399.32 44.2246 1410.59 45.4356C1421.96 46.6593 1429.18 57.9137 1431.73 65.774C1436.45 80.3049 1425.91 85.4107 1424.55 104.503C1422.71 130.497 1441.16 136.421 1435.46 155.307C1430.75 170.901 1417.08 170.459 1412.23 187.843C1407.73 203.987 1417.89 210.236 1413.72 220.832C1404.12 245.211 1333.17 255.914 1317.95 234.353V234.357Z" fill="url(#paint6_linear_4_2600)"/>
<path d="M1317.95 234.357C1310.48 223.788 1316.44 205.499 1324.25 194.631C1333.37 181.942 1341.36 184.462 1347.61 174.09C1359.24 154.782 1336.33 138.133 1346.37 117.814C1354.57 101.204 1373 106.026 1381.17 87.2556C1387.07 73.7108 1380.3 64.6889 1389.7 54.4376C1390.51 53.5619 1399.32 44.2246 1410.59 45.4356C1421.96 46.6593 1429.18 57.9137 1431.73 65.774C1436.45 80.3049 1425.91 85.4107 1424.55 104.503C1422.71 130.497 1441.16 136.421 1435.46 155.307C1430.75 170.901 1417.08 170.459 1412.23 187.843C1407.73 203.987 1417.89 210.236 1413.72 220.832C1404.12 245.211 1333.17 255.914 1317.95 234.353V234.357Z" fill="url(#paint7_linear_4_2600)"/>
<g style="mix-blend-mode:soft-light" opacity="0.7">
<path d="M1328.15 251.023C1328.06 251.023 1327.98 250.961 1327.96 250.876C1327.95 250.781 1328.02 250.695 1328.12 250.681C1340.18 249.062 1351.34 245.218 1361.29 239.257C1370.71 233.609 1380.45 227.769 1384.43 217.532C1387.44 209.789 1385.34 204.247 1382.69 197.232C1380.1 190.405 1376.89 181.91 1377.86 168.707C1378.41 161.17 1379.1 151.788 1385.85 142.684C1389.78 137.382 1393.72 135.028 1397.19 132.95C1400.84 130.771 1403.72 129.049 1405.25 124.67C1407.74 117.53 1405.63 111.553 1403.18 104.632C1401.66 100.359 1400.1 95.9425 1399.34 90.657C1397.22 75.7794 1404.24 59.4348 1420.22 42.0772C1420.28 42.0037 1420.4 41.9952 1420.48 42.056C1420.56 42.1169 1420.57 42.2258 1420.51 42.2994C1404.6 59.5806 1397.61 75.836 1399.72 90.6131C1400.47 95.8675 1402.03 100.27 1403.54 104.527C1406.01 111.505 1408.14 117.532 1405.61 124.777C1404.04 129.273 1400.96 131.11 1397.4 133.24C1393.96 135.299 1390.05 137.634 1386.17 142.88C1379.48 151.906 1378.79 161.236 1378.24 168.733C1377.28 181.866 1380.48 190.325 1383.05 197.123C1385.73 204.202 1387.85 209.795 1384.79 217.651C1380.77 227.997 1370.97 233.869 1361.5 239.548C1351.51 245.538 1340.3 249.401 1328.18 251.026C1328.18 251.026 1328.17 251.027 1328.16 251.027L1328.15 251.023Z" fill="white"/>
</g>
<g style="mix-blend-mode:soft-light" opacity="0.7">
<path d="M1383.16 147.422C1383.09 147.422 1383.03 147.387 1382.99 147.326C1372.32 127.562 1370.09 112.036 1370.09 102.493C1370.1 92.138 1372.67 86.38 1372.69 86.322C1372.73 86.2343 1372.84 86.1918 1372.94 86.2286C1373.04 86.2654 1373.08 86.3659 1373.04 86.4535C1373.02 86.5101 1370.47 92.2216 1370.47 102.515C1370.47 112.018 1372.7 127.479 1383.34 147.172C1383.38 147.257 1383.34 147.36 1383.25 147.402C1383.22 147.415 1383.19 147.421 1383.17 147.421L1383.16 147.422Z" fill="white"/>
</g>
<g style="mix-blend-mode:soft-light" opacity="0.7">
<path d="M1378.16 179.607C1378.08 179.607 1378 179.559 1377.98 179.485C1377.95 179.394 1378 179.298 1378.1 179.27C1390.37 175.811 1400.84 170.619 1409.21 163.841C1415.9 158.419 1421.28 151.975 1425.2 144.686C1431.86 132.279 1431.95 121.593 1431.95 121.487C1431.95 121.392 1432.04 121.315 1432.14 121.315C1432.25 121.315 1432.33 121.392 1432.33 121.487C1432.33 121.595 1432.24 132.358 1425.54 144.836C1421.6 152.165 1416.19 158.644 1409.46 164.097C1401.05 170.909 1390.54 176.123 1378.22 179.598C1378.2 179.604 1378.18 179.607 1378.16 179.607H1378.16Z" fill="white"/>
</g>
<g style="mix-blend-mode:soft-light" opacity="0.7">
<path d="M1371.86 233.508C1371.82 233.508 1371.78 233.496 1371.74 233.471C1362.15 226.549 1354.49 218.847 1349 210.577C1344.59 203.958 1341.56 196.964 1339.96 189.788C1337.25 177.565 1339.72 168.932 1339.75 168.847C1339.77 168.755 1339.88 168.701 1339.98 168.725C1340.08 168.75 1340.14 168.844 1340.11 168.936C1340.09 169.021 1337.64 177.592 1340.34 189.74C1342.83 200.952 1350.34 217.592 1371.98 233.201C1372.06 233.261 1372.07 233.368 1372.01 233.443C1371.97 233.486 1371.92 233.508 1371.86 233.508Z" fill="white"/>
</g>
<g style="mix-blend-mode:soft-light" opacity="0.7">
<path d="M1399.72 88.232C1399.65 88.232 1399.58 88.1952 1399.55 88.1329C1399.5 88.0466 1399.54 87.9447 1399.64 87.9037C1408.46 84.1122 1415.71 79.0219 1421.19 72.7758C1425.57 67.7789 1428.84 62.035 1430.9 55.7012C1434.41 44.9109 1433.17 36.0347 1433.16 35.9456C1433.14 35.8508 1433.22 35.7645 1433.32 35.7518C1433.43 35.7404 1433.52 35.8055 1433.53 35.9003C1433.55 35.9894 1434.79 44.9264 1431.27 55.7846C1429.19 62.1624 1425.91 67.9501 1421.49 72.9838C1415.98 79.2752 1408.68 84.3994 1399.8 88.215C1399.77 88.2263 1399.75 88.232 1399.72 88.232H1399.72Z" fill="white"/>
</g>
<path d="M1359.42 44.2498L1167.32 38.3305C1162.93 38.1947 1159.36 41.293 1159.36 45.25V362.921C1159.36 366.878 1162.93 369.901 1167.32 369.674L1359.42 359.729C1363.4 359.524 1366.61 356.316 1366.61 352.562V51.2669C1366.61 47.5136 1363.4 44.3728 1359.42 44.2498Z" fill="#D8DEE8"/>
<g style="mix-blend-mode:multiply" opacity="0.3">
<path d="M1280.6 278.825C1277.34 242.502 1301.85 227.509 1292.5 194.601C1280.95 153.923 1236.51 152.18 1221.38 112.289C1215.58 97.0058 1213.29 73.8987 1229.89 40.2588L1167.32 38.3305C1162.93 38.1947 1159.36 41.293 1159.36 45.25V362.921C1159.36 366.878 1162.93 369.901 1167.32 369.674L1338.61 360.806C1295.03 330.087 1282.61 301.152 1280.6 278.825Z" fill="#D8DEE8"/>
</g>
<path d="M1359.42 48.2608L1167.32 42.5438C1165.52 42.49 1164.05 43.7647 1164.05 45.386V362.686C1164.05 364.308 1165.52 365.551 1167.32 365.461L1359.42 355.717C1361.05 355.635 1362.38 354.314 1362.38 352.773V51.144C1362.38 49.6034 1361.05 48.3103 1359.42 48.2608Z" fill="url(#paint8_linear_4_2600)"/>
<path d="M1323.14 288.468L1206.58 292.292C1203.82 292.383 1201.59 294.485 1201.59 296.988C1201.59 299.491 1203.82 301.441 1206.58 301.344L1323.14 297.255C1325.73 297.165 1327.83 295.126 1327.83 292.702C1327.83 290.279 1325.73 288.383 1323.14 288.468Z" fill="#D8DEE8"/>
<path d="M1323.14 304.12L1206.58 308.416C1203.82 308.518 1201.59 310.629 1201.59 313.132C1201.59 315.635 1203.82 317.576 1206.58 317.468L1323.14 312.905C1325.73 312.803 1327.83 310.758 1327.83 308.334C1327.83 305.911 1325.73 304.024 1323.14 304.12Z" fill="#D8DEE8"/>
<path d="M1323.14 319.77L1206.58 324.539C1203.82 324.652 1201.59 326.771 1201.59 329.274C1201.59 331.777 1203.82 333.709 1206.58 333.591L1323.14 328.555C1325.73 328.444 1327.83 326.388 1327.83 323.966C1327.83 321.542 1325.73 319.664 1323.14 319.77Z" fill="#D8DEE8"/>
<path d="M1262.7 60.9635L1204.06 59.4511C1202.7 59.4158 1201.59 60.392 1201.59 61.6298C1201.59 62.8692 1202.7 63.9005 1204.06 63.9331L1262.7 65.3789C1264.02 65.4115 1265.09 64.4494 1265.09 63.2313C1265.09 62.0118 1264.02 60.996 1262.7 60.9621V60.9635Z" fill="#D8DEE8"/>
<path d="M1262.7 68.8311L1204.06 67.4376C1202.7 67.405 1201.59 68.3826 1201.59 69.6219C1201.59 70.8613 1202.7 71.8898 1204.06 71.9209L1262.7 73.2493C1264.02 73.2791 1265.09 72.3156 1265.09 71.0961C1265.09 69.8766 1264.02 68.8636 1262.7 68.8325V68.8311Z" fill="#D8DEE8"/>
<path d="M1262.7 76.6984L1204.06 75.4223C1202.7 75.3926 1201.59 76.373 1201.59 77.6108C1201.59 78.8502 1202.7 79.8759 1204.06 79.9042L1262.7 81.1138C1264.02 81.1407 1265.09 80.1744 1265.09 78.9563C1265.09 77.7368 1264.02 76.7252 1262.7 76.697V76.6984Z" fill="#D8DEE8"/>
<path d="M1240.1 161.204C1243.91 154.648 1251.04 149.991 1259.38 149.122L1259.97 116.726C1236.17 117.292 1215.67 130.647 1206.49 149.791L1240.1 161.204Z" fill="url(#paint9_linear_4_2600)"/>
<path d="M1286.77 175.938C1284.74 186.701 1274.59 194.962 1262.31 195.065C1258.68 195.096 1255.22 194.41 1252.09 193.151L1233.45 221.057C1242.07 225.225 1251.9 227.501 1262.31 227.328C1293.25 226.812 1318.3 204.774 1321.13 177.12L1286.78 175.939L1286.77 175.938Z" fill="url(#paint10_linear_4_2600)"/>
<path d="M1227.68 217.879L1246.39 189.949C1240.75 185.739 1237.15 179.309 1237.15 172.085C1237.15 170.34 1237.36 168.639 1237.76 167.003L1204.11 155.635C1202.34 160.862 1201.38 166.418 1201.38 172.177C1201.38 191.248 1211.83 207.979 1227.68 217.879Z" fill="url(#paint11_linear_4_2600)"/>
<path d="M1266.05 149.245C1277.27 150.837 1286 159.321 1287.04 169.836L1343.9 171.881C1343.9 171.859 1343.9 171.835 1343.9 171.812C1343.9 131.698 1310.25 98.368 1267.01 95.407L1266.05 149.245H1266.05Z" fill="url(#paint12_linear_4_2600)"/>
<g style="mix-blend-mode:soft-light" opacity="0.35">
<path d="M1281.05 278.813C1277.78 242.493 1302.28 227.503 1292.94 194.597C1281.39 153.923 1236.96 152.18 1221.83 112.294C1216.27 97.6426 1213.94 75.7988 1228.39 44.3602L1167.79 42.5564C1165.99 42.5027 1164.52 43.7774 1164.52 45.3987V362.664C1164.52 364.285 1165.99 365.528 1167.79 365.438L1333.84 357.016C1294.46 327.691 1282.97 300.212 1281.05 278.813Z" fill="white"/>
</g>
<g style="mix-blend-mode:multiply" opacity="0.3">
<path d="M1221.98 126.103L1098.81 124.987C1096.03 124.961 1093.77 122.943 1093.77 120.475V77.8291C1093.77 75.3631 1096.03 73.4122 1098.81 73.4731L1206.04 75.7975C1208.68 75.8541 1210.81 77.8432 1210.81 80.2384V116.892L1221.98 126.102V126.103Z" fill="url(#paint13_linear_4_2600)"/>
</g>
<path opacity="0.67" d="M1193.51 91.2096L1111.94 89.7623V84.6494L1193.51 86.2V91.2096Z" fill="white"/>
<path opacity="0.67" d="M1193.51 101.231L1111.94 99.9884V94.8755L1193.51 96.2209V101.231Z" fill="white"/>
<path opacity="0.67" d="M1193.51 111.251L1111.94 110.213V105.1L1193.51 106.24V111.251Z" fill="white"/>
<g style="mix-blend-mode:multiply" opacity="0.3">
<path d="M1262.92 238.603L1345.98 236.977C1348.15 236.935 1349.9 238.552 1349.9 240.588V275.794C1349.9 277.829 1348.15 279.534 1345.98 279.601L1258.43 282.287C1256.17 282.357 1254.33 280.721 1254.33 278.634V232.614L1262.92 238.604L1262.92 238.603Z" fill="url(#paint14_linear_4_2600)"/>
</g>
<path opacity="0.67" d="M1269.12 268.407L1335.72 266.595V270.851L1269.12 272.736V268.407Z" fill="white"/>
<path opacity="0.67" d="M1269.12 259.751L1335.72 258.084V262.339L1269.12 264.079V259.751Z" fill="white"/>
<path opacity="0.67" d="M1269.12 251.092L1335.72 249.574V253.83L1269.12 255.421V251.092Z" fill="white"/>
<ellipse cx="1151.11" cy="369.563" rx="25.9723" ry="9.65001" fill="#B7C0CE"/>
<path d="M1125.14 368.432C1125.14 373.463 1136.76 377.541 1151.11 377.541C1165.45 377.541 1177.08 373.463 1177.08 368.432C1177.08 363.401 1165.45 355.17 1151.11 355.17C1136.77 355.17 1125.14 363.401 1125.14 368.432Z" fill="#EBEFF2"/>
<g style="mix-blend-mode:multiply" opacity="0.3">
<path d="M1125.14 368.432C1125.14 363.401 1136.76 355.17 1151.11 355.17C1157.73 355.17 1163.77 356.927 1168.36 359.311C1168.68 359.923 1168.83 360.532 1168.77 361.11C1168.47 363.941 1163.4 365.681 1160.49 366.255C1153.16 367.701 1149.58 363.71 1143.54 363.862C1139.8 363.956 1134.62 365.665 1128.48 372.903C1126.36 371.581 1125.14 370.057 1125.14 368.432Z" fill="#EBEFF2"/>
</g>
<path d="M1149.69 361.475C1150.73 361.709 1151.69 361.701 1152.6 361.49C1153.43 361.299 1154 360.603 1154 359.826V326.442H1148.22V359.794C1148.22 360.594 1148.84 361.279 1149.69 361.473L1149.69 361.475Z" fill="#D8DEE8"/>
<path d="M1181.13 316.711L1172.31 311.634C1171.94 309.737 1171.83 242.837 1154.94 236.607C1148.08 234.073 1130.13 237.136 1126.08 237.3C1117.98 237.63 1112.21 237.864 1109.43 241.379C1105.87 245.893 1118.36 294.28 1117.12 307.193C1116.61 312.458 1115.33 314.796 1116.93 318.284C1118.85 322.462 1123.29 324.778 1126.75 326.083C1130.88 328.265 1138.07 331.378 1147.57 332.135C1163.57 333.411 1175.51 327.163 1179.62 324.773C1181.45 324.248 1182.82 322.865 1183.21 321.158C1183.6 319.426 1182.77 317.655 1181.13 316.71L1181.13 316.711Z" fill="url(#paint15_linear_4_2600)"/>
<path d="M1124.3 238.362C1118.31 238.523 1114.59 238.46 1112.53 240.893C1110.37 243.448 1119.07 289.92 1119.47 299.015C1119.84 307.307 1118.24 310.585 1121.18 315.18C1121.18 315.18 1122.67 317.514 1125.04 319.269C1133.38 325.467 1154.91 325.392 1163.97 312.452C1171.2 302.129 1161.67 242.619 1153.18 237.584C1149.02 235.117 1148.06 237.723 1124.3 238.363L1124.3 238.362Z" fill="url(#paint16_linear_4_2600)"/>
<path d="M1181.77 312.151L1172.95 307.074C1172.95 307.074 1149.32 300.002 1127.45 309.974C1125 311.091 1123.48 313.397 1123.48 315.891C1123.48 317.803 1124.74 319.529 1126.68 320.268C1130.5 322.639 1137.94 326.552 1148.21 327.578C1164.53 329.206 1176.67 322.403 1180.26 320.216C1182.09 319.691 1183.46 318.308 1183.85 316.601C1184.24 314.869 1183.42 313.098 1181.77 312.153L1181.77 312.151Z" fill="url(#paint17_linear_4_2600)"/>
<path d="M1220.23 375.185L1212.7 371.064H1209.3C1209.3 371.064 1208.14 374.989 1208.27 375.185C1209.79 377.444 1216.84 379.163 1221.24 379.306C1221.97 379.331 1222.99 379.334 1223.26 378.851C1223.7 378.034 1221.71 376.321 1220.23 375.185Z" fill="url(#paint18_linear_4_2600)"/>
<path d="M1212.57 366.568C1212.55 368.969 1212.67 370.662 1213.33 371.408C1213.79 371.933 1209.32 373.113 1209.3 371.064C1209.28 369.716 1209.05 367.404 1208.81 366.727C1210.07 366.674 1211.32 366.621 1212.57 366.568Z" fill="url(#paint19_linear_4_2600)"/>
<path d="M1192.21 380.979L1184.68 376.858H1181.28C1181.28 376.858 1180.12 380.783 1180.25 380.979C1181.77 383.239 1188.82 384.958 1193.22 385.101C1193.95 385.125 1194.97 385.127 1195.24 384.645C1195.68 383.829 1193.69 382.115 1192.21 380.979Z" fill="url(#paint20_linear_4_2600)"/>
<path d="M1184.55 372.362C1184.54 374.763 1184.65 376.456 1185.31 377.202C1185.77 377.727 1181.31 378.907 1181.28 376.86C1181.27 375.511 1181.03 373.199 1180.8 372.522C1182.05 372.469 1183.3 372.416 1184.55 372.364L1184.55 372.362Z" fill="url(#paint21_linear_4_2600)"/>
<path d="M1212.87 368.562C1215 356.852 1212.92 344.344 1212.44 337.617C1211.66 326.919 1211.28 321.57 1207.88 317.076C1203.42 311.191 1194.31 305.307 1186.61 300.334C1185.95 299.904 1184.61 299.056 1182.95 297.708C1178.8 294.348 1176.17 290.814 1174.58 288.324C1157.15 283.668 1141.07 285.555 1133.97 294.067C1133.15 295.05 1131.1 297.183 1130.7 300.33C1129.81 307.427 1137.47 315.971 1146.06 317.757C1156.99 320.024 1163.33 309.813 1173.01 313.211C1173.97 313.551 1176.82 316.162 1182.6 321.227C1186.8 324.905 1188.89 326.744 1189.56 327.475C1195.75 334.24 1199.43 344.654 1199.88 352.715C1199.96 354.145 1200.03 357.14 1201.92 360.349C1203.37 362.805 1207.35 367.271 1208.81 368.283C1210.17 368.375 1211.52 368.468 1212.87 368.562H1212.87Z" fill="url(#paint22_linear_4_2600)"/>
<path d="M1180.25 374.344C1180.25 374.344 1183.98 375.947 1186.74 374.344C1186.65 370.098 1186.65 363.455 1187.24 355.329C1188.55 337.544 1191.31 332.166 1188.86 324.57C1187.09 319.09 1182.33 311.623 1168.29 304.641L1132.64 301.458C1132.64 301.458 1130.96 303.949 1131.37 307.397C1132.12 313.71 1140.09 317.579 1146.76 320.744C1159.92 326.991 1162.7 324.118 1166.98 328.328C1172.78 334.02 1169.17 340.716 1172.34 354.792C1174.25 363.296 1177.61 369.946 1180.25 374.344V374.344Z" fill="url(#paint23_linear_4_2600)"/>
<path d="M1184.87 291.623C1189.75 291.239 1197.14 270.201 1186.9 256.615C1179.35 246.61 1163.61 242.481 1160.87 245.515C1159.27 247.277 1162.55 250.9 1168.62 261.302C1181.07 282.642 1181.58 291.882 1184.87 291.623H1184.87Z" fill="url(#paint24_linear_4_2600)"/>
<path d="M1130.64 246.497C1135.05 245.211 1141.75 243.704 1149.98 243.615C1159.2 243.516 1166.58 243.437 1171.65 246.974C1183.9 255.519 1170.18 276.609 1177.22 291.912C1177.99 293.584 1180.23 298.888 1178.29 304.721C1177.93 305.796 1177.19 306.741 1175.92 308.341C1168.48 317.757 1147.4 319.173 1137.66 311.433C1132.5 307.326 1127.84 308.237 1127.71 303.376C1127.22 284.183 1130.84 264.967 1130.64 246.496L1130.64 246.497Z" fill="url(#paint25_linear_4_2600)"/>
<g style="mix-blend-mode:multiply" opacity="0.3">
<path d="M1139.93 270.818C1138.16 266.847 1139.99 262.233 1136.04 260.295C1134.59 259.583 1131.03 257.583 1130.81 259.366C1129.37 271.163 1128.08 283.337 1128.5 298.042C1128.64 302.897 1132.68 307.323 1138.39 311.414C1144.99 316.138 1156.3 317.393 1165.94 315.494C1153.3 309.421 1144.23 302.974 1145.53 297.19C1147.04 290.46 1161.81 288.144 1161.22 283.419C1160.59 278.409 1143.8 279.489 1139.93 270.819L1139.93 270.818Z" fill="url(#paint26_linear_4_2600)"/>
</g>
<path d="M1150.85 233.16C1150.87 235.994 1150.49 238.246 1150.13 239.788C1149.72 241.557 1149.42 242.015 1149.04 242.39C1148.46 242.953 1147.59 243.43 1142.67 244.493C1139.98 245.071 1139.64 245.061 1139.58 245.282C1139.29 246.359 1146.61 249.925 1154.13 248.952C1158.72 248.359 1162.89 246.141 1162.64 245.006C1162.38 243.863 1157.8 244.529 1156.44 242.469C1155.48 241.035 1156.55 238.975 1157.81 237.266C1156.59 235.383 1152.07 235.049 1150.85 233.162V233.16Z" fill="url(#paint27_linear_4_2600)"/>
<path d="M1160.49 236.678C1161.89 235.738 1162.59 233.735 1161.78 232.208C1161.09 230.895 1159.51 230.397 1158.56 230.099C1155.81 229.234 1151.91 229.471 1149.98 231.383C1148.83 232.518 1149.59 235.529 1149.69 236.062C1149.81 236.665 1150.26 236.959 1150.61 237.468C1151.09 238.176 1151.84 239.296 1153.05 241.159C1153.32 240.739 1153.69 240.226 1154.2 239.689C1154.39 239.483 1155.16 238.682 1156.14 238.085C1158.09 236.891 1159.15 237.567 1160.49 236.676L1160.49 236.678Z" fill="url(#paint28_linear_4_2600)"/>
<path d="M1151.05 239.39C1151.05 239.39 1152.12 242.322 1155.9 242.884C1159.28 243.386 1161.71 237.291 1160 235.538C1159.43 234.953 1158.07 234.478 1156.83 234.506C1156.1 234.523 1155.79 234.711 1154.6 234.72C1153.49 234.728 1153.23 234.572 1152.85 234.725C1152.37 234.917 1151.88 235.527 1151.96 237.477C1151.49 236.81 1150.79 236.448 1150.18 236.549C1150.09 236.564 1149.82 236.646 1149.62 236.816C1148.93 237.429 1149.43 238.497 1151.05 239.388L1151.05 239.39Z" fill="url(#paint29_linear_4_2600)"/>
<path d="M1152.81 234.325C1152.94 234.458 1152.3 234.854 1152.04 235.55C1151.54 236.904 1152.69 238.89 1154.35 239.38C1155.33 239.668 1155.76 239.223 1157.47 239.419C1158.52 239.541 1159.34 239.825 1159.85 240.033C1159.9 241.638 1158.94 243.031 1157.52 243.478C1155.99 243.959 1154.47 243.166 1153.84 242.835C1153.41 242.612 1152.05 241.904 1151.63 240.609C1151.19 239.261 1152.2 238.712 1151.53 237.722C1151.18 237.222 1150.62 236.92 1150.27 236.016C1150.17 235.769 1150.12 235.56 1150.09 235.42C1151.19 234.841 1152.62 234.134 1152.81 234.326L1152.81 234.325Z" fill="url(#paint30_linear_4_2600)"/>
<path d="M1158.47 240.34C1158.47 240.34 1157.65 240.504 1156.43 240.19C1156.37 240.174 1156.3 240.176 1156.28 240.2C1156.22 240.292 1156.88 240.894 1157.67 240.874C1158.23 240.861 1158.76 240.534 1158.72 240.415C1158.71 240.365 1158.59 240.347 1158.47 240.34Z" fill="url(#paint31_linear_4_2600)"/>
<path d="M1248.23 376.006C1248.21 376.006 1248.2 376.006 1248.18 376.005C1247.87 375.982 1247.63 375.744 1247.63 375.459V287.553C1247.63 287.25 1247.9 287.005 1248.23 287.005C1248.56 287.005 1248.83 287.25 1248.83 287.553V368.348L1262.27 289.374C1262.32 289.075 1262.63 288.87 1262.96 288.917C1263.28 288.963 1263.51 289.244 1263.46 289.542L1248.83 375.544C1248.78 375.812 1248.53 376.007 1248.23 376.007L1248.23 376.006Z" fill="#B7C0CE"/>
<path opacity="0.81" d="M1085.05 298.622L1245.59 287.368L1324.44 293.706L1211.63 308.714L1085.05 298.622Z" fill="#F4F7FA"/>
<path d="M1211.63 308.713L1085.05 298.62V303.495L1211.63 313.587L1324.44 298.579V293.705L1211.63 308.713Z" fill="#B7C0CE"/>
<path d="M1210.54 406C1210.24 406 1209.98 405.799 1209.94 405.526L1196.03 311.996C1195.98 311.696 1196.21 311.42 1196.54 311.38C1196.87 311.339 1197.17 311.55 1197.22 311.848L1209.94 397.332V311.922C1209.94 311.619 1210.21 311.375 1210.54 311.375C1210.87 311.375 1211.14 311.619 1211.14 311.922V405.453C1211.14 405.741 1210.89 405.979 1210.58 405.999C1210.56 405.999 1210.55 405.999 1210.54 405.999L1210.54 406Z" fill="#B7C0CE"/>
<path d="M1322.68 386.177C1322.38 386.177 1322.12 385.976 1322.08 385.703L1309.18 299.777C1309.14 299.477 1309.37 299.201 1309.7 299.16C1310.03 299.117 1310.33 299.328 1310.38 299.628L1322.08 377.578V296.301C1322.08 295.998 1322.35 295.753 1322.68 295.753C1323.01 295.753 1323.28 295.998 1323.28 296.301V385.628C1323.28 385.916 1323.03 386.154 1322.72 386.174C1322.7 386.174 1322.69 386.176 1322.68 386.176L1322.68 386.177Z" fill="#B7C0CE"/>
<path d="M1086.57 388.808C1086.55 388.808 1086.54 388.808 1086.52 388.807C1086.21 388.786 1085.96 388.548 1085.96 388.261V303.496C1085.96 303.193 1086.23 302.948 1086.57 302.948C1086.9 302.948 1087.17 303.193 1087.17 303.496V380.777L1099.67 303.416C1099.71 303.118 1100.02 302.908 1100.35 302.956C1100.68 302.999 1100.9 303.278 1100.86 303.577L1087.16 388.341C1087.12 388.612 1086.86 388.81 1086.57 388.81L1086.57 388.808Z" fill="#B7C0CE"/>
<path d="M1143.78 296.963C1144.77 295.952 1145.76 294.942 1146.76 293.932C1139.02 284.691 1132.88 280.687 1128.53 278.777C1125.55 277.47 1125.67 276.624 1125.55 276.304C1124.81 274.382 1132.92 265.943 1135.04 263.383C1138.94 258.672 1142.63 250.634 1139.76 247.407C1136.77 244.047 1127.25 246.552 1122.21 248.78C1117.75 250.753 1114.8 253.377 1113.27 254.946C1108.52 259.808 1099.39 272.896 1105.22 284.687C1110.65 295.64 1127.27 302.003 1143.78 296.963Z" fill="url(#paint32_linear_4_2600)"/>
<path d="M1165.6 296.879V295.629L1224.74 292.729V293.968L1182.95 297.71L1165.6 296.879Z" fill="url(#paint33_linear_4_2600)"/>
<path d="M1165.6 295.629L1183.95 295.842L1224.74 292.728L1213.33 292.092L1165.6 295.629Z" fill="url(#paint34_linear_4_2600)"/>
<path d="M1173.44 291.316L1190.08 243.949C1190.34 243.202 1191.27 242.662 1192.33 242.643L1265.15 241.427C1265.77 241.417 1266.85 241.828 1267.22 242.185C1267.6 242.541 1268.11 242.606 1267.97 243.068L1254.4 284.751C1254.17 285.445 1253.36 285.981 1252.42 286.061L1174.78 292.537L1173.44 291.315L1173.44 291.316Z" fill="url(#paint35_linear_4_2600)"/>
<path d="M1174.78 292.539L1191.64 244.85C1191.9 244.105 1192.84 243.566 1193.89 243.547L1266.56 242.288C1267.17 242.277 1267.75 242.478 1268.13 242.834C1268.51 243.191 1268.64 243.664 1268.5 244.125L1255.81 285.523C1255.59 286.236 1254.75 286.788 1253.79 286.857L1174.78 292.537L1174.78 292.539Z" fill="url(#paint36_linear_4_2600)"/>
<g style="mix-blend-mode:multiply" opacity="0.3">
<path d="M1174.78 292.539L1253.79 286.858C1254.75 286.789 1255.59 286.237 1255.81 285.524L1259.64 273.026C1235.56 280.69 1206.95 279.85 1178.58 281.794L1174.78 292.539Z" fill="url(#paint37_linear_4_2600)"/>
</g>
<path d="M1221.22 300.517L1218.22 301.459C1218.22 301.459 1202.46 298.765 1201.78 298.325C1201.67 298.256 1201.29 297.588 1201.99 297.478C1205.71 296.896 1219.29 296.467 1219.29 296.467L1220.53 296.531L1221.22 300.518V300.517Z" fill="url(#paint38_linear_4_2600)"/>
<path d="M1221.43 299.679L1218.44 300.62C1218.44 300.62 1202.68 297.919 1202 297.479C1201.31 297.039 1219.51 295.631 1219.51 295.631L1220.75 295.699L1221.43 299.682V299.679Z" fill="url(#paint39_linear_4_2600)"/>
<path d="M1234.46 266.734C1234.46 266.734 1242.11 296.68 1242.33 298.433C1242.54 300.05 1223.74 301.636 1219.24 301.776C1218.87 301.787 1218.37 301.552 1218.22 301.457C1216.98 301.327 1222.81 267.164 1222.81 267.164L1223.24 267.178L1234.46 266.732L1234.46 266.734Z" fill="url(#paint40_linear_4_2600)"/>
<path d="M1234.46 266.734C1234.46 266.734 1243.16 296.984 1243.38 298.735C1243.61 300.485 1221.26 301.822 1219.3 301.763C1218.06 301.633 1223.23 267.179 1223.23 267.179L1234.46 266.734Z" fill="url(#paint41_linear_4_2600)"/>
<path d="M1146.76 295.629C1146.76 295.629 1151.72 293.562 1154.58 293.747C1157.44 293.931 1161.48 296.305 1162.18 297.71C1162.88 299.116 1152.48 298.962 1152.48 298.962C1152.48 298.962 1140.1 298.522 1146.76 295.629Z" fill="url(#paint42_linear_4_2600)"/>
<path d="M1144.18 293.214C1146.95 290.009 1153.55 291.967 1153.93 292.083C1155.5 292.571 1157.62 293.562 1157.47 294.194C1157.33 294.807 1155.2 294.487 1151.69 295.028C1146.56 295.817 1144.28 297.55 1143.37 296.668C1142.68 295.994 1143.28 294.266 1144.19 293.215L1144.18 293.214Z" fill="url(#paint43_linear_4_2600)"/>
<path d="M1395.66 371.815C1396.68 373.302 1396.52 374 1396.35 374.315C1395.83 375.243 1394.25 374.564 1390.43 375.349C1389.98 375.441 1389.13 375.631 1388.02 375.502C1387.07 375.392 1385.92 375.047 1385.94 374.816C1385.95 374.732 1386.11 374.683 1386.17 374.666C1387.22 374.355 1393.73 371.835 1393.73 371.835L1395.66 371.815Z" fill="url(#paint44_linear_4_2600)"/>
<path d="M1395.78 368.32L1395.58 371.882C1395.58 371.882 1394.05 373.103 1393.47 371.854C1393.05 370.954 1392.77 368.448 1392.77 368.448L1395.78 368.32Z" fill="url(#paint45_linear_4_2600)"/>
<path d="M1376.45 371.913L1378.54 375.794L1380.86 375.226L1379.88 371.542L1376.45 371.913Z" fill="url(#paint46_linear_4_2600)"/>
<path d="M1379.53 377.945C1380.53 376.603 1381.56 376.618 1381.67 375.751C1381.76 375.069 1381.21 374.295 1380.5 374.05C1379.5 373.704 1378.43 374.495 1378.19 374.674C1376.54 375.887 1377.21 377.476 1375.62 378.342C1375.31 378.516 1374.79 378.718 1374.29 379.249C1374.07 379.474 1373.54 380.032 1373.72 380.365C1373.92 380.75 1374.97 380.636 1375.97 380.528C1377.17 380.397 1377.76 380.334 1378.3 379.952C1379.05 379.423 1378.76 378.981 1379.53 377.944V377.945Z" fill="url(#paint47_linear_4_2600)"/>
<path d="M1398.78 283.292C1399.27 291.484 1398.79 298.565 1397.98 304.377C1397.12 310.629 1396.38 311.753 1396.32 316.034C1396.2 325.352 1399.59 326.428 1401.14 336.832C1402.86 348.32 1400.32 357.745 1399.31 361.344C1398.43 364.49 1397.45 367.052 1396.69 368.836C1395.61 369.846 1393.8 369.625 1391.9 369.42C1390.26 359.006 1388.5 349.222 1386.85 338.809C1383.19 323.233 1379.54 307.658 1375.88 292.081C1383.51 289.151 1391.14 286.221 1398.78 283.292Z" fill="url(#paint48_linear_4_2600)"/>
<g style="mix-blend-mode:multiply" opacity="0.3">
<path d="M1391.9 369.42C1390.26 359.006 1388.5 349.222 1386.86 338.809C1383.2 323.233 1379.54 307.658 1375.88 292.081C1383.51 289.151 1391.14 286.221 1398.78 283.292C1398.81 283.835 1398.83 284.358 1398.85 284.892C1388.64 294.424 1387.11 301.48 1387.65 306.174C1388.3 311.867 1391.98 314.434 1392.06 322.753C1392.12 328.701 1390.27 329.89 1390.75 335.224C1391.38 342.094 1394.97 345.711 1396.91 349.563C1398.78 353.285 1399.82 358.678 1397.58 366.629C1397.26 367.456 1396.96 368.198 1396.69 368.836C1395.62 369.846 1393.81 369.626 1391.9 369.42L1391.9 369.42Z" fill="url(#paint49_linear_4_2600)"/>
</g>
<path d="M1385.6 292.213C1380.64 301.515 1378.07 308.735 1376.73 313.176C1375.9 315.885 1375.19 318.696 1375.3 322.304C1375.42 326.723 1376.71 330.265 1377.76 332.518C1379.24 335.391 1380.65 338.767 1381.69 342.622C1385.08 355.124 1382.78 365.974 1380.79 372.264C1379.43 372.839 1378.08 373.414 1376.73 373.99C1372.84 366.185 1367.93 355.068 1363.87 341.207C1361.66 333.637 1359.95 327.698 1359.24 320.043C1358.49 311.969 1358.59 299.102 1364.46 283.295C1371.51 286.267 1378.55 289.241 1385.6 292.213Z" fill="url(#paint50_linear_4_2600)"/>
<path d="M1376.01 222.562C1367.27 224.618 1360.66 226.57 1358.03 231.025C1355.25 235.731 1360.62 238.71 1362.88 248.404C1366.36 263.245 1357.39 269.561 1361.49 284.459C1362.88 289.478 1365.14 293.27 1366.66 295.511C1369.72 297.422 1374.54 299.981 1380.89 301.483C1390.14 303.667 1394.43 301.668 1406.58 301.385C1426.46 300.921 1429.9 305.922 1438.55 302.034C1447.29 298.105 1453.03 288.839 1450.77 285.236C1449.42 283.077 1445.92 284.752 1440.48 282.388C1433.47 279.34 1434.15 274.407 1428.34 270.658C1420 265.272 1413.05 271.872 1405.91 267.181C1398.68 262.434 1396.71 249.717 1398.89 241.893C1400.31 236.783 1399.85 231.377 1400.78 226.174C1400.86 225.741 1400.89 225.059 1400.53 224.315C1399.15 221.469 1393.21 221.35 1388.72 221.299C1381.88 221.221 1376.74 222.397 1376.02 222.565L1376.01 222.562Z" fill="url(#paint51_linear_4_2600)"/>
<g style="mix-blend-mode:multiply" opacity="0.3">
<path d="M1436.99 296.424C1434.1 294.968 1435.16 290.145 1430.87 287.951C1426.89 285.913 1424.23 289.172 1418.54 288.041C1411.24 286.591 1411.05 280.325 1404.04 278.848C1399.01 277.787 1397.79 280.748 1390.72 281.406C1383.67 282.062 1374.17 280.107 1367.69 273.734C1364.93 271.026 1363.26 268.041 1362.24 265.241C1360.86 270.938 1359.29 276.463 1361.49 284.459C1362.88 289.479 1365.14 293.27 1366.66 295.511C1369.72 297.422 1374.54 299.982 1380.89 301.483C1390.15 303.667 1394.43 301.668 1406.58 301.385C1426.46 300.921 1429.9 305.922 1438.55 302.034C1444.13 299.523 1448.48 294.836 1450.31 290.837C1442.96 296.605 1439.09 297.48 1436.99 296.425V296.424Z" fill="url(#paint52_linear_4_2600)"/>
</g>
<path d="M1369.62 208.979C1369.62 208.979 1367.56 213.339 1367.67 216.281C1367.78 219.222 1371.4 218.735 1371.4 218.735L1371.43 220.594C1371.46 222.182 1370.46 223.633 1368.88 224.302L1367.48 224.891C1367.48 224.891 1377.01 226.008 1381.81 222.337L1380.33 222.317C1378.23 222.289 1376.44 220.915 1376.06 219.035L1375.9 218.251C1375.9 218.251 1376.69 208.996 1369.62 208.981V208.979Z" fill="url(#paint53_linear_4_2600)"/>
<path d="M1360.08 256.573L1345.85 234.218C1345.67 233.942 1345.32 233.804 1344.98 233.876L1325.06 238.113C1324.53 238.226 1324.28 238.782 1324.56 239.204L1341.08 263.249C1341.28 263.539 1341.68 263.662 1342.03 263.546L1359.54 257.791L1360.08 256.571V256.573Z" fill="url(#paint54_linear_4_2600)"/>
<path d="M1356.58 254.036L1345.05 235.936C1344.91 235.712 1344.62 235.6 1344.35 235.658L1328.22 239.089C1327.79 239.181 1327.59 239.631 1327.82 239.972L1341.2 259.442C1341.36 259.676 1341.68 259.777 1341.96 259.682L1356.14 255.022L1356.58 254.035V254.036Z" fill="url(#paint55_linear_4_2600)"/>
<path d="M1341.65 236.144L1340.74 234.692C1340.61 234.49 1340.35 234.388 1340.1 234.439L1331.81 236.137C1331.42 236.216 1331.23 236.613 1331.43 236.923L1332.45 238.502C1332.58 238.704 1332.84 238.805 1333.09 238.75L1341.29 236.925C1341.66 236.841 1341.84 236.452 1341.65 236.145L1341.65 236.144Z" fill="url(#paint56_linear_4_2600)"/>
<path d="M1330.79 242.367C1330.8 242.366 1330.81 242.363 1330.82 242.36L1345.43 239.222C1345.61 239.184 1345.72 239.019 1345.68 238.855C1345.64 238.689 1345.45 238.59 1345.27 238.627L1330.67 241.765C1330.49 241.803 1330.38 241.969 1330.42 242.133C1330.46 242.287 1330.62 242.384 1330.79 242.366L1330.79 242.367Z" fill="white"/>
<path d="M1331.7 243.656C1331.71 243.655 1331.73 243.652 1331.74 243.649L1346.26 240.388C1346.44 240.348 1346.55 240.181 1346.5 240.017C1346.46 239.853 1346.28 239.754 1346.1 239.794L1331.58 243.055C1331.4 243.094 1331.29 243.261 1331.34 243.426C1331.38 243.577 1331.53 243.673 1331.7 243.656Z" fill="white"/>
<path d="M1339.36 245.091C1339.38 245.089 1339.39 245.086 1339.41 245.082L1347.3 243.1C1347.48 243.055 1347.58 242.887 1347.53 242.724C1347.49 242.561 1347.3 242.465 1347.12 242.51L1339.23 244.492C1339.05 244.538 1338.94 244.706 1338.99 244.868C1339.04 245.016 1339.2 245.108 1339.36 245.091Z" fill="white"/>
<path d="M1337.04 257.365C1337.04 257.365 1333.52 255.642 1332.97 254.242C1332.42 252.843 1332.21 250.133 1332.21 250.133L1334.56 253.756C1334.56 253.756 1335.46 253.426 1335.71 252.134C1335.97 250.843 1336.78 251.926 1336.61 252.9C1336.45 253.873 1337.04 257.365 1337.04 257.365H1337.04Z" fill="url(#paint57_linear_4_2600)"/>
<path d="M1359.44 229.459C1357.81 230.588 1355.39 232.528 1353.38 235.476C1347.69 243.866 1351.21 251.89 1346.09 255.333C1344.63 256.318 1341.97 257.258 1336.85 256.139L1335.06 257.235C1335.06 257.235 1333.98 268.16 1348.31 267.2C1362.63 266.243 1367.89 249.406 1367.89 249.406L1359.44 229.458V229.459Z" fill="url(#paint58_linear_4_2600)"/>
<path d="M1371.46 213.021C1371.94 212.948 1372.29 212.36 1372.64 212.5C1373 212.648 1373.04 213.464 1372.79 214.058C1372.58 214.545 1372.2 214.84 1371.99 214.981C1372.4 215.423 1372.95 216.118 1373.23 217.06C1373.86 219.144 1372.78 220.939 1372.36 221.975C1370.45 226.641 1374.7 233.468 1378.98 236.756C1382.46 239.429 1383.86 238.143 1385.99 240.38C1390.15 244.73 1385.46 250.212 1387.96 256.303C1391.76 265.562 1408.46 267.142 1409.15 267.2C1409.43 267.223 1409.61 267.237 1409.89 267.256C1417.37 267.766 1428.7 268.539 1436.07 262.433C1441.59 257.864 1443.64 250.481 1442.61 244.192C1442.34 242.538 1441.22 236.267 1435.1 231.54C1434.12 230.79 1428.37 226.359 1421.19 226.842C1417.39 227.098 1416.73 228.374 1413.76 227.841C1409.68 227.109 1406.93 223.999 1405.22 222.071C1402.09 218.523 1403.15 217.635 1400.97 215.938C1396.69 212.614 1392.33 215.808 1387.82 212.929C1383.38 210.092 1385.5 205.629 1381.24 203.204C1376.85 200.704 1369.03 202.283 1367.65 205.759C1366.46 208.746 1369.99 213.246 1371.46 213.023L1371.46 213.021Z" fill="url(#paint59_linear_4_2600)"/>
<path d="M1311.88 396.734C1311.76 397.703 1311.24 398.486 1310.56 398.729C1308.86 399.339 1306.65 399.569 1304.08 399.572C1301.46 399.575 1299.22 399.333 1297.51 398.713C1296.85 398.476 1296.34 397.732 1296.2 396.798L1291.63 366.484H1315.72L1311.88 396.733L1311.88 396.734Z" fill="url(#paint60_linear_4_2600)"/>
<ellipse cx="1303.67" cy="366.485" rx="12.0459" ry="1.68638" fill="url(#paint61_linear_4_2600)"/>
<path d="M1304.67 366.369H1307.3C1325.36 354.665 1328.66 346.295 1327.9 340.618C1327.23 335.598 1323.55 333.809 1318.07 321.347C1314.8 313.919 1313.16 310.203 1313.29 306.17C1313.57 297.353 1319.7 296.203 1323.03 284.681C1324.36 280.089 1326.56 272.48 1322.66 265.069C1318.47 257.118 1309.25 251.609 1306.93 253.132C1305.4 254.142 1306.91 258.258 1308.42 262.339C1312.4 273.151 1317.54 275.631 1318.06 281.952C1318.39 285.857 1316.64 287.457 1312.73 294.913C1304.81 310.011 1300.53 318.171 1302.24 326.122C1304.57 336.996 1316.1 338.143 1316.85 347.611C1317.45 355.311 1310.41 362.038 1304.67 366.37V366.369Z" fill="url(#paint62_linear_4_2600)"/>
<path d="M1291.74 249.89C1289.24 249.587 1283.77 259.269 1283.88 269.672C1283.97 279.778 1289.23 281.255 1290.81 291.671C1292.81 304.902 1284.88 306.193 1286.12 319.129C1287.26 330.963 1294.18 332.917 1298.11 349.144C1299.84 356.296 1300.08 362.413 1299.98 366.538H1302.61C1307.96 356.42 1309.31 348.014 1309.54 342.151C1310.11 327.172 1303.54 323.546 1305.79 308.896C1307.29 299.16 1310.81 296.729 1309.35 288.602C1308.45 283.59 1306.18 279.313 1302.42 272.23C1298.83 265.466 1297.11 264.007 1294.93 258.075C1292.89 252.553 1292.98 250.039 1291.74 249.89H1291.74Z" fill="url(#paint63_linear_4_2600)"/>
<path d="M1297.18 366.198C1297.5 362.548 1297.32 357.362 1294.37 352.384C1289.4 344.004 1281.81 345.044 1275.63 337.547C1269.14 329.662 1268.09 317.06 1272.26 308.044C1276.27 299.377 1283.47 297.455 1283.5 289.626C1283.53 283.295 1278.73 278.733 1279.38 278.37C1280.05 277.995 1285.48 282.627 1287.65 289.453C1288.5 292.121 1288.85 295.12 1287.65 303.268C1285.84 315.568 1283.8 317.169 1283.88 321.687C1284.04 331.191 1294.32 332.358 1299.61 343.004C1302.02 347.833 1303.95 355.315 1301.11 366.539C1299.8 366.425 1298.49 366.311 1297.18 366.198H1297.18Z" fill="url(#paint64_linear_4_2600)"/>
<defs>
<linearGradient id="paint0_linear_4_2600" x1="1246.15" y1="459.607" x2="1175.98" y2="459.607" gradientUnits="userSpaceOnUse">
<stop stop-color="#FFC444"/>
<stop offset="1" stop-color="#F36F56"/>
</linearGradient>
<linearGradient id="paint1_linear_4_2600" x1="1462.89" y1="264.156" x2="1501.17" y2="264.156" gradientUnits="userSpaceOnUse">
<stop stop-color="#FFC444"/>
<stop offset="1" stop-color="#F36F56"/>
</linearGradient>
<linearGradient id="paint2_linear_4_2600" x1="980.427" y1="448.404" x2="883.068" y2="448.404" gradientUnits="userSpaceOnUse">
<stop stop-color="#FFC444"/>
<stop offset="1" stop-color="#F36F56"/>
</linearGradient>
<linearGradient id="paint3_linear_4_2600" x1="1143.04" y1="328.145" x2="1196.15" y2="328.145" gradientUnits="userSpaceOnUse">
<stop stop-color="#FFC444"/>
<stop offset="1" stop-color="#F36F56"/>
</linearGradient>
<linearGradient id="paint4_linear_4_2600" x1="482.397" y1="208.839" x2="432.804" y2="208.839" gradientUnits="userSpaceOnUse">
<stop stop-color="#FF9085"/>
<stop offset="1" stop-color="#FB6FBB"/>
</linearGradient>
<linearGradient id="paint5_linear_4_2600" x1="1309.24" y1="171.88" x2="1118.39" y2="171.88" gradientUnits="userSpaceOnUse">
<stop stop-color="#AA80F9"/>
<stop offset="1" stop-color="#6165D7"/>
</linearGradient>
<linearGradient id="paint6_linear_4_2600" x1="193.247" y1="158.41" x2="161.537" y2="158.41" gradientUnits="userSpaceOnUse">
<stop stop-color="#FF9085"/>
<stop offset="1" stop-color="#FB6FBB"/>
</linearGradient>
<linearGradient id="paint7_linear_4_2600" x1="1562.64" y1="145.656" x2="1440.61" y2="145.656" gradientUnits="userSpaceOnUse">
<stop stop-color="#FF9085"/>
<stop offset="1" stop-color="#FB6FBB"/>
</linearGradient>
<linearGradient id="paint8_linear_4_2600" x1="1216.22" y1="269.095" x2="1358.02" y2="269.095" gradientUnits="userSpaceOnUse">
<stop stop-color="white"/>
<stop offset="1" stop-color="#EBEFF2"/>
</linearGradient>
<linearGradient id="paint9_linear_4_2600" x1="1243.29" y1="216.009" x2="1230.6" y2="216.009" gradientUnits="userSpaceOnUse">
<stop stop-color="#FFC444"/>
<stop offset="1" stop-color="#F36F56"/>
</linearGradient>
<linearGradient id="paint10_linear_4_2600" x1="1325.71" y1="288.126" x2="1274.93" y2="288.126" gradientUnits="userSpaceOnUse">
<stop stop-color="#E38DDD"/>
<stop offset="1" stop-color="#9571F6"/>
</linearGradient>
<linearGradient id="paint11_linear_4_2600" x1="1268.84" y1="236.823" x2="1200.83" y2="236.823" gradientUnits="userSpaceOnUse">
<stop stop-color="#AA80F9"/>
<stop offset="1" stop-color="#6165D7"/>
</linearGradient>
<linearGradient id="paint12_linear_4_2600" x1="1287.56" y1="156.359" x2="1341.9" y2="156.359" gradientUnits="userSpaceOnUse">
<stop stop-color="#FF9085"/>
<stop offset="1" stop-color="#FB6FBB"/>
</linearGradient>
<linearGradient id="paint13_linear_4_2600" x1="1136.58" y1="128.305" x2="1224.66" y2="128.305" gradientUnits="userSpaceOnUse">
<stop stop-color="#FF9085"/>
<stop offset="1" stop-color="#FB6FBB"/>
</linearGradient>
<linearGradient id="paint14_linear_4_2600" x1="-255.96" y1="-383.785" x2="-180.208" y2="-383.785" gradientUnits="userSpaceOnUse">
<stop stop-color="#FF9085"/>
<stop offset="1" stop-color="#FB6FBB"/>
</linearGradient>
<linearGradient id="paint15_linear_4_2600" x1="892.033" y1="310.803" x2="911.084" y2="310.803" gradientUnits="userSpaceOnUse">
<stop stop-color="#E38DDD"/>
<stop offset="1" stop-color="#9571F6"/>
</linearGradient>
<linearGradient id="paint16_linear_4_2600" x1="895.178" y1="229.983" x2="868.43" y2="229.983" gradientUnits="userSpaceOnUse">
<stop stop-color="#E38DDD"/>
<stop offset="1" stop-color="#9571F6"/>
</linearGradient>
<linearGradient id="paint17_linear_4_2600" x1="859.883" y1="330.45" x2="860.091" y2="330.45" gradientUnits="userSpaceOnUse">
<stop stop-color="#E38DDD"/>
<stop offset="1" stop-color="#9571F6"/>
</linearGradient>
<linearGradient id="paint18_linear_4_2600" x1="805.524" y1="375.19" x2="790.466" y2="375.19" gradientUnits="userSpaceOnUse">
<stop stop-color="#311944"/>
<stop offset="1" stop-color="#6B3976"/>
</linearGradient>
<linearGradient id="paint19_linear_4_2600" x1="813.298" y1="340.379" x2="800.837" y2="340.379" gradientUnits="userSpaceOnUse">
<stop stop-color="#FFC444"/>
<stop offset="1" stop-color="#F36F56"/>
</linearGradient>
<linearGradient id="paint20_linear_4_2600" x1="833.539" y1="380.984" x2="818.483" y2="380.984" gradientUnits="userSpaceOnUse">
<stop stop-color="#311944"/>
<stop offset="1" stop-color="#6B3976"/>
</linearGradient>
<linearGradient id="paint21_linear_4_2600" x1="841.316" y1="346.172" x2="828.855" y2="346.172" gradientUnits="userSpaceOnUse">
<stop stop-color="#FFC444"/>
<stop offset="1" stop-color="#F36F56"/>
</linearGradient>
<linearGradient id="paint22_linear_4_2600" x1="1202.48" y1="328.844" x2="1149.96" y2="328.844" gradientUnits="userSpaceOnUse">
<stop stop-color="#26264F"/>
<stop offset="1" stop-color="#444B8C"/>
</linearGradient>
<linearGradient id="paint23_linear_4_2600" x1="1180.09" y1="340.263" x2="1143.14" y2="340.263" gradientUnits="userSpaceOnUse">
<stop stop-color="#26264F"/>
<stop offset="1" stop-color="#444B8C"/>
</linearGradient>
<linearGradient id="paint24_linear_4_2600" x1="1198.26" y1="312.296" x2="1178.88" y2="312.296" gradientUnits="userSpaceOnUse">
<stop stop-color="#311944"/>
<stop offset="1" stop-color="#893976"/>
</linearGradient>
<linearGradient id="paint25_linear_4_2600" x1="1148.81" y1="290.393" x2="1169.51" y2="290.393" gradientUnits="userSpaceOnUse">
<stop stop-color="#311944"/>
<stop offset="1" stop-color="#893976"/>
</linearGradient>
<linearGradient id="paint26_linear_4_2600" x1="1163.02" y1="270.427" x2="1138.08" y2="270.427" gradientUnits="userSpaceOnUse">
<stop stop-color="#311944"/>
<stop offset="1" stop-color="#893976"/>
</linearGradient>
<linearGradient id="paint27_linear_4_2600" x1="1223.76" y1="190.751" x2="1222.57" y2="190.751" gradientUnits="userSpaceOnUse">
<stop stop-color="#FFC444"/>
<stop offset="1" stop-color="#F36F56"/>
</linearGradient>
<linearGradient id="paint28_linear_4_2600" x1="1134.04" y1="211.434" x2="1142.22" y2="211.434" gradientUnits="userSpaceOnUse">
<stop stop-color="#311944"/>
<stop offset="1" stop-color="#6B3976"/>
</linearGradient>
<linearGradient id="paint29_linear_4_2600" x1="1058.82" y1="240.786" x2="1059.19" y2="240.786" gradientUnits="userSpaceOnUse">
<stop stop-color="#FFC444"/>
<stop offset="1" stop-color="#F36F56"/>
</linearGradient>
<linearGradient id="paint30_linear_4_2600" x1="1131.83" y1="212.638" x2="1139.72" y2="212.638" gradientUnits="userSpaceOnUse">
<stop stop-color="#311944"/>
<stop offset="1" stop-color="#6B3976"/>
</linearGradient>
<linearGradient id="paint31_linear_4_2600" x1="1132.13" y1="223.202" x2="1131.69" y2="223.202" gradientUnits="userSpaceOnUse">
<stop stop-color="#FFC444"/>
<stop offset="1" stop-color="#F36F56"/>
</linearGradient>
<linearGradient id="paint32_linear_4_2600" x1="1125.13" y1="282.887" x2="1145.83" y2="282.887" gradientUnits="userSpaceOnUse">
<stop stop-color="#311944"/>
<stop offset="1" stop-color="#893976"/>
</linearGradient>
<linearGradient id="paint33_linear_4_2600" x1="1193.61" y1="301.278" x2="1192.47" y2="301.278" gradientUnits="userSpaceOnUse">
<stop stop-color="#26264F"/>
<stop offset="1" stop-color="#444B8C"/>
</linearGradient>
<linearGradient id="paint34_linear_4_2600" x1="1224.74" y1="293.968" x2="1165.6" y2="293.968" gradientUnits="userSpaceOnUse">
<stop stop-color="#26264F"/>
<stop offset="1" stop-color="#444B8C"/>
</linearGradient>
<linearGradient id="paint35_linear_4_2600" x1="1217.88" y1="260.927" x2="1223.83" y2="260.927" gradientUnits="userSpaceOnUse">
<stop stop-color="#26264F"/>
<stop offset="1" stop-color="#444B8C"/>
</linearGradient>
<linearGradient id="paint36_linear_4_2600" x1="1268.56" y1="267.413" x2="1174.78" y2="267.413" gradientUnits="userSpaceOnUse">
<stop stop-color="#26264F"/>
<stop offset="1" stop-color="#444B8C"/>
</linearGradient>
<linearGradient id="paint37_linear_4_2600" x1="1259.64" y1="282.783" x2="1174.78" y2="282.783" gradientUnits="userSpaceOnUse">
<stop stop-color="#26264F"/>
<stop offset="1" stop-color="#444B8C"/>
</linearGradient>
<linearGradient id="paint38_linear_4_2600" x1="1216.08" y1="299.433" x2="1210.8" y2="299.433" gradientUnits="userSpaceOnUse">
<stop stop-color="#444B8C"/>
<stop offset="1" stop-color="#26264F"/>
</linearGradient>
<linearGradient id="paint39_linear_4_2600" x1="1221.43" y1="298.124" x2="1201.97" y2="298.124" gradientUnits="userSpaceOnUse">
<stop stop-color="#26264F"/>
<stop offset="1" stop-color="#444B8C"/>
</linearGradient>
<linearGradient id="paint40_linear_4_2600" x1="1242.33" y1="284.256" x2="1218.05" y2="284.256" gradientUnits="userSpaceOnUse">
<stop stop-color="#444B8C"/>
<stop offset="1" stop-color="#26264F"/>
</linearGradient>
<linearGradient id="paint41_linear_4_2600" x1="1243.38" y1="284.248" x2="1219.11" y2="284.248" gradientUnits="userSpaceOnUse">
<stop stop-color="#26264F"/>
<stop offset="1" stop-color="#444B8C"/>
</linearGradient>
<linearGradient id="paint42_linear_4_2600" x1="1162.21" y1="296.352" x2="1144.79" y2="296.352" gradientUnits="userSpaceOnUse">
<stop stop-color="#26264F"/>
<stop offset="1" stop-color="#444B8C"/>
</linearGradient>
<linearGradient id="paint43_linear_4_2600" x1="1152.43" y1="301.832" x2="1149.07" y2="301.832" gradientUnits="userSpaceOnUse">
<stop stop-color="#FFC444"/>
<stop offset="1" stop-color="#F36F56"/>
</linearGradient>
<linearGradient id="paint44_linear_4_2600" x1="872.644" y1="387.294" x2="880.94" y2="387.294" gradientUnits="userSpaceOnUse">
<stop stop-color="#444B8C"/>
<stop offset="1" stop-color="#26264F"/>
</linearGradient>
<linearGradient id="paint45_linear_4_2600" x1="1393.52" y1="369.344" x2="1393.52" y2="369.344" gradientUnits="userSpaceOnUse">
<stop stop-color="#FFC444"/>
<stop offset="1" stop-color="#F36F56"/>
</linearGradient>
<linearGradient id="paint46_linear_4_2600" x1="1377.55" y1="372.605" x2="1377.55" y2="372.605" gradientUnits="userSpaceOnUse">
<stop stop-color="#FFC444"/>
<stop offset="1" stop-color="#F36F56"/>
</linearGradient>
<linearGradient id="paint47_linear_4_2600" x1="884.723" y1="383.958" x2="893.017" y2="383.958" gradientUnits="userSpaceOnUse">
<stop stop-color="#444B8C"/>
<stop offset="1" stop-color="#26264F"/>
</linearGradient>
<linearGradient id="paint48_linear_4_2600" x1="865.944" y1="403.683" x2="869.981" y2="403.683" gradientUnits="userSpaceOnUse">
<stop stop-color="#311944"/>
<stop offset="1" stop-color="#893976"/>
</linearGradient>
<linearGradient id="paint49_linear_4_2600" x1="865.951" y1="403.683" x2="869.987" y2="403.683" gradientUnits="userSpaceOnUse">
<stop stop-color="#311944"/>
<stop offset="1" stop-color="#893976"/>
</linearGradient>
<linearGradient id="paint50_linear_4_2600" x1="857.518" y1="353.131" x2="931.502" y2="353.131" gradientUnits="userSpaceOnUse">
<stop stop-color="#311944"/>
<stop offset="1" stop-color="#893976"/>
</linearGradient>
<linearGradient id="paint51_linear_4_2600" x1="874.465" y1="271.795" x2="822.004" y2="271.795" gradientUnits="userSpaceOnUse">
<stop stop-color="#FF9085"/>
<stop offset="1" stop-color="#FB6FBB"/>
</linearGradient>
<linearGradient id="paint52_linear_4_2600" x1="1531.49" y1="383.078" x2="1490.51" y2="383.078" gradientUnits="userSpaceOnUse">
<stop stop-color="#FF9085"/>
<stop offset="1" stop-color="#FB6FBB"/>
</linearGradient>
<linearGradient id="paint53_linear_4_2600" x1="870.358" y1="255.394" x2="879.821" y2="255.394" gradientUnits="userSpaceOnUse">
<stop stop-color="#FFC444"/>
<stop offset="1" stop-color="#F36F56"/>
</linearGradient>
<linearGradient id="paint54_linear_4_2600" x1="895.98" y1="291.124" x2="915.056" y2="291.124" gradientUnits="userSpaceOnUse">
<stop stop-color="#444B8C"/>
<stop offset="1" stop-color="#26264F"/>
</linearGradient>
<linearGradient id="paint55_linear_4_2600" x1="901.708" y1="288.758" x2="918.185" y2="288.758" gradientUnits="userSpaceOnUse">
<stop stop-color="#FFC444"/>
<stop offset="1" stop-color="#F36F56"/>
</linearGradient>
<linearGradient id="paint56_linear_4_2600" x1="917.65" y1="252.661" x2="913.11" y2="252.661" gradientUnits="userSpaceOnUse">
<stop stop-color="#AA80F9"/>
<stop offset="1" stop-color="#6165D7"/>
</linearGradient>
<linearGradient id="paint57_linear_4_2600" x1="914.518" y1="280.875" x2="919.095" y2="280.875" gradientUnits="userSpaceOnUse">
<stop stop-color="#FFC444"/>
<stop offset="1" stop-color="#F36F56"/>
</linearGradient>
<linearGradient id="paint58_linear_4_2600" x1="898.007" y1="281.826" x2="845.547" y2="281.826" gradientUnits="userSpaceOnUse">
<stop stop-color="#FF9085"/>
<stop offset="1" stop-color="#FB6FBB"/>
</linearGradient>
<linearGradient id="paint59_linear_4_2600" x1="865.514" y1="225.412" x2="827.255" y2="225.412" gradientUnits="userSpaceOnUse">
<stop stop-color="#444B8C"/>
<stop offset="1" stop-color="#26264F"/>
</linearGradient>
<linearGradient id="paint60_linear_4_2600" x1="1325.52" y1="388.39" x2="1294.76" y2="388.39" gradientUnits="userSpaceOnUse">
<stop stop-color="#AB316D"/>
<stop offset="1" stop-color="#792D3D"/>
</linearGradient>
<linearGradient id="paint61_linear_4_2600" x1="1296.26" y1="380.6" x2="1308.62" y2="380.6" gradientUnits="userSpaceOnUse">
<stop stop-color="#FFC444"/>
<stop offset="1" stop-color="#F36F56"/>
</linearGradient>
<linearGradient id="paint62_linear_4_2600" x1="1308.33" y1="326.158" x2="1330.81" y2="326.158" gradientUnits="userSpaceOnUse">
<stop stop-color="#AA80F9"/>
<stop offset="1" stop-color="#6165D7"/>
</linearGradient>
<linearGradient id="paint63_linear_4_2600" x1="1290.79" y1="370.132" x2="1301.65" y2="370.132" gradientUnits="userSpaceOnUse">
<stop stop-color="#E38DDD"/>
<stop offset="1" stop-color="#9571F6"/>
</linearGradient>
<linearGradient id="paint64_linear_4_2600" x1="1302.52" y1="322.444" x2="1269.77" y2="322.444" gradientUnits="userSpaceOnUse">
<stop stop-color="#AA80F9"/>
<stop offset="1" stop-color="#6165D7"/>
</linearGradient>
</defs>
</svg>
