<svg width="497" height="176" viewBox="0 0 497 176" fill="none" xmlns="http://www.w3.org/2000/svg">
<path d="M16.4392 0.902771L496.748 20.4296L491.159 92.0927L0 97.2512L16.4392 0.902771Z" fill="#2152F5"/>
<path d="M66.08 76H56V28H38.64V19.36H83.44V28H66.08V76ZM105.614 53.44C107.8 53.44 109.587 53.1467 110.974 52.56C112.36 51.9733 113.054 50.72 113.054 48.8C113.054 47.68 112.787 46.8267 112.254 46.24C111.72 45.6 111 45.12 110.094 44.8C109.187 44.48 108.12 44.2933 106.894 44.24C105.667 44.1867 104.36 44.16 102.974 44.16H98.0138V53.44H105.614ZM98.0138 69.12H103.854C105.347 69.12 106.76 69.0933 108.094 69.04C109.427 68.9867 110.574 68.8267 111.534 68.56C112.547 68.24 113.347 67.76 113.934 67.12C114.52 66.48 114.814 65.5467 114.814 64.32C114.814 63.1467 114.52 62.24 113.934 61.6C113.347 60.9067 112.547 60.4 111.534 60.08C110.574 59.76 109.427 59.5733 108.094 59.52C106.76 59.4133 105.347 59.36 103.854 59.36H98.0138V69.12ZM88.4138 76V37.28H107.774C112.68 37.28 116.387 38.2133 118.894 40.08C121.454 41.9467 122.734 44.48 122.734 47.68C122.734 49.12 122.494 50.32 122.014 51.28C121.587 52.24 120.974 53.04 120.174 53.68C119.374 54.32 118.44 54.8533 117.374 55.28C116.36 55.6533 115.267 56 114.094 56.32C115.534 56.4267 116.894 56.6667 118.174 57.04C119.454 57.4133 120.574 57.9733 121.534 58.72C122.494 59.4667 123.24 60.4267 123.774 61.6C124.36 62.72 124.654 64.08 124.654 65.68C124.654 68.7733 123.267 71.28 120.494 73.2C117.72 75.0667 113.8 76 108.734 76H88.4138ZM172.052 56.56C172.052 59.6 171.492 62.4 170.372 64.96C169.305 67.4667 167.812 69.6267 165.892 71.44C164.025 73.2533 161.785 74.6667 159.172 75.68C156.612 76.64 153.839 77.12 150.852 77.12C147.865 77.12 145.092 76.64 142.532 75.68C139.972 74.6667 137.732 73.2533 135.812 71.44C133.945 69.6267 132.452 67.4667 131.332 64.96C130.265 62.4 129.732 59.6 129.732 56.56C129.732 53.52 130.265 50.7467 131.332 48.24C132.452 45.7333 133.945 43.6 135.812 41.84C137.732 40.0267 139.972 38.64 142.532 37.68C145.092 36.6667 147.865 36.16 150.852 36.16C153.839 36.16 156.612 36.6667 159.172 37.68C161.785 38.64 164.025 40.0267 165.892 41.84C167.812 43.6 169.305 45.7333 170.372 48.24C171.492 50.7467 172.052 53.52 172.052 56.56ZM162.532 56.56C162.532 54.9067 162.265 53.3333 161.732 51.84C161.199 50.2933 160.425 48.96 159.412 47.84C158.452 46.6667 157.225 45.76 155.732 45.12C154.292 44.4267 152.665 44.08 150.852 44.08C149.039 44.08 147.412 44.4267 145.972 45.12C144.532 45.76 143.305 46.6667 142.292 47.84C141.332 48.96 140.585 50.2933 140.052 51.84C139.519 53.3333 139.252 54.9067 139.252 56.56C139.252 58.2133 139.519 59.8133 140.052 61.36C140.585 62.8533 141.332 64.1867 142.292 65.36C143.305 66.48 144.532 67.3867 145.972 68.08C147.412 68.72 149.039 69.04 150.852 69.04C152.665 69.04 154.292 68.72 155.732 68.08C157.225 67.3867 158.452 66.48 159.412 65.36C160.425 64.1867 161.199 62.8533 161.732 61.36C162.265 59.8133 162.532 58.2133 162.532 56.56ZM209.816 76H219.496V37.28H209.816L189.816 63.12V37.28H180.136V76H189.816L209.816 49.52V76ZM191.816 18.88C192.456 20.48 193.522 21.8133 195.016 22.88C196.562 23.8933 198.296 24.4 200.216 24.4C202.136 24.4 203.842 23.8933 205.336 22.88C206.882 21.8133 207.976 20.48 208.616 18.88L213.736 21.52C213.309 22.64 212.669 23.7067 211.816 24.72C211.016 25.68 210.029 26.5333 208.856 27.28C207.682 28.0267 206.349 28.64 204.856 29.12C203.416 29.5467 201.869 29.76 200.216 29.76C198.509 29.76 196.909 29.5467 195.416 29.12C193.976 28.64 192.669 28.0267 191.496 27.28C190.376 26.5333 189.389 25.68 188.536 24.72C187.682 23.7067 187.069 22.64 186.696 21.52L191.816 18.88ZM268.268 37.52C271.041 37.52 273.601 37.9733 275.948 38.88C278.294 39.7867 280.321 41.0933 282.028 42.8C283.734 44.5067 285.068 46.5867 286.028 49.04C287.041 51.44 287.548 54.16 287.548 57.2C287.548 60.24 287.014 62.9867 285.948 65.44C284.934 67.8933 283.494 70 281.628 71.76C279.814 73.4667 277.654 74.8 275.148 75.76C272.641 76.6667 269.921 77.12 266.988 77.12C264.268 77.12 261.761 76.72 259.468 75.92C257.174 75.0667 255.148 73.84 253.388 72.24C251.681 70.64 250.268 68.6933 249.148 66.4C248.028 64.0533 247.308 61.36 246.988 58.32C246.828 57.3067 246.721 56.2933 246.668 55.28C246.614 54.2133 246.588 53.1467 246.588 52.08C246.748 46.3733 247.388 41.4667 248.508 37.36C249.628 33.2533 251.308 29.8667 253.548 27.2C255.788 24.5333 258.614 22.5867 262.028 21.36C265.441 20.08 269.494 19.44 274.188 19.44H286.108V26.88H274.028C271.148 26.88 268.694 27.2267 266.668 27.92C264.641 28.6133 262.934 29.6267 261.548 30.96C260.161 32.24 259.068 33.84 258.268 35.76C257.521 37.6267 256.988 39.7333 256.668 42.08C258.054 40.5867 259.788 39.4667 261.868 38.72C263.948 37.92 266.081 37.52 268.268 37.52ZM278.268 57.28C278.268 55.5733 278.001 54 277.468 52.56C276.934 51.12 276.188 49.8667 275.228 48.8C274.268 47.7333 273.121 46.9067 271.788 46.32C270.454 45.7333 268.988 45.44 267.388 45.44C265.841 45.44 264.374 45.68 262.988 46.16C261.601 46.64 260.374 47.36 259.308 48.32C258.294 49.2267 257.468 50.4 256.828 51.84C256.241 53.28 255.948 54.96 255.948 56.88C255.948 60.56 256.961 63.5467 258.988 65.84C261.068 68.08 263.841 69.2 267.308 69.2C269.014 69.2 270.534 68.9067 271.868 68.32C273.254 67.68 274.401 66.8267 275.308 65.76C276.268 64.64 276.988 63.36 277.468 61.92C278.001 60.48 278.268 58.9333 278.268 57.28ZM325.406 49.52L305.406 76H295.726V37.28H305.406V63.12L325.406 37.28H335.086V76H325.406V49.52ZM371.858 76L361.618 48.72L350.818 76H340.578L356.418 37.28H367.138L382.098 76H371.858ZM415.606 52.88C415.553 50.1067 414.673 47.7867 412.966 45.92C411.313 44.0533 408.886 43.12 405.686 43.12C404.14 43.12 402.726 43.3867 401.446 43.92C400.166 44.4533 399.046 45.1733 398.086 46.08C397.126 46.9333 396.353 47.9733 395.766 49.2C395.233 50.3733 394.913 51.6 394.806 52.88H415.606ZM424.726 56.4C424.726 56.8267 424.726 57.28 424.726 57.76C424.726 58.24 424.7 58.72 424.646 59.2H394.726C394.78 60.64 395.126 62 395.766 63.28C396.406 64.56 397.233 65.6533 398.246 66.56C399.313 67.4667 400.513 68.1867 401.846 68.72C403.18 69.2533 404.62 69.52 406.166 69.52C408.566 69.52 410.646 69.0133 412.406 68C414.166 66.9867 415.526 65.76 416.486 64.32L423.286 68.88C421.26 71.6533 418.78 73.7333 415.846 75.12C412.966 76.4533 409.713 77.12 406.086 77.12C403.206 77.12 400.486 76.64 397.926 75.68C395.42 74.72 393.233 73.36 391.366 71.6C389.5 69.84 388.033 67.7067 386.966 65.2C385.9 62.6933 385.366 59.8667 385.366 56.72C385.366 53.68 385.873 50.9067 386.886 48.4C387.953 45.84 389.393 43.6533 391.206 41.84C393.073 40.0267 395.233 38.64 397.686 37.68C400.14 36.6667 402.806 36.16 405.686 36.16C408.62 36.16 411.26 36.6667 413.606 37.68C415.953 38.64 417.953 40 419.606 41.76C421.26 43.52 422.513 45.6533 423.366 48.16C424.273 50.6133 424.726 53.36 424.726 56.4ZM428.003 37.28H462.243V44.88H449.683V76H440.083V44.88H428.003V37.28Z" fill="white"/>
<path d="M61.12 133.44C63.3067 133.44 65.0933 133.147 66.48 132.56C67.8667 131.973 68.56 130.72 68.56 128.8C68.56 127.68 68.2933 126.827 67.76 126.24C67.2267 125.6 66.5067 125.12 65.6 124.8C64.6933 124.48 63.6267 124.293 62.4 124.24C61.1733 124.187 59.8667 124.16 58.48 124.16H53.52V133.44H61.12ZM53.52 149.12H59.36C60.8533 149.12 62.2667 149.093 63.6 149.04C64.9333 148.987 66.08 148.827 67.04 148.56C68.0533 148.24 68.8533 147.76 69.44 147.12C70.0267 146.48 70.32 145.547 70.32 144.32C70.32 143.147 70.0267 142.24 69.44 141.6C68.8533 140.907 68.0533 140.4 67.04 140.08C66.08 139.76 64.9333 139.573 63.6 139.52C62.2667 139.413 60.8533 139.36 59.36 139.36H53.52V149.12ZM43.92 156V117.28H63.28C68.1867 117.28 71.8933 118.213 74.4 120.08C76.96 121.947 78.24 124.48 78.24 127.68C78.24 129.12 78 130.32 77.52 131.28C77.0933 132.24 76.48 133.04 75.68 133.68C74.88 134.32 73.9467 134.853 72.88 135.28C71.8667 135.653 70.7733 136 69.6 136.32C71.04 136.427 72.4 136.667 73.68 137.04C74.96 137.413 76.08 137.973 77.04 138.72C78 139.467 78.7467 140.427 79.28 141.6C79.8667 142.72 80.16 144.08 80.16 145.68C80.16 148.773 78.7733 151.28 76 153.2C73.2267 155.067 69.3067 156 64.24 156H43.92ZM125.958 117.52C128.731 117.52 131.291 117.973 133.638 118.88C135.985 119.787 138.011 121.093 139.718 122.8C141.425 124.507 142.758 126.587 143.718 129.04C144.731 131.44 145.238 134.16 145.238 137.2C145.238 140.24 144.705 142.987 143.638 145.44C142.625 147.893 141.185 150 139.318 151.76C137.505 153.467 135.345 154.8 132.838 155.76C130.331 156.667 127.611 157.12 124.678 157.12C121.958 157.12 119.451 156.72 117.158 155.92C114.865 155.067 112.838 153.84 111.078 152.24C109.371 150.64 107.958 148.693 106.838 146.4C105.718 144.053 104.998 141.36 104.678 138.32C104.518 137.307 104.411 136.293 104.358 135.28C104.305 134.213 104.278 133.147 104.278 132.08C104.438 126.373 105.078 121.467 106.198 117.36C107.318 113.253 108.998 109.867 111.238 107.2C113.478 104.533 116.305 102.587 119.718 101.36C123.131 100.08 127.185 99.44 131.878 99.44H143.798V106.88H131.718C128.838 106.88 126.385 107.227 124.358 107.92C122.331 108.613 120.625 109.627 119.238 110.96C117.851 112.24 116.758 113.84 115.958 115.76C115.211 117.627 114.678 119.733 114.358 122.08C115.745 120.587 117.478 119.467 119.558 118.72C121.638 117.92 123.771 117.52 125.958 117.52ZM135.958 137.28C135.958 135.573 135.691 134 135.158 132.56C134.625 131.12 133.878 129.867 132.918 128.8C131.958 127.733 130.811 126.907 129.478 126.32C128.145 125.733 126.678 125.44 125.078 125.44C123.531 125.44 122.065 125.68 120.678 126.16C119.291 126.64 118.065 127.36 116.998 128.32C115.985 129.227 115.158 130.4 114.518 131.84C113.931 133.28 113.638 134.96 113.638 136.88C113.638 140.56 114.651 143.547 116.678 145.84C118.758 148.08 121.531 149.2 124.998 149.2C126.705 149.2 128.225 148.907 129.558 148.32C130.945 147.68 132.091 146.827 132.998 145.76C133.958 144.64 134.678 143.36 135.158 141.92C135.691 140.48 135.958 138.933 135.958 137.28ZM169.337 145.6H169.577L179.177 117.28H189.417L172.297 160.96C171.444 163.093 170.564 165.04 169.657 166.8C168.804 168.56 167.764 170.053 166.537 171.28C165.364 172.507 163.95 173.467 162.297 174.16C160.644 174.853 158.644 175.2 156.297 175.2C155.23 175.2 154.164 175.12 153.097 174.96C152.084 174.853 151.124 174.693 150.217 174.48L151.257 166.24C151.844 166.453 152.484 166.613 153.177 166.72C153.924 166.88 154.644 166.96 155.337 166.96C157.31 166.96 158.777 166.427 159.737 165.36C160.697 164.347 161.55 162.88 162.297 160.96L164.377 155.6L148.057 117.28H158.697L169.337 145.6ZM196.877 167.12H188.637V148.32H194.877L207.277 117.28H218.157L229.677 148.32H236.317V167.12H228.077V156H196.877V167.12ZM211.037 131.2L204.797 148.32H220.077L213.117 128.16L211.037 131.2ZM256.684 145.6H256.924L266.524 117.28H276.764L259.644 160.96C258.79 163.093 257.91 165.04 257.004 166.8C256.15 168.56 255.11 170.053 253.884 171.28C252.71 172.507 251.297 173.467 249.644 174.16C247.99 174.853 245.99 175.2 243.644 175.2C242.577 175.2 241.51 175.12 240.444 174.96C239.43 174.853 238.47 174.693 237.564 174.48L238.604 166.24C239.19 166.453 239.83 166.613 240.524 166.72C241.27 166.88 241.99 166.96 242.684 166.96C244.657 166.96 246.124 166.427 247.084 165.36C248.044 164.347 248.897 162.88 249.644 160.96L251.724 155.6L235.404 117.28H246.044L256.684 145.6ZM281.664 156V117.28H291.264V148.4H303.904V117.28H313.424V148.4H326.144V117.28H335.744V148.4H342.064V167.12H333.744V156H281.664ZM375.409 132.88C375.356 130.107 374.476 127.787 372.769 125.92C371.116 124.053 368.689 123.12 365.489 123.12C363.943 123.12 362.529 123.387 361.249 123.92C359.969 124.453 358.849 125.173 357.889 126.08C356.929 126.933 356.156 127.973 355.569 129.2C355.036 130.373 354.716 131.6 354.609 132.88H375.409ZM384.529 136.4C384.529 136.827 384.529 137.28 384.529 137.76C384.529 138.24 384.503 138.72 384.449 139.2H354.529C354.583 140.64 354.929 142 355.569 143.28C356.209 144.56 357.036 145.653 358.049 146.56C359.116 147.467 360.316 148.187 361.649 148.72C362.983 149.253 364.423 149.52 365.969 149.52C368.369 149.52 370.449 149.013 372.209 148C373.969 146.987 375.329 145.76 376.289 144.32L383.089 148.88C381.063 151.653 378.583 153.733 375.649 155.12C372.769 156.453 369.516 157.12 365.889 157.12C363.009 157.12 360.289 156.64 357.729 155.68C355.223 154.72 353.036 153.36 351.169 151.6C349.303 149.84 347.836 147.707 346.769 145.2C345.703 142.693 345.169 139.867 345.169 136.72C345.169 133.68 345.676 130.907 346.689 128.4C347.756 125.84 349.196 123.653 351.009 121.84C352.876 120.027 355.036 118.64 357.489 117.68C359.943 116.667 362.609 116.16 365.489 116.16C368.423 116.16 371.063 116.667 373.409 117.68C375.756 118.64 377.756 120 379.409 121.76C381.063 123.52 382.316 125.653 383.169 128.16C384.076 130.613 384.529 133.36 384.529 136.4ZM420.606 132.88C420.553 130.107 419.673 127.787 417.966 125.92C416.313 124.053 413.886 123.12 410.686 123.12C409.14 123.12 407.726 123.387 406.446 123.92C405.166 124.453 404.046 125.173 403.086 126.08C402.126 126.933 401.353 127.973 400.766 129.2C400.233 130.373 399.913 131.6 399.806 132.88H420.606ZM429.726 136.4C429.726 136.827 429.726 137.28 429.726 137.76C429.726 138.24 429.7 138.72 429.646 139.2H399.726C399.78 140.64 400.126 142 400.766 143.28C401.406 144.56 402.233 145.653 403.246 146.56C404.313 147.467 405.513 148.187 406.846 148.72C408.18 149.253 409.62 149.52 411.166 149.52C413.566 149.52 415.646 149.013 417.406 148C419.166 146.987 420.526 145.76 421.486 144.32L428.286 148.88C426.26 151.653 423.78 153.733 420.846 155.12C417.966 156.453 414.713 157.12 411.086 157.12C408.206 157.12 405.486 156.64 402.926 155.68C400.42 154.72 398.233 153.36 396.366 151.6C394.5 149.84 393.033 147.707 391.966 145.2C390.9 142.693 390.366 139.867 390.366 136.72C390.366 133.68 390.873 130.907 391.886 128.4C392.953 125.84 394.393 123.653 396.206 121.84C398.073 120.027 400.233 118.64 402.686 117.68C405.14 116.667 407.806 116.16 410.686 116.16C413.62 116.16 416.26 116.667 418.606 117.68C420.953 118.64 422.953 120 424.606 121.76C426.26 123.52 427.513 125.653 428.366 128.16C429.273 130.613 429.726 133.36 429.726 136.4Z" fill="#0E1726"/>
</svg>
