<svg width="1408" height="472" viewBox="0 0 1408 472" fill="none" xmlns="http://www.w3.org/2000/svg">
<path d="M207.521 166.92L527.022 190.63L497.907 273.271L242.333 258.518L207.521 166.92Z" fill="#FFC800"/>
<path d="M36.64 91.36H46.64V114.24H72.8V91.36H82.8V148H72.8V122.88H46.64V148H36.64V91.36ZM117.293 123.04C117.293 120.48 116.52 118.587 114.973 117.36C113.426 116.133 111.373 115.52 108.813 115.52C106.786 115.52 104.84 115.92 102.973 116.72C101.16 117.52 99.6131 118.533 98.3331 119.76L93.3731 114.24C95.3465 112.373 97.7465 110.907 100.573 109.84C103.453 108.72 106.493 108.16 109.693 108.16C114.76 108.16 118.706 109.36 121.533 111.76C124.36 114.16 125.906 117.92 126.173 123.04C126.226 123.787 126.253 124.533 126.253 125.28C126.306 126.027 126.333 126.8 126.333 127.6V139.84C126.333 141.227 126.36 142.64 126.413 144.08C126.466 145.467 126.546 146.773 126.653 148H117.853C117.8 147.2 117.746 146.373 117.693 145.52C117.64 144.667 117.613 143.787 117.613 142.88H117.453C116.066 144.907 114.333 146.427 112.253 147.44C110.173 148.453 107.773 148.96 105.053 148.96C103.56 148.96 101.986 148.747 100.333 148.32C98.7331 147.893 97.2665 147.227 95.9331 146.32C94.5998 145.36 93.4798 144.133 92.5731 142.64C91.7198 141.093 91.2931 139.2 91.2931 136.96C91.2931 134.08 92.0398 131.787 93.5331 130.08C95.0798 128.373 97.0798 127.067 99.5331 126.16C102.04 125.253 104.84 124.667 107.933 124.4C111.026 124.133 114.146 124 117.293 124V123.04ZM115.853 130C114.04 130 112.2 130.08 110.333 130.24C108.52 130.4 106.866 130.72 105.373 131.2C103.933 131.627 102.733 132.293 101.773 133.2C100.866 134.053 100.413 135.2 100.413 136.64C100.413 137.707 100.626 138.587 101.053 139.28C101.48 139.973 102.013 140.533 102.653 140.96C103.346 141.387 104.12 141.707 104.973 141.92C105.826 142.08 106.68 142.16 107.533 142.16C110.733 142.16 113.186 141.2 114.893 139.28C116.6 137.307 117.453 134.88 117.453 132V130H115.853ZM170.556 137.6H170.796L180.396 109.28H190.636L173.516 152.96C172.662 155.093 171.782 157.04 170.876 158.8C170.022 160.56 168.982 162.053 167.756 163.28C166.582 164.507 165.169 165.467 163.516 166.16C161.862 166.853 159.862 167.2 157.516 167.2C156.449 167.2 155.382 167.12 154.316 166.96C153.302 166.853 152.342 166.693 151.436 166.48L152.476 158.24C153.062 158.453 153.702 158.613 154.396 158.72C155.142 158.88 155.862 158.96 156.556 158.96C158.529 158.96 159.996 158.427 160.956 157.36C161.916 156.347 162.769 154.88 163.516 152.96L165.596 147.6L149.276 109.28H159.916L170.556 137.6ZM205.296 167.2H195.696V109.28H204.896V114.88H205.136C206.522 112.853 208.389 111.253 210.736 110.08C213.082 108.853 215.669 108.24 218.496 108.24C221.429 108.24 224.069 108.773 226.416 109.84C228.762 110.907 230.762 112.373 232.416 114.24C234.069 116.053 235.349 118.213 236.256 120.72C237.162 123.173 237.616 125.787 237.616 128.56C237.616 131.333 237.162 133.973 236.256 136.48C235.402 138.933 234.149 141.093 232.496 142.96C230.842 144.827 228.816 146.32 226.416 147.44C224.069 148.507 221.429 149.04 218.496 149.04C215.936 149.04 213.456 148.507 211.056 147.44C208.709 146.32 206.842 144.747 205.456 142.72H205.296V167.2ZM228.096 128.56C228.096 126.907 227.829 125.333 227.296 123.84C226.816 122.293 226.096 120.96 225.136 119.84C224.176 118.667 222.976 117.76 221.536 117.12C220.096 116.427 218.416 116.08 216.496 116.08C214.736 116.08 213.136 116.427 211.696 117.12C210.256 117.76 209.002 118.667 207.936 119.84C206.922 120.96 206.122 122.293 205.536 123.84C205.002 125.333 204.736 126.907 204.736 128.56C204.736 130.267 205.002 131.893 205.536 133.44C206.122 134.933 206.922 136.24 207.936 137.36C209.002 138.48 210.256 139.387 211.696 140.08C213.136 140.72 214.736 141.04 216.496 141.04C218.416 141.04 220.096 140.72 221.536 140.08C222.976 139.387 224.176 138.48 225.136 137.36C226.096 136.187 226.816 134.853 227.296 133.36C227.829 131.813 228.096 130.213 228.096 128.56ZM285.893 128.56C285.893 131.6 285.333 134.4 284.213 136.96C283.146 139.467 281.653 141.627 279.733 143.44C277.866 145.253 275.626 146.667 273.013 147.68C270.453 148.64 267.679 149.12 264.693 149.12C261.706 149.12 258.933 148.64 256.373 147.68C253.813 146.667 251.573 145.253 249.653 143.44C247.786 141.627 246.293 139.467 245.173 136.96C244.106 134.4 243.573 131.6 243.573 128.56C243.573 125.52 244.106 122.747 245.173 120.24C246.293 117.733 247.786 115.6 249.653 113.84C251.573 112.027 253.813 110.64 256.373 109.68C258.933 108.667 261.706 108.16 264.693 108.16C267.679 108.16 270.453 108.667 273.013 109.68C275.626 110.64 277.866 112.027 279.733 113.84C281.653 115.6 283.146 117.733 284.213 120.24C285.333 122.747 285.893 125.52 285.893 128.56ZM276.373 128.56C276.373 126.907 276.106 125.333 275.573 123.84C275.039 122.293 274.266 120.96 273.253 119.84C272.293 118.667 271.066 117.76 269.573 117.12C268.133 116.427 266.506 116.08 264.693 116.08C262.879 116.08 261.253 116.427 259.812 117.12C258.373 117.76 257.146 118.667 256.133 119.84C255.173 120.96 254.426 122.293 253.893 123.84C253.359 125.333 253.093 126.907 253.093 128.56C253.093 130.213 253.359 131.813 253.893 133.36C254.426 134.853 255.173 136.187 256.133 137.36C257.146 138.48 258.373 139.387 259.812 140.08C261.253 140.72 262.879 141.04 264.693 141.04C266.506 141.04 268.133 140.72 269.573 140.08C271.066 139.387 272.293 138.48 273.253 137.36C274.266 136.187 275.039 134.853 275.573 133.36C276.106 131.813 276.373 130.213 276.373 128.56ZM311.176 125.44C313.363 125.44 315.15 125.147 316.536 124.56C317.923 123.973 318.616 122.72 318.616 120.8C318.616 119.68 318.35 118.827 317.816 118.24C317.283 117.6 316.563 117.12 315.656 116.8C314.75 116.48 313.683 116.293 312.456 116.24C311.23 116.187 309.923 116.16 308.536 116.16H303.576V125.44H311.176ZM303.576 141.12H309.416C310.91 141.12 312.323 141.093 313.656 141.04C314.99 140.987 316.136 140.827 317.096 140.56C318.11 140.24 318.91 139.76 319.496 139.12C320.083 138.48 320.376 137.547 320.376 136.32C320.376 135.147 320.083 134.24 319.496 133.6C318.91 132.907 318.11 132.4 317.096 132.08C316.136 131.76 314.99 131.573 313.656 131.52C312.323 131.413 310.91 131.36 309.416 131.36H303.576V141.12ZM293.976 148V109.28H313.336C318.243 109.28 321.95 110.213 324.456 112.08C327.016 113.947 328.296 116.48 328.296 119.68C328.296 121.12 328.056 122.32 327.576 123.28C327.15 124.24 326.536 125.04 325.736 125.68C324.936 126.32 324.003 126.853 322.936 127.28C321.923 127.653 320.83 128 319.656 128.32C321.096 128.427 322.456 128.667 323.736 129.04C325.016 129.413 326.136 129.973 327.096 130.72C328.056 131.467 328.803 132.427 329.336 133.6C329.923 134.72 330.216 136.08 330.216 137.68C330.216 140.773 328.83 143.28 326.056 145.2C323.283 147.067 319.363 148 314.296 148H293.976ZM365.534 124.88C365.481 122.107 364.601 119.787 362.894 117.92C361.241 116.053 358.814 115.12 355.614 115.12C354.068 115.12 352.654 115.387 351.374 115.92C350.094 116.453 348.974 117.173 348.014 118.08C347.054 118.933 346.281 119.973 345.694 121.2C345.161 122.373 344.841 123.6 344.734 124.88H365.534ZM374.654 128.4C374.654 128.827 374.654 129.28 374.654 129.76C374.654 130.24 374.628 130.72 374.574 131.2H344.654C344.708 132.64 345.054 134 345.694 135.28C346.334 136.56 347.161 137.653 348.174 138.56C349.241 139.467 350.441 140.187 351.774 140.72C353.108 141.253 354.548 141.52 356.094 141.52C358.494 141.52 360.574 141.013 362.334 140C364.094 138.987 365.454 137.76 366.414 136.32L373.214 140.88C371.188 143.653 368.708 145.733 365.774 147.12C362.894 148.453 359.641 149.12 356.014 149.12C353.134 149.12 350.414 148.64 347.854 147.68C345.348 146.72 343.161 145.36 341.294 143.6C339.428 141.84 337.961 139.707 336.894 137.2C335.828 134.693 335.294 131.867 335.294 128.72C335.294 125.68 335.801 122.907 336.814 120.4C337.881 117.84 339.321 115.653 341.134 113.84C343.001 112.027 345.161 110.64 347.614 109.68C350.068 108.667 352.734 108.16 355.614 108.16C358.548 108.16 361.188 108.667 363.534 109.68C365.881 110.64 367.881 112 369.534 113.76C371.188 115.52 372.441 117.653 373.294 120.16C374.201 122.613 374.654 125.36 374.654 128.4ZM392.251 148H382.651V109.28H392.251V124.16H409.291V109.28H418.891V148H409.291V131.68H392.251V148ZM438.698 109.28V121.76H447.738C450.618 121.76 453.071 122.107 455.098 122.8C457.125 123.44 458.751 124.347 459.978 125.52C461.258 126.693 462.165 128.08 462.698 129.68C463.285 131.28 463.578 132.987 463.578 134.8C463.578 136.667 463.231 138.4 462.538 140C461.898 141.6 460.911 142.987 459.578 144.16C458.298 145.333 456.698 146.267 454.778 146.96C452.858 147.653 450.618 148 448.058 148H429.098V109.28H438.698ZM438.698 141.04H445.978C448.378 141.04 450.325 140.613 451.818 139.76C453.311 138.853 454.058 137.2 454.058 134.8C454.058 133.627 453.845 132.64 453.418 131.84C452.991 131.04 452.405 130.427 451.658 130C450.911 129.52 450.031 129.2 449.018 129.04C448.058 128.827 446.991 128.72 445.818 128.72H438.698V141.04Z" fill="#0E1726"/>
<path d="M257.44 179.36H277.36C279.547 179.36 281.76 179.6 284 180.08C286.24 180.507 288.24 181.28 290 182.4C291.813 183.467 293.28 184.933 294.4 186.8C295.573 188.667 296.16 191.04 296.16 193.92C296.16 196.96 295.28 199.547 293.52 201.68C291.76 203.813 289.44 205.28 286.56 206.08V206.24C288.267 206.507 289.867 207.013 291.36 207.76C292.853 208.453 294.133 209.387 295.2 210.56C296.32 211.68 297.173 213.04 297.76 214.64C298.4 216.187 298.72 217.947 298.72 219.92C298.72 222.64 298.16 225.013 297.04 227.04C295.92 229.067 294.373 230.747 292.4 232.08C290.48 233.413 288.213 234.4 285.6 235.04C283.04 235.68 280.293 236 277.36 236H257.44V179.36ZM267.2 202.96H276.48C277.813 202.96 279.067 202.827 280.24 202.56C281.467 202.24 282.533 201.76 283.44 201.12C284.347 200.48 285.067 199.68 285.6 198.72C286.133 197.707 286.4 196.48 286.4 195.04C286.4 192.373 285.387 190.453 283.36 189.28C281.333 188.107 278.693 187.52 275.44 187.52H267.2V202.96ZM267.2 227.76H276.24C277.787 227.76 279.307 227.627 280.8 227.36C282.293 227.04 283.6 226.56 284.72 225.92C285.893 225.227 286.827 224.32 287.52 223.2C288.267 222.08 288.64 220.693 288.64 219.04C288.64 216 287.573 213.84 285.44 212.56C283.307 211.227 280.4 210.56 276.72 210.56H267.2V227.76ZM316.908 197.28V209.76H322.828C326.188 209.76 329.014 210.053 331.308 210.64C333.601 211.173 335.468 212 336.908 213.12C338.348 214.187 339.388 215.547 340.028 217.2C340.668 218.8 340.988 220.667 340.988 222.8C340.988 227.28 339.414 230.613 336.268 232.8C333.174 234.933 328.588 236 322.508 236H307.308V197.28H316.908ZM316.908 229.04H323.468C325.868 229.04 327.788 228.613 329.228 227.76C330.721 226.853 331.468 225.2 331.468 222.8C331.468 220.4 330.694 218.8 329.148 218C327.601 217.147 325.628 216.72 323.228 216.72H316.908V229.04ZM354.668 197.28V236H345.068V197.28H354.668ZM364.926 236V197.28H374.526V228.4H387.966V197.28H397.566V228.4H411.086V197.28H420.606V236H364.926ZM460.584 212.88C460.531 210.107 459.651 207.787 457.944 205.92C456.291 204.053 453.864 203.12 450.664 203.12C449.118 203.12 447.704 203.387 446.424 203.92C445.144 204.453 444.024 205.173 443.064 206.08C442.104 206.933 441.331 207.973 440.744 209.2C440.211 210.373 439.891 211.6 439.784 212.88H460.584ZM469.704 216.4C469.704 216.827 469.704 217.28 469.704 217.76C469.704 218.24 469.678 218.72 469.624 219.2H439.704C439.758 220.64 440.104 222 440.744 223.28C441.384 224.56 442.211 225.653 443.224 226.56C444.291 227.467 445.491 228.187 446.824 228.72C448.158 229.253 449.598 229.52 451.144 229.52C453.544 229.52 455.624 229.013 457.384 228C459.144 226.987 460.504 225.76 461.464 224.32L468.264 228.88C466.238 231.653 463.758 233.733 460.824 235.12C457.944 236.453 454.691 237.12 451.064 237.12C448.184 237.12 445.464 236.64 442.904 235.68C440.398 234.72 438.211 233.36 436.344 231.6C434.478 229.84 433.011 227.707 431.944 225.2C430.878 222.693 430.344 219.867 430.344 216.72C430.344 213.68 430.851 210.907 431.864 208.4C432.931 205.84 434.371 203.653 436.184 201.84C438.051 200.027 440.211 198.64 442.664 197.68C445.118 196.667 447.784 196.16 450.664 196.16C453.598 196.16 456.238 196.667 458.584 197.68C460.931 198.64 462.931 200 464.584 201.76C466.238 203.52 467.491 205.653 468.344 208.16C469.251 210.613 469.704 213.36 469.704 216.4Z" fill="white"/>
<path d="M6.79771 239.567L116.645 233.473L159.279 267.93L0.000101314 294.911L6.79771 239.567Z" fill="#F0F4FF"/>
<path d="M20.4055 265.335H15.6055V245.975H33.4055V265.335H28.6055V249.775H20.4055V265.335ZM58.5964 255.615C58.5964 257.135 58.3164 258.535 57.7564 259.815C57.2231 261.068 56.4764 262.148 55.5164 263.055C54.5831 263.962 53.4631 264.668 52.1564 265.175C50.8764 265.655 49.4898 265.895 47.9964 265.895C46.5031 265.895 45.1164 265.655 43.8364 265.175C42.5564 264.668 41.4364 263.962 40.4764 263.055C39.5431 262.148 38.7964 261.068 38.2364 259.815C37.7031 258.535 37.4364 257.135 37.4364 255.615C37.4364 254.095 37.7031 252.708 38.2364 251.455C38.7964 250.202 39.5431 249.135 40.4764 248.255C41.4364 247.348 42.5564 246.655 43.8364 246.175C45.1164 245.668 46.5031 245.415 47.9964 245.415C49.4898 245.415 50.8764 245.668 52.1564 246.175C53.4631 246.655 54.5831 247.348 55.5164 248.255C56.4764 249.135 57.2231 250.202 57.7564 251.455C58.3164 252.708 58.5964 254.095 58.5964 255.615ZM53.8364 255.615C53.8364 254.788 53.7031 254.002 53.4364 253.255C53.1698 252.482 52.7831 251.815 52.2764 251.255C51.7964 250.668 51.1831 250.215 50.4364 249.895C49.7164 249.548 48.9031 249.375 47.9964 249.375C47.0898 249.375 46.2764 249.548 45.5564 249.895C44.8364 250.215 44.2231 250.668 43.7164 251.255C43.2364 251.815 42.8631 252.482 42.5964 253.255C42.3298 254.002 42.1964 254.788 42.1964 255.615C42.1964 256.442 42.3298 257.242 42.5964 258.015C42.8631 258.762 43.2364 259.428 43.7164 260.015C44.2231 260.575 44.8364 261.028 45.5564 261.375C46.2764 261.695 47.0898 261.855 47.9964 261.855C48.9031 261.855 49.7164 261.695 50.4364 261.375C51.1831 261.028 51.7964 260.575 52.2764 260.015C52.7831 259.428 53.1698 258.762 53.4364 258.015C53.7031 257.242 53.8364 256.442 53.8364 255.615ZM77.4783 252.095L67.4783 265.335H62.6383V245.975H67.4783V258.895L77.4783 245.975H82.3183V265.335H77.4783V252.095ZM101.104 251.415C100.704 250.802 100.131 250.322 99.3843 249.975C98.6376 249.602 97.8509 249.415 97.0243 249.415C96.1443 249.415 95.3443 249.575 94.6243 249.895C93.9309 250.215 93.3309 250.655 92.8243 251.215C92.3443 251.775 91.9576 252.442 91.6643 253.215C91.3976 253.962 91.2643 254.775 91.2643 255.655C91.2643 256.508 91.3976 257.322 91.6643 258.095C91.9309 258.842 92.3176 259.495 92.8243 260.055C93.3309 260.615 93.9443 261.055 94.6643 261.375C95.3843 261.695 96.1843 261.855 97.0643 261.855C97.9709 261.855 98.7843 261.682 99.5043 261.335C100.251 260.988 100.851 260.522 101.304 259.935L104.224 263.015C103.398 263.895 102.358 264.602 101.104 265.135C99.8776 265.642 98.4909 265.895 96.9443 265.895C95.3976 265.895 93.9709 265.655 92.6643 265.175C91.3843 264.668 90.2643 263.975 89.3043 263.095C88.3709 262.188 87.6376 261.108 87.1043 259.855C86.5976 258.602 86.3443 257.202 86.3443 255.655C86.3443 254.135 86.6109 252.748 87.1443 251.495C87.6776 250.242 88.4109 249.162 89.3443 248.255C90.2776 247.348 91.3976 246.655 92.7043 246.175C94.0109 245.668 95.4243 245.415 96.9443 245.415C98.3043 245.415 99.6376 245.668 100.944 246.175C102.278 246.682 103.344 247.402 104.144 248.335L101.104 251.415ZM111.502 253.415C112.329 253.415 113.102 253.495 113.822 253.655L119.382 245.975H124.662L117.942 255.055C119.862 255.988 121.369 257.308 122.462 259.015C123.556 260.722 124.422 262.828 125.062 265.335H119.782C119.462 263.815 119.049 262.548 118.542 261.535C118.062 260.522 117.476 259.708 116.782 259.095C116.116 258.482 115.342 258.028 114.462 257.735C113.609 257.442 112.622 257.268 111.502 257.215V265.335H106.702V245.975H111.502V253.415Z" fill="#2152F5"/>
<path d="M1295.65 38.5432C1311.38 60.5609 1293.59 96.7111 1316.76 113.15C1339.31 129.152 1366.52 102.247 1387.76 116.003C1419.26 136.409 1414.55 231.347 1369.42 290.78C1355.85 308.652 1344.43 315.671 1339.55 335.775C1329.07 378.942 1367.76 404.148 1360.67 425.518C1344.72 473.635 1091.97 516.53 988.869 373.51C940.717 306.714 932.597 209.614 974.209 135.365C1049.4 1.1961 1260.36 -10.86 1295.65 38.5432Z" fill="#F4F7FA"/>
<path d="M1256.43 339.063C1253.72 338.833 1248.04 335.944 1246.86 334.58C1239.07 325.503 1223.36 309.455 1223.55 296.805C1223.59 294.645 1233.13 292.225 1234.39 290.188C1240.1 287.167 1242.27 286.475 1246.29 280.936C1258.15 264.589 1228.24 236.166 1261.08 224.286C1285.14 215.584 1306.11 223.089 1301.84 185.334C1297.56 147.579 1324.59 77.2648 1365.72 101.938C1389.33 116.098 1367.44 149.316 1380.28 172.555C1392.49 194.638 1383.73 213.637 1360.34 228.229C1336.95 242.82 1350.22 252.675 1358.12 273.821C1367.62 299.222 1328.18 305.516 1309.72 306.867C1294.86 307.955 1257.75 320.755 1256.43 339.061L1256.43 339.063Z" fill="url(#paint0_linear_4_2600)"/>
<path d="M1256.43 339.063C1253.72 338.833 1248.04 335.944 1246.86 334.58C1239.07 325.503 1223.36 309.455 1223.55 296.805C1223.59 294.645 1233.13 292.225 1234.39 290.188C1240.1 287.167 1242.27 286.475 1246.29 280.936C1258.15 264.589 1228.24 236.166 1261.08 224.286C1285.14 215.584 1306.11 223.089 1301.84 185.334C1297.56 147.579 1324.59 77.2648 1365.72 101.938C1389.33 116.098 1367.44 149.316 1380.28 172.555C1392.49 194.638 1383.73 213.637 1360.34 228.229C1336.95 242.82 1350.22 252.675 1358.12 273.821C1367.62 299.222 1328.18 305.516 1309.72 306.867C1294.86 307.955 1257.75 320.755 1256.43 339.061L1256.43 339.063Z" fill="url(#paint1_linear_4_2600)"/>
<g style="mix-blend-mode:soft-light" opacity="0.7">
<path d="M1235.59 316.766L1235.32 316.258C1313.54 273.826 1358.12 189.582 1354.55 90.9042L1355.13 90.8828C1356.82 137.649 1347.28 182.888 1327.55 221.706C1306.8 262.517 1275 295.388 1235.59 316.764L1235.59 316.766Z" fill="#FCFDFE"/>
<path d="M1363.28 283.927C1339.84 277.354 1301.19 278.83 1277.11 287.222L1276.92 286.676C1301.09 278.253 1339.9 276.77 1363.43 283.371L1363.28 283.927H1363.28Z" fill="#FCFDFE"/>
<path d="M1250.86 308.259L1250.45 307.847C1259.89 298.546 1264.27 284.829 1263.46 267.077C1262.87 254.06 1259.55 239.218 1253.61 222.959L1254.15 222.76C1260.11 239.073 1263.44 253.973 1264.04 267.049C1264.85 284.971 1260.42 298.835 1250.85 308.258L1250.86 308.259Z" fill="#FCFDFE"/>
<path d="M1330.13 216.089L1329.71 215.699C1346.6 197.252 1372.25 191.398 1390.79 189.734L1390.84 190.309C1372.4 191.963 1346.9 197.78 1330.13 216.089Z" fill="#FCFDFE"/>
<path d="M1348.89 161.982L1348.31 161.965C1349.12 133.795 1331.89 109.754 1321.54 97.9313L1321.97 97.5498C1332.38 109.437 1349.7 133.615 1348.89 161.982Z" fill="#FCFDFE"/>
</g>
<path d="M1127.41 425.858C1131.17 425.537 1139.06 421.531 1140.68 419.638C1151.5 407.043 1173.3 384.779 1173.03 367.226C1172.98 364.229 1159.74 360.87 1157.99 358.046C1150.06 353.857 1147.06 352.893 1141.48 345.21C1125.02 322.529 1166.53 283.092 1120.95 266.608C1087.57 254.534 1058.48 264.948 1064.41 212.564C1070.34 160.18 1032.84 62.6176 975.764 96.8525C943.006 116.499 973.382 162.59 955.563 194.832C938.629 225.471 950.782 251.833 983.233 272.078C1015.68 292.323 997.282 305.997 986.316 335.338C973.144 370.582 1027.86 379.314 1053.47 381.19C1074.09 382.701 1125.57 400.458 1127.41 425.86L1127.41 425.858Z" fill="url(#paint2_linear_4_2600)"/>
<path d="M1127.41 425.858C1131.17 425.537 1139.06 421.531 1140.68 419.638C1151.5 407.043 1173.3 384.779 1173.03 367.226C1172.98 364.229 1159.74 360.87 1157.99 358.046C1150.06 353.857 1147.06 352.893 1141.48 345.21C1125.02 322.529 1166.53 283.092 1120.95 266.608C1087.57 254.534 1058.48 264.948 1064.41 212.564C1070.34 160.18 1032.84 62.6176 975.764 96.8525C943.006 116.499 973.382 162.59 955.563 194.832C938.629 225.471 950.782 251.833 983.233 272.078C1015.68 292.323 997.282 305.997 986.316 335.338C973.144 370.582 1027.86 379.314 1053.47 381.19C1074.09 382.701 1125.57 400.458 1127.41 425.86L1127.41 425.858Z" fill="url(#paint3_linear_4_2600)"/>
<g style="mix-blend-mode:soft-light" opacity="0.7">
<path d="M1156.32 394.921L1156.7 394.218C1048.17 335.343 986.326 218.455 991.271 81.5413L990.471 81.5117C988.126 146.399 1001.36 209.166 1028.74 263.027C1057.53 319.653 1101.64 365.26 1156.32 394.92L1156.32 394.921Z" fill="#FCFDFE"/>
<path d="M979.161 349.359C1011.68 340.237 1065.31 342.288 1098.72 353.929L1098.98 353.173C1065.44 341.485 1011.6 339.429 978.944 348.588L979.161 349.361V349.359Z" fill="#FCFDFE"/>
<path d="M1135.15 383.12L1135.71 382.548C1122.61 369.644 1116.54 350.612 1117.66 325.98C1118.48 307.92 1123.08 287.326 1131.33 264.769L1130.58 264.494C1122.3 287.128 1117.68 307.803 1116.86 325.944C1115.72 350.812 1121.88 370.048 1135.15 383.12Z" fill="#FCFDFE"/>
<path d="M1025.15 255.233L1025.74 254.692C1002.3 229.097 966.715 220.973 940.992 218.665L940.921 219.464C966.503 221.759 1001.88 229.828 1025.15 255.233H1025.15Z" fill="#FCFDFE"/>
<path d="M999.132 180.161L999.932 180.138C998.806 141.053 1022.72 107.696 1037.08 91.291L1036.47 90.7632C1022.04 107.257 997.996 140.803 999.13 180.162L999.132 180.161Z" fill="#FCFDFE"/>
</g>
<path d="M1205.8 360.949C1218.15 341.74 1208.29 308.503 1195.36 288.751C1180.27 265.691 1167.06 270.268 1156.72 251.421C1137.47 216.33 1175.38 186.074 1158.77 149.148C1145.2 118.96 1114.71 127.725 1101.2 93.6118C1091.44 68.9949 1102.63 52.5984 1087.08 33.9692C1085.75 32.376 1071.17 15.4074 1052.53 17.6088C1033.71 19.8316 1021.76 40.2858 1017.54 54.5713C1009.74 80.9803 1027.19 90.2579 1029.43 124.958C1032.48 172.201 1001.95 182.966 1011.39 217.288C1019.18 245.629 1041.79 244.825 1049.81 276.422C1057.25 305.762 1040.46 317.116 1047.35 336.377C1063.23 380.681 1180.61 400.133 1205.8 360.949Z" fill="url(#paint4_linear_4_2600)"/>
<path d="M1205.8 360.949C1218.15 341.74 1208.29 308.503 1195.36 288.751C1180.27 265.691 1167.06 270.268 1156.72 251.421C1137.47 216.33 1175.38 186.074 1158.77 149.148C1145.2 118.96 1114.71 127.725 1101.2 93.6118C1091.44 68.9949 1102.63 52.5984 1087.08 33.9692C1085.75 32.376 1071.17 15.4074 1052.53 17.6088C1033.71 19.8316 1021.76 40.2858 1017.54 54.5713C1009.74 80.9803 1027.19 90.2579 1029.43 124.958C1032.48 172.201 1001.95 182.966 1011.39 217.288C1019.18 245.629 1041.79 244.825 1049.81 276.422C1057.25 305.762 1040.46 317.116 1047.35 336.377C1063.23 380.681 1180.61 400.133 1205.8 360.949Z" fill="url(#paint5_linear_4_2600)"/>
<g style="mix-blend-mode:soft-light" opacity="0.7">
<path d="M1188.91 391.237C1189.07 391.237 1189.2 391.125 1189.22 390.969C1189.25 390.798 1189.13 390.638 1188.96 390.614C1169.01 387.673 1150.55 380.687 1134.09 369.851C1118.51 359.586 1102.39 348.972 1095.8 330.368C1090.82 316.298 1094.29 306.226 1098.68 293.474C1102.96 281.068 1108.28 265.627 1106.67 241.635C1105.76 227.934 1104.62 210.885 1093.46 194.342C1086.95 184.706 1080.44 180.427 1074.69 176.65C1068.66 172.69 1063.89 169.563 1061.36 161.604C1057.24 148.628 1060.74 137.764 1064.79 125.185C1067.3 117.422 1069.88 109.392 1071.13 99.7857C1074.65 72.7487 1063.03 43.0433 1036.6 11.4965C1036.49 11.3633 1036.29 11.3468 1036.16 11.457C1036.03 11.5672 1036.01 11.7661 1036.12 11.8976C1062.43 43.3047 1074 72.8473 1070.51 99.7035C1069.27 109.254 1066.69 117.254 1064.2 124.991C1060.11 137.672 1056.58 148.625 1060.77 161.791C1063.37 169.96 1068.45 173.303 1074.35 177.171C1080.05 180.915 1086.51 185.158 1092.94 194.691C1104 211.096 1105.14 228.051 1106.05 241.676C1107.65 265.543 1102.35 280.917 1098.09 293.27C1093.66 306.137 1090.16 316.301 1095.21 330.578C1101.87 349.382 1118.07 360.053 1133.75 370.375C1150.28 381.262 1168.82 388.281 1188.86 391.235C1188.88 391.237 1188.9 391.238 1188.91 391.238L1188.91 391.237Z" fill="white"/>
</g>
<g style="mix-blend-mode:soft-light" opacity="0.7">
<path d="M1097.9 202.954C1098.01 202.954 1098.12 202.89 1098.18 202.779C1115.83 166.859 1119.53 138.645 1119.53 121.3C1119.52 102.482 1115.27 92.0153 1115.22 91.9118C1115.16 91.7523 1114.97 91.6767 1114.81 91.7425C1114.65 91.8082 1114.58 91.9923 1114.64 92.1518C1114.69 92.2554 1118.9 102.636 1118.9 121.343C1118.9 138.612 1115.21 166.711 1097.61 202.502C1097.54 202.656 1097.6 202.843 1097.76 202.921C1097.8 202.942 1097.85 202.954 1097.9 202.954H1097.9Z" fill="white"/>
</g>
<g style="mix-blend-mode:soft-light" opacity="0.7">
<path d="M1106.18 261.444C1106.31 261.444 1106.44 261.357 1106.48 261.224C1106.53 261.059 1106.44 260.883 1106.27 260.832C1085.97 254.545 1068.66 245.11 1054.81 232.791C1043.73 222.938 1034.84 211.225 1028.36 197.98C1017.34 175.43 1017.19 156.012 1017.19 155.819C1017.19 155.647 1017.05 155.507 1016.87 155.507C1016.7 155.507 1016.56 155.648 1016.56 155.821C1016.56 156.016 1016.72 175.578 1027.8 198.256C1034.31 211.575 1043.26 223.352 1054.4 233.259C1068.31 245.639 1085.7 255.117 1106.09 261.431C1106.12 261.441 1106.15 261.445 1106.18 261.445L1106.18 261.444Z" fill="white"/>
</g>
<g style="mix-blend-mode:soft-light" opacity="0.7">
<path d="M1116.6 359.405C1116.67 359.405 1116.73 359.382 1116.79 359.338C1132.67 346.757 1145.33 332.76 1154.43 317.729C1161.71 305.701 1166.74 292.991 1169.37 279.95C1173.85 257.737 1169.77 242.047 1169.73 241.891C1169.68 241.723 1169.51 241.626 1169.34 241.669C1169.18 241.713 1169.08 241.886 1169.12 242.052C1169.16 242.206 1173.21 257.781 1168.75 279.859C1164.63 300.235 1152.2 330.479 1116.4 358.845C1116.27 358.953 1116.24 359.149 1116.35 359.285C1116.41 359.363 1116.5 359.404 1116.59 359.404L1116.6 359.405Z" fill="white"/>
</g>
<g style="mix-blend-mode:soft-light" opacity="0.7">
<path d="M1070.51 95.3794C1070.63 95.3794 1070.74 95.3136 1070.79 95.2002C1070.87 95.044 1070.8 94.8566 1070.64 94.7826C1056.05 87.8906 1044.05 78.6409 1034.99 67.2901C1027.74 58.2082 1022.33 47.7682 1018.93 36.2579C1013.12 16.6472 1015.16 0.515419 1015.18 0.354302C1015.21 0.183312 1015.09 0.0254747 1014.92 0.00246448C1014.74 -0.0189131 1014.59 0.101113 1014.56 0.272087C1014.54 0.43322 1012.48 16.6752 1018.32 36.4092C1021.74 48 1027.18 58.5173 1034.49 67.665C1043.61 79.098 1055.69 88.4118 1070.37 95.3465C1070.42 95.3663 1070.46 95.3761 1070.51 95.3761L1070.51 95.3794Z" fill="white"/>
</g>
<path d="M1220.67 272.348C1212.78 260.065 1219.08 238.812 1227.34 226.182C1236.99 211.436 1245.44 214.364 1252.05 202.311C1264.36 179.873 1240.12 160.525 1250.74 136.913C1259.42 117.609 1278.92 123.214 1287.56 101.4C1293.79 85.6598 1286.64 75.1755 1296.58 63.2623C1297.43 62.2447 1306.76 51.3937 1318.68 52.801C1330.71 54.2232 1338.35 67.3019 1341.05 76.4364C1346.04 93.3229 1334.88 99.2564 1333.45 121.443C1331.5 151.652 1351.02 158.536 1344.99 180.483C1340 198.605 1325.54 198.091 1320.42 218.293C1315.66 237.054 1326.4 244.316 1321.99 256.63C1311.84 284.961 1236.78 297.399 1220.67 272.343V272.348Z" fill="url(#paint6_linear_4_2600)"/>
<path d="M1220.67 272.348C1212.78 260.065 1219.08 238.812 1227.34 226.182C1236.99 211.436 1245.44 214.364 1252.05 202.311C1264.36 179.873 1240.12 160.525 1250.74 136.913C1259.42 117.609 1278.92 123.214 1287.56 101.4C1293.79 85.6598 1286.64 75.1755 1296.58 63.2623C1297.43 62.2447 1306.76 51.3937 1318.68 52.801C1330.71 54.2232 1338.35 67.3019 1341.05 76.4364C1346.04 93.3229 1334.88 99.2564 1333.45 121.443C1331.5 151.652 1351.02 158.536 1344.99 180.483C1340 198.605 1325.54 198.091 1320.42 218.293C1315.66 237.054 1326.4 244.316 1321.99 256.63C1311.84 284.961 1236.78 297.399 1220.67 272.343V272.348Z" fill="url(#paint7_linear_4_2600)"/>
<g style="mix-blend-mode:soft-light" opacity="0.7">
<path d="M1231.47 291.716C1231.37 291.716 1231.28 291.643 1231.27 291.545C1231.25 291.434 1231.33 291.334 1231.44 291.318C1244.2 289.437 1256 284.97 1266.52 278.042C1276.49 271.478 1286.79 264.692 1291.01 252.795C1294.19 243.797 1291.97 237.357 1289.16 229.204C1286.43 221.271 1283.03 211.398 1284.05 196.056C1284.64 187.296 1285.37 176.394 1292.51 165.814C1296.66 159.652 1300.83 156.917 1304.51 154.501C1308.36 151.97 1311.41 149.969 1313.03 144.88C1315.67 136.583 1313.43 129.636 1310.83 121.593C1309.24 116.628 1307.58 111.495 1306.78 105.353C1304.53 88.0638 1311.96 69.0696 1328.86 48.8983C1328.93 48.8128 1329.06 48.8029 1329.15 48.8736C1329.23 48.9443 1329.24 49.0709 1329.17 49.1564C1312.35 69.239 1304.95 88.1295 1307.18 105.302C1307.97 111.408 1309.62 116.525 1311.22 121.472C1313.83 129.58 1316.09 136.584 1313.41 145.004C1311.75 150.228 1308.5 152.364 1304.73 154.838C1301.09 157.232 1296.95 159.945 1292.84 166.041C1285.77 176.531 1285.04 187.373 1284.46 196.085C1283.44 211.348 1286.82 221.178 1289.55 229.077C1292.38 237.304 1294.62 243.803 1291.39 252.933C1287.13 264.956 1276.77 271.781 1266.75 278.38C1256.18 285.341 1244.32 289.83 1231.5 291.719C1231.49 291.719 1231.48 291.721 1231.47 291.721L1231.47 291.716Z" fill="white"/>
</g>
<g style="mix-blend-mode:soft-light" opacity="0.7">
<path d="M1289.67 171.32C1289.59 171.32 1289.52 171.279 1289.49 171.209C1278.2 148.241 1275.83 130.198 1275.84 119.107C1275.84 107.074 1278.56 100.383 1278.59 100.315C1278.63 100.213 1278.75 100.164 1278.85 100.207C1278.95 100.25 1279 100.366 1278.96 100.468C1278.93 100.534 1276.24 107.171 1276.24 119.134C1276.24 130.177 1278.6 148.144 1289.85 171.029C1289.9 171.128 1289.85 171.248 1289.76 171.297C1289.73 171.312 1289.7 171.319 1289.67 171.319L1289.67 171.32Z" fill="white"/>
</g>
<g style="mix-blend-mode:soft-light" opacity="0.7">
<path d="M1284.37 208.722C1284.28 208.722 1284.21 208.666 1284.18 208.581C1284.15 208.475 1284.21 208.364 1284.31 208.331C1297.29 204.311 1308.36 198.277 1317.22 190.4C1324.3 184.1 1329.99 176.611 1334.13 168.141C1341.18 153.722 1341.28 141.304 1341.28 141.181C1341.28 141.071 1341.37 140.98 1341.48 140.98C1341.59 140.98 1341.68 141.071 1341.68 141.181C1341.68 141.306 1341.58 153.814 1334.49 168.315C1330.33 176.832 1324.61 184.361 1317.49 190.698C1308.59 198.614 1297.47 204.674 1284.43 208.712C1284.41 208.719 1284.39 208.722 1284.37 208.722H1284.37Z" fill="white"/>
</g>
<g style="mix-blend-mode:soft-light" opacity="0.7">
<path d="M1277.71 271.361C1277.67 271.361 1277.62 271.347 1277.58 271.319C1267.43 263.274 1259.34 254.324 1253.52 244.712C1248.86 237.021 1245.65 228.893 1243.96 220.554C1241.1 206.349 1243.71 196.317 1243.74 196.218C1243.76 196.111 1243.87 196.049 1243.98 196.077C1244.09 196.105 1244.15 196.215 1244.12 196.322C1244.1 196.421 1241.5 206.381 1244.36 220.498C1247 233.528 1254.94 252.866 1277.83 271.005C1277.92 271.074 1277.93 271.199 1277.87 271.286C1277.83 271.335 1277.77 271.361 1277.71 271.361Z" fill="white"/>
</g>
<g style="mix-blend-mode:soft-light" opacity="0.7">
<path d="M1307.18 102.535C1307.1 102.535 1307.03 102.492 1307 102.42C1306.95 102.32 1306.99 102.201 1307.09 102.154C1316.42 97.7473 1324.1 91.8319 1329.89 84.5732C1334.53 78.7663 1337.98 72.0913 1340.16 64.7307C1343.87 52.1912 1342.57 41.8762 1342.55 41.7726C1342.54 41.6625 1342.62 41.5622 1342.73 41.5474C1342.84 41.5342 1342.94 41.6099 1342.95 41.72C1342.97 41.8236 1344.28 52.2093 1340.55 64.8277C1338.36 72.2393 1334.88 78.9652 1330.21 84.8149C1324.38 92.1262 1316.66 98.0811 1307.27 102.515C1307.24 102.528 1307.21 102.535 1307.18 102.535H1307.18Z" fill="white"/>
</g>
<path d="M1264.55 51.4229L1061.32 44.5441C1056.68 44.3862 1052.9 47.9868 1052.9 52.5853V421.753C1052.9 426.351 1056.68 429.865 1061.32 429.6L1264.55 418.043C1268.75 417.805 1272.15 414.076 1272.15 409.714V59.5776C1272.15 55.2158 1268.75 51.5659 1264.55 51.4229Z" fill="#D8DEE8"/>
<g style="mix-blend-mode:multiply" opacity="0.3">
<path d="M1181.17 324.025C1177.71 281.813 1203.64 264.39 1193.75 226.147C1181.53 178.874 1134.52 176.849 1118.51 130.492C1112.38 112.731 1109.96 85.8781 1127.51 46.7849L1061.32 44.5441C1056.68 44.3862 1052.9 47.9868 1052.9 52.5853V421.753C1052.9 426.351 1056.68 429.865 1061.32 429.6L1242.53 419.295C1196.43 383.597 1183.29 349.97 1181.17 324.025Z" fill="#D8DEE8"/>
</g>
<path d="M1264.55 56.0842L1061.32 49.4404C1059.42 49.3779 1057.87 50.8592 1057.87 52.7434V421.48C1057.87 423.364 1059.42 424.809 1061.32 424.704L1264.55 413.381C1266.28 413.286 1267.68 411.75 1267.68 409.96V59.4348C1267.68 57.6444 1266.28 56.1417 1264.55 56.0842Z" fill="url(#paint8_linear_4_2600)"/>
<path d="M1226.17 335.231L1102.85 339.675C1099.94 339.78 1097.58 342.223 1097.58 345.131C1097.58 348.04 1099.94 350.307 1102.85 350.193L1226.17 345.442C1228.91 345.337 1231.13 342.968 1231.13 340.151C1231.13 337.335 1228.91 335.132 1226.17 335.231Z" fill="#D8DEE8"/>
<path d="M1226.17 353.419L1102.85 358.412C1099.94 358.531 1097.58 360.984 1097.58 363.892C1097.58 366.801 1099.94 369.056 1102.85 368.931L1226.17 363.629C1228.91 363.511 1231.13 361.133 1231.13 358.317C1231.13 355.501 1228.91 353.308 1226.17 353.419Z" fill="#D8DEE8"/>
<path d="M1226.17 371.607L1102.85 377.149C1099.94 377.28 1097.58 379.743 1097.58 382.651C1097.58 385.56 1099.94 387.806 1102.85 387.668L1226.17 381.816C1228.91 381.686 1231.13 379.297 1231.13 376.483C1231.13 373.666 1228.91 371.483 1226.17 371.607Z" fill="#D8DEE8"/>
<path d="M1162.22 70.8461L1100.19 69.0885C1098.75 69.0474 1097.58 70.1818 1097.58 71.6204C1097.58 73.0606 1098.75 74.2592 1100.19 74.297L1162.22 75.9772C1163.62 76.0151 1164.75 74.897 1164.75 73.4815C1164.75 72.0643 1163.62 70.8838 1162.22 70.8444V70.8461Z" fill="#D8DEE8"/>
<path d="M1162.22 79.989L1100.19 78.3696C1098.75 78.3317 1097.58 79.4678 1097.58 80.908C1097.58 82.3483 1098.75 83.5435 1100.19 83.5797L1162.22 85.1235C1163.62 85.158 1164.75 84.0384 1164.75 82.6212C1164.75 81.204 1163.62 80.0268 1162.22 79.9906V79.989Z" fill="#D8DEE8"/>
<path d="M1162.22 89.1317L1100.19 87.6487C1098.75 87.6142 1097.58 88.7535 1097.58 90.192C1097.58 91.6324 1098.75 92.8243 1100.19 92.8571L1162.22 94.2629C1163.62 94.2941 1164.75 93.1712 1164.75 91.7556C1164.75 90.3384 1163.62 89.1629 1162.22 89.13V89.1317Z" fill="#D8DEE8"/>
<path d="M1138.32 187.336C1142.35 179.718 1149.89 174.305 1158.72 173.296L1159.34 135.648C1134.16 136.306 1112.48 151.826 1102.77 174.073L1138.32 187.336Z" fill="url(#paint9_linear_4_2600)"/>
<path d="M1187.69 204.458C1185.55 216.966 1174.81 226.566 1161.81 226.686C1157.97 226.722 1154.31 225.925 1151.01 224.462L1131.28 256.891C1140.4 261.735 1150.81 264.38 1161.81 264.179C1194.54 263.58 1221.05 237.969 1224.04 205.832L1187.7 204.46L1187.69 204.458Z" fill="url(#paint10_linear_4_2600)"/>
<path d="M1125.18 253.199L1144.97 220.741C1139.01 215.848 1135.2 208.376 1135.2 199.981C1135.2 197.953 1135.42 195.976 1135.84 194.076L1100.24 180.864C1098.37 186.939 1097.36 193.395 1097.36 200.088C1097.36 222.25 1108.41 241.693 1125.18 253.199Z" fill="url(#paint11_linear_4_2600)"/>
<path d="M1165.77 173.439C1177.64 175.289 1186.87 185.148 1187.98 197.367L1248.12 199.744C1248.12 199.718 1248.12 199.69 1248.12 199.664C1248.12 153.047 1212.53 114.314 1166.79 110.873L1165.77 173.439H1165.77Z" fill="url(#paint12_linear_4_2600)"/>
<g style="mix-blend-mode:soft-light" opacity="0.35">
<path d="M1181.63 324.01C1178.18 281.803 1204.1 264.382 1194.22 226.142C1182 178.874 1135 176.849 1118.99 130.497C1113.11 113.471 1110.64 88.0862 1125.93 51.5512L1061.82 49.455C1059.91 49.3926 1058.36 50.8739 1058.36 52.758V421.453C1058.36 423.337 1059.91 424.783 1061.82 424.677L1237.48 414.89C1195.83 380.811 1183.67 348.878 1181.63 324.01Z" fill="white"/>
</g>
<g style="mix-blend-mode:multiply" opacity="0.3">
<path d="M1119.15 146.545L988.851 145.248C985.905 145.218 983.513 142.872 983.513 140.005V90.4456C983.513 87.5799 985.905 85.3128 988.851 85.3834L1102.29 88.0847C1105.08 88.1504 1107.34 90.462 1107.34 93.2454V135.841L1119.15 146.544V146.545Z" fill="url(#paint13_linear_4_2600)"/>
</g>
<path opacity="0.67" d="M1089.03 105.995L1002.74 104.313V98.3716L1089.03 100.174V105.995Z" fill="white"/>
<path opacity="0.67" d="M1089.03 117.641L1002.74 116.197V110.255L1089.03 111.819V117.641Z" fill="white"/>
<path opacity="0.67" d="M1089.03 129.286L1002.74 128.079V122.137L1089.03 123.462V129.286Z" fill="white"/>
<g style="mix-blend-mode:multiply" opacity="0.3">
<path d="M1162.46 277.281L1250.33 275.393C1252.62 275.343 1254.47 277.222 1254.47 279.588V320.501C1254.47 322.867 1252.62 324.849 1250.33 324.926L1157.71 328.048C1155.32 328.128 1153.37 326.228 1153.37 323.803V270.322L1162.46 277.283L1162.46 277.281Z" fill="url(#paint14_linear_4_2600)"/>
</g>
<path opacity="0.67" d="M1169.02 311.918L1239.47 309.812V314.757L1169.02 316.948V311.918Z" fill="white"/>
<path opacity="0.67" d="M1169.02 301.858L1239.47 299.921V304.866L1169.02 306.887V301.858Z" fill="white"/>
<path opacity="0.67" d="M1169.02 291.795L1239.47 290.031V294.977L1169.02 296.826V291.795Z" fill="white"/>
<ellipse cx="1044.18" cy="429.472" rx="27.476" ry="11.2143" fill="#B7C0CE"/>
<path d="M1016.7 428.157C1016.7 434.003 1029 438.743 1044.18 438.743C1059.35 438.743 1071.65 434.003 1071.65 428.157C1071.65 422.31 1059.35 412.745 1044.18 412.745C1029 412.745 1016.7 422.31 1016.7 428.157Z" fill="#EBEFF2"/>
<g style="mix-blend-mode:multiply" opacity="0.3">
<path d="M1016.7 428.157C1016.7 422.31 1029 412.745 1044.18 412.745C1051.18 412.745 1057.57 414.787 1062.43 417.557C1062.77 418.269 1062.92 418.976 1062.86 419.648C1062.54 422.938 1057.18 424.96 1054.1 425.626C1046.35 427.307 1042.56 422.669 1036.17 422.846C1032.21 422.955 1026.73 424.941 1020.24 433.352C1017.99 431.817 1016.7 430.046 1016.7 428.157Z" fill="#EBEFF2"/>
</g>
<path d="M1042.67 420.072C1043.77 420.344 1044.79 420.334 1045.76 420.089C1046.63 419.868 1047.23 419.059 1047.23 418.156V379.36H1041.12V418.118C1041.12 419.049 1041.77 419.845 1042.67 420.07L1042.67 420.072Z" fill="#D8DEE8"/>
<path d="M1075.94 368.052L1066.6 362.151C1066.22 359.947 1066.09 282.202 1048.23 274.962C1040.97 272.017 1021.99 275.577 1017.7 275.767C1009.13 276.151 1003.02 276.423 1000.09 280.507C996.314 285.754 1009.53 341.985 1008.22 356.991C1007.68 363.11 1006.32 365.826 1008.02 369.88C1010.04 374.735 1014.75 377.427 1018.4 378.942C1022.77 381.479 1030.38 385.096 1040.43 385.976C1057.35 387.459 1069.99 380.199 1074.34 377.42C1076.27 376.81 1077.72 375.204 1078.13 373.219C1078.55 371.207 1077.67 369.149 1075.94 368.05L1075.94 368.052Z" fill="url(#paint15_linear_4_2600)"/>
<path d="M1015.81 277.002C1009.48 277.189 1005.55 277.115 1003.37 279.943C1001.08 282.913 1010.28 336.918 1010.71 347.487C1011.1 357.123 1009.4 360.933 1012.51 366.273C1012.51 366.273 1014.09 368.985 1016.59 371.024C1025.42 378.227 1048.19 378.14 1057.78 363.103C1065.42 351.106 1055.35 281.949 1046.37 276.098C1041.97 273.23 1040.95 276.259 1015.82 277.003L1015.81 277.002Z" fill="url(#paint16_linear_4_2600)"/>
<path d="M1076.62 362.753L1067.28 356.852C1067.28 356.852 1042.28 348.634 1019.15 360.223C1016.56 361.52 1014.95 364.2 1014.95 367.098C1014.95 369.321 1016.28 371.327 1018.33 372.185C1022.37 374.941 1030.25 379.488 1041.11 380.68C1058.37 382.573 1071.22 374.666 1075.01 372.124C1076.95 371.515 1078.4 369.908 1078.81 367.924C1079.23 365.912 1078.35 363.853 1076.61 362.755L1076.62 362.753Z" fill="url(#paint17_linear_4_2600)"/>
<path d="M1117.3 436.005L1109.33 431.216H1105.73C1105.73 431.216 1104.51 435.776 1104.65 436.005C1106.25 438.63 1113.71 440.628 1118.37 440.794C1119.14 440.822 1120.22 440.826 1120.5 440.265C1120.97 439.316 1118.86 437.325 1117.3 436.005Z" fill="url(#paint18_linear_4_2600)"/>
<path d="M1109.19 425.991C1109.18 428.781 1109.3 430.749 1109.99 431.615C1110.49 432.225 1105.76 433.597 1105.73 431.216C1105.72 429.649 1105.47 426.963 1105.22 426.175C1106.55 426.114 1107.87 426.052 1109.19 425.991Z" fill="url(#paint19_linear_4_2600)"/>
<path d="M1087.66 442.738L1079.69 437.949H1076.09C1076.09 437.949 1074.87 442.51 1075.01 442.738C1076.61 445.364 1084.07 447.362 1088.73 447.528C1089.5 447.556 1090.58 447.559 1090.86 446.998C1091.33 446.05 1089.22 444.059 1087.66 442.738Z" fill="url(#paint20_linear_4_2600)"/>
<path d="M1079.55 432.724C1079.54 435.514 1079.66 437.482 1080.35 438.348C1080.85 438.958 1076.12 440.33 1076.09 437.951C1076.08 436.384 1075.83 433.697 1075.58 432.91C1076.91 432.849 1078.23 432.787 1079.55 432.726L1079.55 432.724Z" fill="url(#paint21_linear_4_2600)"/>
<path d="M1109.51 428.308C1111.77 414.699 1109.57 400.164 1109.05 392.347C1108.24 379.914 1107.83 373.698 1104.23 368.476C1099.52 361.637 1089.88 354.799 1081.73 349.02C1081.03 348.52 1079.61 347.535 1077.86 345.968C1073.47 342.064 1070.69 337.957 1069.01 335.063C1050.57 329.652 1033.55 331.846 1026.05 341.736C1025.18 342.879 1023.01 345.358 1022.59 349.015C1021.64 357.263 1029.74 367.192 1038.84 369.267C1050.4 371.902 1057.1 360.035 1067.34 363.984C1068.36 364.379 1071.38 367.414 1077.49 373.3C1081.93 377.574 1084.15 379.712 1084.85 380.56C1091.4 388.422 1095.3 400.524 1095.77 409.892C1095.85 411.555 1095.92 415.035 1097.93 418.764C1099.46 421.618 1103.67 426.808 1105.22 427.984C1106.65 428.091 1108.08 428.199 1109.51 428.308H1109.51Z" fill="url(#paint22_linear_4_2600)"/>
<path d="M1075 435.027C1075 435.027 1078.94 436.89 1081.87 435.027C1081.78 430.094 1081.77 422.373 1082.4 412.929C1083.78 392.261 1086.71 386.012 1084.11 377.185C1082.24 370.816 1077.2 362.138 1062.35 354.025L1024.64 350.326C1024.64 350.326 1022.86 353.221 1023.3 357.228C1024.09 364.564 1032.52 369.06 1039.57 372.738C1053.49 379.998 1056.44 376.659 1060.97 381.552C1067.1 388.166 1063.28 395.948 1066.63 412.306C1068.65 422.189 1072.21 429.916 1075 435.028V435.027Z" fill="url(#paint23_linear_4_2600)"/>
<path d="M1079.89 338.897C1085.06 338.45 1092.88 314.002 1082.03 298.214C1074.05 286.587 1057.4 281.788 1054.5 285.315C1052.81 287.362 1056.28 291.572 1062.7 303.661C1075.87 328.46 1076.41 339.198 1079.89 338.897H1079.89Z" fill="url(#paint24_linear_4_2600)"/>
<path d="M1022.52 286.456C1027.18 284.961 1034.28 283.21 1042.98 283.107C1052.74 282.992 1060.54 282.899 1065.9 287.01C1078.87 296.94 1064.35 321.448 1071.8 339.233C1072.62 341.176 1074.98 347.34 1072.93 354.118C1072.55 355.368 1071.76 356.466 1070.42 358.325C1062.55 369.267 1040.25 370.913 1029.95 361.918C1024.49 357.145 1019.56 358.204 1019.43 352.555C1018.91 330.251 1022.74 307.919 1022.52 286.454L1022.52 286.456Z" fill="url(#paint25_linear_4_2600)"/>
<g style="mix-blend-mode:multiply" opacity="0.3">
<path d="M1032.35 314.719C1030.47 310.104 1032.41 304.743 1028.23 302.49C1026.7 301.663 1022.94 299.338 1022.7 301.41C1021.18 315.12 1019.82 329.268 1020.26 346.356C1020.4 351.999 1024.68 357.141 1030.72 361.896C1037.7 367.386 1049.66 368.844 1059.87 366.638C1046.49 359.58 1036.89 352.088 1038.27 345.367C1039.87 337.546 1055.49 334.854 1054.87 329.363C1054.2 323.541 1036.44 324.796 1032.35 314.721L1032.35 314.719Z" fill="url(#paint26_linear_4_2600)"/>
</g>
<path d="M1043.9 270.957C1043.93 274.25 1043.52 276.867 1043.14 278.659C1042.7 280.715 1042.39 281.247 1041.98 281.683C1041.38 282.337 1040.46 282.892 1035.25 284.126C1032.4 284.799 1032.04 284.787 1031.98 285.044C1031.67 286.295 1039.41 290.439 1047.37 289.309C1052.23 288.62 1056.64 286.042 1056.37 284.723C1056.1 283.395 1051.25 284.169 1049.81 281.775C1048.8 280.108 1049.93 277.714 1051.26 275.728C1049.97 273.54 1045.19 273.152 1043.9 270.959V270.957Z" fill="url(#paint27_linear_4_2600)"/>
<path d="M1054.1 275.044C1055.59 273.953 1056.32 271.625 1055.47 269.85C1054.74 268.325 1053.06 267.746 1052.06 267.399C1049.14 266.395 1045.02 266.669 1042.98 268.892C1041.77 270.211 1042.57 273.709 1042.68 274.329C1042.8 275.029 1043.28 275.371 1043.65 275.963C1044.16 276.785 1044.95 278.087 1046.23 280.253C1046.51 279.764 1046.91 279.168 1047.44 278.544C1047.65 278.304 1048.46 277.374 1049.49 276.68C1051.56 275.292 1052.68 276.078 1054.09 275.042L1054.1 275.044Z" fill="url(#paint28_linear_4_2600)"/>
<path d="M1044.11 278.196C1044.11 278.196 1045.24 281.604 1049.25 282.257C1052.82 282.84 1055.39 275.758 1053.58 273.721C1052.98 273.04 1051.54 272.488 1050.23 272.52C1049.45 272.54 1049.13 272.759 1047.86 272.769C1046.7 272.779 1046.42 272.598 1046.01 272.775C1045.51 272.999 1044.99 273.707 1045.07 275.973C1044.58 275.199 1043.84 274.778 1043.2 274.894C1043.09 274.913 1042.81 275.008 1042.6 275.205C1041.87 275.917 1042.4 277.158 1044.11 278.194L1044.11 278.196Z" fill="url(#paint29_linear_4_2600)"/>
<path d="M1045.98 272.31C1046.12 272.465 1045.43 272.925 1045.16 273.734C1044.63 275.308 1045.85 277.616 1047.6 278.184C1048.64 278.52 1049.1 278.002 1050.9 278.231C1052.02 278.372 1052.88 278.702 1053.42 278.944C1053.47 280.808 1052.46 282.428 1050.96 282.947C1049.34 283.506 1047.73 282.584 1047.06 282.199C1046.61 281.941 1045.17 281.118 1044.72 279.613C1044.26 278.046 1045.33 277.409 1044.62 276.257C1044.25 275.677 1043.66 275.326 1043.28 274.275C1043.18 273.989 1043.13 273.745 1043.1 273.583C1044.26 272.91 1045.78 272.088 1045.98 272.312L1045.98 272.31Z" fill="url(#paint30_linear_4_2600)"/>
<path d="M1051.96 279.3C1051.96 279.3 1051.1 279.491 1049.8 279.126C1049.74 279.108 1049.66 279.11 1049.65 279.138C1049.59 279.244 1050.28 279.945 1051.11 279.922C1051.71 279.906 1052.27 279.526 1052.23 279.387C1052.21 279.33 1052.09 279.309 1051.96 279.3Z" fill="url(#paint31_linear_4_2600)"/>
<path d="M1146.92 436.959C1146.9 436.959 1146.89 436.959 1146.87 436.957C1146.54 436.931 1146.28 436.655 1146.28 436.323V334.167C1146.28 333.815 1146.57 333.531 1146.92 333.531C1147.27 333.531 1147.56 333.815 1147.56 334.167V428.059L1161.77 336.283C1161.83 335.936 1162.15 335.698 1162.5 335.752C1162.85 335.806 1163.08 336.132 1163.03 336.479L1147.55 436.421C1147.5 436.734 1147.23 436.96 1146.92 436.96L1146.92 436.959Z" fill="#B7C0CE"/>
<path opacity="0.81" d="M974.286 347.031L1144.13 333.952L1227.54 341.317L1108.2 358.758L974.286 347.031Z" fill="#F4F7FA"/>
<path d="M1108.2 358.758L974.286 347.029V352.694L1108.2 364.421L1227.54 346.981V341.317L1108.2 358.758Z" fill="#B7C0CE"/>
<path d="M1107.05 471.815C1106.73 471.815 1106.46 471.582 1106.42 471.264L1091.69 362.572C1091.65 362.224 1091.89 361.903 1092.24 361.857C1092.59 361.809 1092.91 362.054 1092.95 362.401L1106.41 461.742V362.486C1106.41 362.135 1106.69 361.85 1107.05 361.85C1107.4 361.85 1107.68 362.135 1107.68 362.486V471.179C1107.68 471.514 1107.42 471.791 1107.09 471.813C1107.07 471.813 1107.06 471.813 1107.05 471.813L1107.05 471.815Z" fill="#B7C0CE"/>
<path d="M1225.68 448.778C1225.36 448.778 1225.09 448.545 1225.05 448.227L1211.4 348.372C1211.35 348.023 1211.6 347.703 1211.95 347.655C1212.29 347.606 1212.62 347.851 1212.66 348.199L1225.04 438.785V344.333C1225.04 343.981 1225.33 343.696 1225.68 343.696C1226.03 343.696 1226.31 343.981 1226.31 344.333V448.14C1226.31 448.476 1226.05 448.752 1225.72 448.775C1225.71 448.775 1225.69 448.777 1225.68 448.777L1225.68 448.778Z" fill="#B7C0CE"/>
<path d="M975.896 451.836C975.881 451.836 975.865 451.836 975.848 451.835C975.516 451.81 975.258 451.534 975.258 451.2V352.694C975.258 352.343 975.542 352.058 975.894 352.058C976.246 352.058 976.531 352.343 976.531 352.694V442.503L989.754 352.602C989.805 352.255 990.129 352.012 990.476 352.066C990.823 352.117 991.064 352.441 991.012 352.788L976.524 451.294C976.478 451.608 976.208 451.838 975.896 451.838L975.896 451.836Z" fill="#B7C0CE"/>
<path d="M1036.42 345.102C1037.47 343.928 1038.52 342.754 1039.57 341.58C1031.39 330.841 1024.89 326.188 1020.29 323.969C1017.14 322.45 1017.27 321.466 1017.14 321.095C1016.36 318.861 1024.94 309.054 1027.18 306.08C1031.3 300.605 1035.2 291.263 1032.17 287.513C1029.01 283.608 1018.94 286.52 1013.6 289.109C1008.88 291.401 1005.76 294.451 1004.14 296.274C999.122 301.925 989.46 317.134 995.633 330.836C1001.37 343.565 1018.95 350.96 1036.42 345.102Z" fill="url(#paint32_linear_4_2600)"/>
<path d="M1059.51 345.005V343.552L1122.06 340.182V341.622L1077.86 345.97L1059.51 345.005Z" fill="url(#paint33_linear_4_2600)"/>
<path d="M1059.51 343.552L1078.91 343.8L1122.06 340.181L1110 339.441L1059.51 343.552Z" fill="url(#paint34_linear_4_2600)"/>
<path d="M1067.8 338.54L1085.4 283.495C1085.68 282.626 1086.66 281.998 1087.78 281.977L1164.82 280.563C1165.47 280.552 1166.61 281.03 1167.01 281.445C1167.41 281.859 1167.96 281.934 1167.81 282.47L1153.44 330.91C1153.2 331.717 1152.35 332.341 1151.35 332.433L1069.21 339.959L1067.8 338.539L1067.8 338.54Z" fill="url(#paint35_linear_4_2600)"/>
<path d="M1069.21 339.961L1087.05 284.542C1087.33 283.676 1088.32 283.049 1089.44 283.028L1166.31 281.564C1166.96 281.551 1167.57 281.785 1167.97 282.199C1168.37 282.613 1168.51 283.163 1168.36 283.699L1154.93 331.808C1154.7 332.637 1153.82 333.278 1152.8 333.358L1069.21 339.959L1069.21 339.961Z" fill="url(#paint36_linear_4_2600)"/>
<g style="mix-blend-mode:multiply" opacity="0.3">
<path d="M1069.21 339.961L1152.8 333.36C1153.82 333.279 1154.7 332.638 1154.94 331.81L1158.99 317.286C1133.51 326.192 1103.25 325.215 1073.23 327.474L1069.21 339.961Z" fill="url(#paint37_linear_4_2600)"/>
</g>
<path d="M1118.34 349.232L1115.17 350.327C1115.17 350.327 1098.5 347.197 1097.78 346.685C1097.66 346.605 1097.26 345.829 1098.01 345.7C1101.94 345.025 1116.3 344.526 1116.3 344.526L1117.62 344.601L1118.34 349.233V349.232Z" fill="url(#paint38_linear_4_2600)"/>
<path d="M1118.57 348.259L1115.4 349.352C1115.4 349.352 1098.73 346.213 1098.01 345.702C1097.28 345.19 1116.53 343.555 1116.53 343.555L1117.84 343.634L1118.57 348.262V348.259Z" fill="url(#paint39_linear_4_2600)"/>
<path d="M1132.35 309.973C1132.35 309.973 1140.44 344.773 1140.68 346.81C1140.9 348.689 1121.02 350.532 1116.25 350.695C1115.86 350.708 1115.33 350.435 1115.17 350.325C1113.85 350.174 1120.02 310.473 1120.02 310.473L1120.48 310.489L1132.35 309.971L1132.35 309.973Z" fill="url(#paint40_linear_4_2600)"/>
<path d="M1132.35 309.973C1132.35 309.973 1141.55 345.127 1141.79 347.162C1142.03 349.196 1118.39 350.749 1116.32 350.68C1115 350.529 1120.48 310.491 1120.48 310.491L1132.35 309.973Z" fill="url(#paint41_linear_4_2600)"/>
<path d="M1039.57 343.552C1039.57 343.552 1044.82 341.15 1047.85 341.365C1050.88 341.579 1055.14 344.338 1055.88 345.97C1056.62 347.604 1045.63 347.425 1045.63 347.425C1045.63 347.425 1032.52 346.914 1039.57 343.552Z" fill="url(#paint42_linear_4_2600)"/>
<path d="M1036.85 340.745C1039.78 337.021 1046.76 339.297 1047.16 339.432C1048.82 339.999 1051.06 341.15 1050.91 341.884C1050.75 342.597 1048.5 342.225 1044.79 342.853C1039.36 343.77 1036.95 345.784 1035.99 344.76C1035.26 343.976 1035.89 341.968 1036.85 340.747L1036.85 340.745Z" fill="url(#paint43_linear_4_2600)"/>
<path d="M1302.88 432.089C1303.97 433.817 1303.8 434.627 1303.61 434.994C1303.06 436.072 1301.4 435.283 1297.35 436.196C1296.87 436.303 1295.97 436.523 1294.8 436.373C1293.79 436.245 1292.58 435.844 1292.61 435.576C1292.61 435.479 1292.78 435.421 1292.85 435.402C1293.96 435.04 1300.85 432.112 1300.85 432.112L1302.88 432.089Z" fill="url(#paint44_linear_4_2600)"/>
<path d="M1303.01 428.026L1302.8 432.166C1302.8 432.166 1301.18 433.585 1300.56 432.133C1300.12 431.088 1299.83 428.176 1299.83 428.176L1303.01 428.026Z" fill="url(#paint45_linear_4_2600)"/>
<path d="M1282.56 432.202L1284.77 436.712L1287.23 436.053L1286.19 431.771L1282.56 432.202Z" fill="url(#paint46_linear_4_2600)"/>
<path d="M1285.82 439.213C1286.88 437.653 1287.97 437.671 1288.09 436.663C1288.18 435.87 1287.6 434.971 1286.85 434.685C1285.79 434.284 1284.66 435.203 1284.4 435.41C1282.66 436.821 1283.37 438.667 1281.69 439.674C1281.35 439.875 1280.81 440.111 1280.27 440.727C1280.05 440.988 1279.49 441.638 1279.67 442.024C1279.89 442.471 1281 442.34 1282.06 442.214C1283.32 442.062 1283.95 441.988 1284.52 441.544C1285.31 440.929 1285 440.416 1285.82 439.211V439.213Z" fill="url(#paint47_linear_4_2600)"/>
<path d="M1306.18 329.215C1306.71 338.736 1306.2 346.964 1305.34 353.718C1304.42 360.983 1303.65 362.291 1303.59 367.266C1303.45 378.094 1307.04 379.344 1308.68 391.435C1310.5 404.785 1307.82 415.738 1306.75 419.921C1305.82 423.576 1304.77 426.553 1303.98 428.626C1302.83 429.8 1300.92 429.543 1298.91 429.305C1297.17 417.203 1295.31 405.833 1293.57 393.732C1289.7 375.631 1285.83 357.531 1281.96 339.429C1290.03 336.024 1298.1 332.62 1306.18 329.215Z" fill="url(#paint48_linear_4_2600)"/>
<g style="mix-blend-mode:multiply" opacity="0.3">
<path d="M1298.91 429.305C1297.17 417.203 1295.31 405.833 1293.57 393.732C1289.7 375.631 1285.83 357.531 1281.96 339.429C1290.03 336.024 1298.11 332.62 1306.18 329.215C1306.22 329.846 1306.24 330.454 1306.26 331.074C1295.46 342.152 1293.84 350.351 1294.41 355.806C1295.1 362.422 1298.99 365.406 1299.08 375.073C1299.15 381.985 1297.18 383.368 1297.69 389.566C1298.36 397.55 1302.16 401.753 1304.21 406.229C1306.19 410.554 1307.29 416.822 1304.91 426.061C1304.58 427.023 1304.26 427.885 1303.98 428.626C1302.84 429.8 1300.92 429.545 1298.91 429.305L1298.91 429.305Z" fill="url(#paint49_linear_4_2600)"/>
</g>
<path d="M1292.25 339.583C1287 350.393 1284.28 358.782 1282.86 363.943C1281.99 367.092 1281.23 370.358 1281.34 374.551C1281.47 379.687 1282.84 383.803 1283.94 386.421C1285.51 389.76 1287.01 393.683 1288.11 398.163C1291.69 412.692 1289.26 425.301 1287.15 432.61C1285.72 433.278 1284.29 433.947 1282.86 434.616C1278.75 425.546 1273.55 412.626 1269.26 396.519C1266.91 387.722 1265.11 380.82 1264.36 371.924C1263.57 362.541 1263.67 347.588 1269.88 329.218C1277.33 332.673 1284.79 336.128 1292.25 339.583Z" fill="url(#paint50_linear_4_2600)"/>
<path d="M1282.1 258.641C1272.86 261.03 1265.85 263.298 1263.07 268.476C1260.13 273.944 1265.81 277.406 1268.21 288.672C1271.89 305.918 1262.4 313.259 1266.74 330.571C1268.2 336.405 1270.59 340.811 1272.2 343.415C1275.44 345.636 1280.54 348.61 1287.26 350.355C1297.05 352.893 1301.58 350.57 1314.44 350.241C1335.47 349.702 1339.11 355.514 1348.26 350.996C1357.5 346.43 1363.57 335.661 1361.18 331.474C1359.75 328.965 1356.06 330.912 1350.3 328.164C1342.88 324.623 1343.6 318.89 1337.46 314.533C1328.64 308.274 1321.28 315.944 1313.73 310.492C1306.08 304.976 1304 290.197 1306.3 281.106C1307.8 275.167 1307.32 268.885 1308.3 262.838C1308.38 262.335 1308.41 261.543 1308.03 260.678C1306.58 257.37 1300.3 257.232 1295.55 257.173C1288.31 257.082 1282.87 258.448 1282.1 258.644L1282.1 258.641Z" fill="url(#paint51_linear_4_2600)"/>
<g style="mix-blend-mode:multiply" opacity="0.3">
<path d="M1346.61 344.476C1343.55 342.784 1344.67 337.179 1340.13 334.629C1335.93 332.262 1333.11 336.048 1327.09 334.734C1319.37 333.049 1319.16 325.767 1311.75 324.051C1306.43 322.818 1305.13 326.259 1297.66 327.023C1290.2 327.786 1280.15 325.514 1273.29 318.108C1270.38 314.961 1268.6 311.492 1267.53 308.238C1266.07 314.859 1264.41 321.279 1266.74 330.572C1268.2 336.405 1270.59 340.811 1272.2 343.415C1275.44 345.636 1280.54 348.61 1287.26 350.355C1297.05 352.893 1301.58 350.57 1314.44 350.241C1335.47 349.702 1339.11 355.514 1348.26 350.996C1354.16 348.078 1358.76 342.631 1360.7 337.983C1352.93 344.686 1348.83 345.704 1346.61 344.477V344.476Z" fill="url(#paint52_linear_4_2600)"/>
</g>
<path d="M1275.34 242.856C1275.34 242.856 1273.16 247.923 1273.28 251.341C1273.39 254.759 1277.22 254.193 1277.22 254.193L1277.25 256.354C1277.28 258.199 1276.22 259.885 1274.55 260.663L1273.08 261.347C1273.08 261.347 1283.15 262.646 1288.24 258.379L1286.67 258.356C1284.45 258.323 1282.55 256.727 1282.15 254.542L1281.98 253.631C1281.98 253.631 1282.81 242.876 1275.34 242.858V242.856Z" fill="url(#paint53_linear_4_2600)"/>
<path d="M1265.25 298.165L1250.19 272.186C1250 271.866 1249.63 271.705 1249.27 271.789L1228.2 276.713C1227.63 276.844 1227.37 277.49 1227.67 277.98L1245.15 305.923C1245.36 306.26 1245.77 306.403 1246.15 306.269L1264.67 299.58L1265.25 298.163V298.165Z" fill="url(#paint54_linear_4_2600)"/>
<path d="M1261.54 295.217L1249.35 274.182C1249.2 273.922 1248.89 273.793 1248.6 273.86L1231.54 277.847C1231.09 277.954 1230.87 278.477 1231.12 278.873L1245.27 301.499C1245.44 301.772 1245.78 301.888 1246.08 301.778L1261.07 296.363L1261.54 295.215V295.217Z" fill="url(#paint55_linear_4_2600)"/>
<path d="M1245.75 274.424L1244.78 272.737C1244.65 272.502 1244.37 272.384 1244.11 272.443L1235.33 274.416C1234.93 274.508 1234.73 274.97 1234.94 275.33L1236.02 277.164C1236.15 277.4 1236.43 277.517 1236.69 277.452L1245.36 275.331C1245.76 275.234 1245.95 274.782 1245.75 274.425L1245.75 274.424Z" fill="url(#paint56_linear_4_2600)"/>
<path d="M1234.25 281.657C1234.27 281.655 1234.28 281.652 1234.3 281.648L1249.75 278.002C1249.94 277.958 1250.05 277.765 1250.01 277.574C1249.96 277.382 1249.77 277.267 1249.58 277.31L1234.13 280.956C1233.94 281.001 1233.82 281.193 1233.87 281.384C1233.91 281.563 1234.08 281.677 1234.26 281.655L1234.25 281.657Z" fill="white"/>
<path d="M1235.22 283.154C1235.24 283.152 1235.25 283.149 1235.27 283.146L1250.62 279.356C1250.81 279.31 1250.93 279.116 1250.88 278.926C1250.84 278.735 1250.64 278.62 1250.45 278.666L1235.1 282.456C1234.91 282.501 1234.79 282.695 1234.84 282.886C1234.88 283.062 1235.05 283.174 1235.22 283.154Z" fill="white"/>
<path d="M1243.32 284.821C1243.34 284.82 1243.36 284.816 1243.38 284.812L1251.72 282.508C1251.92 282.455 1252.03 282.26 1251.97 282.071C1251.92 281.882 1251.72 281.77 1251.54 281.823L1243.19 284.126C1243 284.179 1242.89 284.374 1242.94 284.563C1242.98 284.734 1243.15 284.841 1243.32 284.821Z" fill="white"/>
<path d="M1240.87 299.085C1240.87 299.085 1237.15 297.083 1236.56 295.457C1235.98 293.831 1235.76 290.681 1235.76 290.681L1238.25 294.891C1238.25 294.891 1239.2 294.508 1239.47 293.007C1239.74 291.506 1240.59 292.765 1240.42 293.896C1240.25 295.028 1240.87 299.085 1240.87 299.085H1240.87Z" fill="url(#paint57_linear_4_2600)"/>
<path d="M1264.57 266.656C1262.84 267.968 1260.28 270.222 1258.16 273.648C1252.14 283.398 1255.86 292.723 1250.45 296.725C1248.9 297.869 1246.09 298.961 1240.67 297.66L1238.78 298.934C1238.78 298.934 1237.64 311.63 1252.79 310.515C1267.94 309.402 1273.51 289.836 1273.51 289.836L1264.57 266.654V266.656Z" fill="url(#paint58_linear_4_2600)"/>
<path d="M1277.29 247.553C1277.79 247.468 1278.16 246.785 1278.53 246.948C1278.91 247.119 1278.95 248.068 1278.69 248.758C1278.47 249.324 1278.07 249.667 1277.84 249.83C1278.28 250.345 1278.86 251.152 1279.16 252.247C1279.82 254.669 1278.68 256.755 1278.23 257.959C1276.21 263.381 1280.71 271.315 1285.24 275.136C1288.92 278.242 1290.4 276.747 1292.66 279.347C1297.06 284.402 1292.09 290.773 1294.74 297.851C1298.76 308.611 1316.43 310.448 1317.16 310.515C1317.45 310.541 1317.64 310.558 1317.94 310.579C1325.85 311.173 1337.83 312.07 1345.64 304.975C1351.47 299.666 1353.64 291.085 1352.56 283.777C1352.27 281.855 1351.08 274.567 1344.6 269.074C1343.58 268.203 1337.49 263.054 1329.89 263.614C1325.87 263.912 1325.18 265.395 1322.03 264.775C1317.72 263.925 1314.81 260.311 1313 258.07C1309.68 253.947 1310.81 252.914 1308.5 250.943C1303.98 247.08 1299.36 250.792 1294.59 247.446C1289.9 244.15 1292.14 238.963 1287.63 236.145C1282.99 233.24 1274.72 235.075 1273.25 239.114C1272 242.585 1275.73 247.815 1277.28 247.555L1277.29 247.553Z" fill="url(#paint59_linear_4_2600)"/>
<path d="M1214.26 461.047C1214.13 462.173 1213.58 463.083 1212.86 463.365C1211.06 464.074 1208.72 464.342 1206 464.345C1203.23 464.348 1200.87 464.067 1199.05 463.347C1198.35 463.071 1197.81 462.206 1197.67 461.121L1192.83 425.893H1218.32L1214.26 461.045L1214.26 461.047Z" fill="url(#paint60_linear_4_2600)"/>
<ellipse cx="1205.57" cy="425.894" rx="12.7433" ry="1.95976" fill="url(#paint61_linear_4_2600)"/>
<path d="M1206.63 425.759H1209.41C1228.51 412.158 1232 402.431 1231.2 395.834C1230.5 390.001 1226.6 387.921 1220.8 373.44C1217.34 364.807 1215.61 360.489 1215.75 355.802C1216.04 345.556 1222.53 344.219 1226.05 330.83C1227.45 325.493 1229.78 316.651 1225.65 308.038C1221.23 298.798 1211.47 292.396 1209.02 294.166C1207.4 295.34 1209 300.123 1210.59 304.866C1214.81 317.43 1220.24 320.312 1220.8 327.658C1221.14 332.196 1219.29 334.056 1215.15 342.72C1206.77 360.265 1202.24 369.748 1204.05 378.988C1206.52 391.625 1218.72 392.958 1219.51 403.96C1220.15 412.909 1212.7 420.727 1206.63 425.761V425.759Z" fill="url(#paint62_linear_4_2600)"/>
<path d="M1192.95 290.398C1190.3 290.046 1184.52 301.299 1184.63 313.387C1184.73 325.131 1190.29 326.848 1191.96 338.953C1194.08 354.329 1185.69 355.828 1187 370.862C1188.21 384.614 1195.53 386.885 1199.69 405.742C1201.52 414.053 1201.77 421.163 1201.67 425.957H1204.45C1210.11 414.198 1211.54 404.429 1211.78 397.616C1212.39 380.208 1205.44 375.994 1207.81 358.97C1209.4 347.655 1213.12 344.831 1211.58 335.385C1210.63 329.562 1208.23 324.592 1204.25 316.36C1200.45 308.5 1198.63 306.804 1196.32 299.911C1194.17 293.494 1194.26 290.572 1192.95 290.398H1192.95Z" fill="url(#paint63_linear_4_2600)"/>
<path d="M1198.7 425.56C1199.04 421.319 1198.85 415.293 1195.73 409.508C1190.47 399.77 1182.44 400.978 1175.91 392.266C1169.04 383.102 1167.93 368.458 1172.34 357.98C1176.58 347.908 1184.2 345.674 1184.23 336.576C1184.26 329.218 1179.19 323.918 1179.87 323.495C1180.58 323.059 1186.32 328.442 1188.62 336.375C1189.52 339.476 1189.89 342.961 1188.62 352.43C1186.7 366.723 1184.55 368.584 1184.63 373.834C1184.8 384.879 1195.67 386.235 1201.28 398.607C1203.82 404.218 1205.87 412.914 1202.86 425.957C1201.47 425.825 1200.09 425.692 1198.7 425.56H1198.7Z" fill="url(#paint64_linear_4_2600)"/>
<defs>
<linearGradient id="paint0_linear_4_2600" x1="1144.72" y1="534.111" x2="1070.49" y2="534.111" gradientUnits="userSpaceOnUse">
<stop stop-color="#FFC444"/>
<stop offset="1" stop-color="#F36F56"/>
</linearGradient>
<linearGradient id="paint1_linear_4_2600" x1="1374.01" y1="306.977" x2="1414.51" y2="306.977" gradientUnits="userSpaceOnUse">
<stop stop-color="#FFC444"/>
<stop offset="1" stop-color="#F36F56"/>
</linearGradient>
<linearGradient id="paint2_linear_4_2600" x1="863.611" y1="521.093" x2="760.615" y2="521.093" gradientUnits="userSpaceOnUse">
<stop stop-color="#FFC444"/>
<stop offset="1" stop-color="#F36F56"/>
</linearGradient>
<linearGradient id="paint3_linear_4_2600" x1="1035.64" y1="381.339" x2="1091.83" y2="381.339" gradientUnits="userSpaceOnUse">
<stop stop-color="#FFC444"/>
<stop offset="1" stop-color="#F36F56"/>
</linearGradient>
<linearGradient id="paint4_linear_4_2600" x1="336.746" y1="242.693" x2="284.282" y2="242.693" gradientUnits="userSpaceOnUse">
<stop stop-color="#FF9085"/>
<stop offset="1" stop-color="#FB6FBB"/>
</linearGradient>
<linearGradient id="paint5_linear_4_2600" x1="1211.46" y1="199.743" x2="1009.57" y2="199.743" gradientUnits="userSpaceOnUse">
<stop stop-color="#AA80F9"/>
<stop offset="1" stop-color="#6165D7"/>
</linearGradient>
<linearGradient id="paint6_linear_4_2600" x1="30.856" y1="184.09" x2="-2.69001" y2="184.09" gradientUnits="userSpaceOnUse">
<stop stop-color="#FF9085"/>
<stop offset="1" stop-color="#FB6FBB"/>
</linearGradient>
<linearGradient id="paint7_linear_4_2600" x1="1479.53" y1="169.268" x2="1350.44" y2="169.268" gradientUnits="userSpaceOnUse">
<stop stop-color="#FF9085"/>
<stop offset="1" stop-color="#FB6FBB"/>
</linearGradient>
<linearGradient id="paint8_linear_4_2600" x1="1113.06" y1="312.717" x2="1263.07" y2="312.717" gradientUnits="userSpaceOnUse">
<stop stop-color="white"/>
<stop offset="1" stop-color="#EBEFF2"/>
</linearGradient>
<linearGradient id="paint9_linear_4_2600" x1="1141.69" y1="251.025" x2="1128.27" y2="251.025" gradientUnits="userSpaceOnUse">
<stop stop-color="#FFC444"/>
<stop offset="1" stop-color="#F36F56"/>
</linearGradient>
<linearGradient id="paint10_linear_4_2600" x1="1228.89" y1="334.832" x2="1175.17" y2="334.832" gradientUnits="userSpaceOnUse">
<stop stop-color="#E38DDD"/>
<stop offset="1" stop-color="#9571F6"/>
</linearGradient>
<linearGradient id="paint11_linear_4_2600" x1="1168.72" y1="275.213" x2="1096.78" y2="275.213" gradientUnits="userSpaceOnUse">
<stop stop-color="#AA80F9"/>
<stop offset="1" stop-color="#6165D7"/>
</linearGradient>
<linearGradient id="paint12_linear_4_2600" x1="1188.53" y1="181.705" x2="1246.01" y2="181.705" gradientUnits="userSpaceOnUse">
<stop stop-color="#FF9085"/>
<stop offset="1" stop-color="#FB6FBB"/>
</linearGradient>
<linearGradient id="paint13_linear_4_2600" x1="1028.81" y1="149.103" x2="1121.98" y2="149.103" gradientUnits="userSpaceOnUse">
<stop stop-color="#FF9085"/>
<stop offset="1" stop-color="#FB6FBB"/>
</linearGradient>
<linearGradient id="paint14_linear_4_2600" x1="-444.36" y1="-445.999" x2="-364.222" y2="-445.999" gradientUnits="userSpaceOnUse">
<stop stop-color="#FF9085"/>
<stop offset="1" stop-color="#FB6FBB"/>
</linearGradient>
<linearGradient id="paint15_linear_4_2600" x1="770.098" y1="361.186" x2="790.253" y2="361.186" gradientUnits="userSpaceOnUse">
<stop stop-color="#E38DDD"/>
<stop offset="1" stop-color="#9571F6"/>
</linearGradient>
<linearGradient id="paint16_linear_4_2600" x1="773.426" y1="267.264" x2="745.13" y2="267.264" gradientUnits="userSpaceOnUse">
<stop stop-color="#E38DDD"/>
<stop offset="1" stop-color="#9571F6"/>
</linearGradient>
<linearGradient id="paint17_linear_4_2600" x1="736.087" y1="384.018" x2="736.308" y2="384.018" gradientUnits="userSpaceOnUse">
<stop stop-color="#E38DDD"/>
<stop offset="1" stop-color="#9571F6"/>
</linearGradient>
<linearGradient id="paint18_linear_4_2600" x1="678.581" y1="436.01" x2="662.652" y2="436.01" gradientUnits="userSpaceOnUse">
<stop stop-color="#311944"/>
<stop offset="1" stop-color="#6B3976"/>
</linearGradient>
<linearGradient id="paint19_linear_4_2600" x1="686.805" y1="395.556" x2="673.623" y2="395.556" gradientUnits="userSpaceOnUse">
<stop stop-color="#FFC444"/>
<stop offset="1" stop-color="#F36F56"/>
</linearGradient>
<linearGradient id="paint20_linear_4_2600" x1="708.219" y1="442.743" x2="692.291" y2="442.743" gradientUnits="userSpaceOnUse">
<stop stop-color="#311944"/>
<stop offset="1" stop-color="#6B3976"/>
</linearGradient>
<linearGradient id="paint21_linear_4_2600" x1="716.446" y1="402.289" x2="703.263" y2="402.289" gradientUnits="userSpaceOnUse">
<stop stop-color="#FFC444"/>
<stop offset="1" stop-color="#F36F56"/>
</linearGradient>
<linearGradient id="paint22_linear_4_2600" x1="1098.53" y1="382.151" x2="1042.96" y2="382.151" gradientUnits="userSpaceOnUse">
<stop stop-color="#26264F"/>
<stop offset="1" stop-color="#444B8C"/>
</linearGradient>
<linearGradient id="paint23_linear_4_2600" x1="1074.83" y1="395.421" x2="1035.75" y2="395.421" gradientUnits="userSpaceOnUse">
<stop stop-color="#26264F"/>
<stop offset="1" stop-color="#444B8C"/>
</linearGradient>
<linearGradient id="paint24_linear_4_2600" x1="1094.05" y1="362.921" x2="1073.55" y2="362.921" gradientUnits="userSpaceOnUse">
<stop stop-color="#311944"/>
<stop offset="1" stop-color="#893976"/>
</linearGradient>
<linearGradient id="paint25_linear_4_2600" x1="1041.75" y1="337.467" x2="1063.64" y2="337.467" gradientUnits="userSpaceOnUse">
<stop stop-color="#311944"/>
<stop offset="1" stop-color="#893976"/>
</linearGradient>
<linearGradient id="paint26_linear_4_2600" x1="1056.78" y1="314.265" x2="1030.39" y2="314.265" gradientUnits="userSpaceOnUse">
<stop stop-color="#311944"/>
<stop offset="1" stop-color="#893976"/>
</linearGradient>
<linearGradient id="paint27_linear_4_2600" x1="1121.04" y1="221.673" x2="1119.77" y2="221.673" gradientUnits="userSpaceOnUse">
<stop stop-color="#FFC444"/>
<stop offset="1" stop-color="#F36F56"/>
</linearGradient>
<linearGradient id="paint28_linear_4_2600" x1="1026.11" y1="245.709" x2="1034.77" y2="245.709" gradientUnits="userSpaceOnUse">
<stop stop-color="#311944"/>
<stop offset="1" stop-color="#6B3976"/>
</linearGradient>
<linearGradient id="paint29_linear_4_2600" x1="946.542" y1="279.819" x2="946.929" y2="279.819" gradientUnits="userSpaceOnUse">
<stop stop-color="#FFC444"/>
<stop offset="1" stop-color="#F36F56"/>
</linearGradient>
<linearGradient id="paint30_linear_4_2600" x1="1023.78" y1="247.108" x2="1032.13" y2="247.108" gradientUnits="userSpaceOnUse">
<stop stop-color="#311944"/>
<stop offset="1" stop-color="#6B3976"/>
</linearGradient>
<linearGradient id="paint31_linear_4_2600" x1="1024.1" y1="259.385" x2="1023.63" y2="259.385" gradientUnits="userSpaceOnUse">
<stop stop-color="#FFC444"/>
<stop offset="1" stop-color="#F36F56"/>
</linearGradient>
<linearGradient id="paint32_linear_4_2600" x1="1016.69" y1="328.745" x2="1038.59" y2="328.745" gradientUnits="userSpaceOnUse">
<stop stop-color="#311944"/>
<stop offset="1" stop-color="#893976"/>
</linearGradient>
<linearGradient id="paint33_linear_4_2600" x1="1089.13" y1="350.117" x2="1087.94" y2="350.117" gradientUnits="userSpaceOnUse">
<stop stop-color="#26264F"/>
<stop offset="1" stop-color="#444B8C"/>
</linearGradient>
<linearGradient id="paint34_linear_4_2600" x1="1122.06" y1="341.622" x2="1059.51" y2="341.622" gradientUnits="userSpaceOnUse">
<stop stop-color="#26264F"/>
<stop offset="1" stop-color="#444B8C"/>
</linearGradient>
<linearGradient id="paint35_linear_4_2600" x1="1114.81" y1="303.225" x2="1121.1" y2="303.225" gradientUnits="userSpaceOnUse">
<stop stop-color="#26264F"/>
<stop offset="1" stop-color="#444B8C"/>
</linearGradient>
<linearGradient id="paint36_linear_4_2600" x1="1168.42" y1="310.762" x2="1069.21" y2="310.762" gradientUnits="userSpaceOnUse">
<stop stop-color="#26264F"/>
<stop offset="1" stop-color="#444B8C"/>
</linearGradient>
<linearGradient id="paint37_linear_4_2600" x1="1158.99" y1="328.623" x2="1069.21" y2="328.623" gradientUnits="userSpaceOnUse">
<stop stop-color="#26264F"/>
<stop offset="1" stop-color="#444B8C"/>
</linearGradient>
<linearGradient id="paint38_linear_4_2600" x1="1112.91" y1="347.972" x2="1107.32" y2="347.972" gradientUnits="userSpaceOnUse">
<stop stop-color="#444B8C"/>
<stop offset="1" stop-color="#26264F"/>
</linearGradient>
<linearGradient id="paint39_linear_4_2600" x1="1118.57" y1="346.452" x2="1097.99" y2="346.452" gradientUnits="userSpaceOnUse">
<stop stop-color="#26264F"/>
<stop offset="1" stop-color="#444B8C"/>
</linearGradient>
<linearGradient id="paint40_linear_4_2600" x1="1140.68" y1="330.335" x2="1114.99" y2="330.335" gradientUnits="userSpaceOnUse">
<stop stop-color="#444B8C"/>
<stop offset="1" stop-color="#26264F"/>
</linearGradient>
<linearGradient id="paint41_linear_4_2600" x1="1141.79" y1="330.327" x2="1116.11" y2="330.327" gradientUnits="userSpaceOnUse">
<stop stop-color="#26264F"/>
<stop offset="1" stop-color="#444B8C"/>
</linearGradient>
<linearGradient id="paint42_linear_4_2600" x1="1055.92" y1="344.392" x2="1037.49" y2="344.392" gradientUnits="userSpaceOnUse">
<stop stop-color="#26264F"/>
<stop offset="1" stop-color="#444B8C"/>
</linearGradient>
<linearGradient id="paint43_linear_4_2600" x1="1045.57" y1="350.761" x2="1042.02" y2="350.761" gradientUnits="userSpaceOnUse">
<stop stop-color="#FFC444"/>
<stop offset="1" stop-color="#F36F56"/>
</linearGradient>
<linearGradient id="paint44_linear_4_2600" x1="749.588" y1="450.076" x2="758.364" y2="450.076" gradientUnits="userSpaceOnUse">
<stop stop-color="#444B8C"/>
<stop offset="1" stop-color="#26264F"/>
</linearGradient>
<linearGradient id="paint45_linear_4_2600" x1="1300.62" y1="429.217" x2="1300.62" y2="429.217" gradientUnits="userSpaceOnUse">
<stop stop-color="#FFC444"/>
<stop offset="1" stop-color="#F36F56"/>
</linearGradient>
<linearGradient id="paint46_linear_4_2600" x1="1283.73" y1="433.007" x2="1283.73" y2="433.007" gradientUnits="userSpaceOnUse">
<stop stop-color="#FFC444"/>
<stop offset="1" stop-color="#F36F56"/>
</linearGradient>
<linearGradient id="paint47_linear_4_2600" x1="762.366" y1="446.2" x2="771.141" y2="446.2" gradientUnits="userSpaceOnUse">
<stop stop-color="#444B8C"/>
<stop offset="1" stop-color="#26264F"/>
</linearGradient>
<linearGradient id="paint48_linear_4_2600" x1="742.5" y1="469.123" x2="746.77" y2="469.123" gradientUnits="userSpaceOnUse">
<stop stop-color="#311944"/>
<stop offset="1" stop-color="#893976"/>
</linearGradient>
<linearGradient id="paint49_linear_4_2600" x1="742.507" y1="469.123" x2="746.777" y2="469.123" gradientUnits="userSpaceOnUse">
<stop stop-color="#311944"/>
<stop offset="1" stop-color="#893976"/>
</linearGradient>
<linearGradient id="paint50_linear_4_2600" x1="733.586" y1="410.376" x2="811.853" y2="410.376" gradientUnits="userSpaceOnUse">
<stop stop-color="#311944"/>
<stop offset="1" stop-color="#893976"/>
</linearGradient>
<linearGradient id="paint51_linear_4_2600" x1="751.514" y1="315.855" x2="696.016" y2="315.855" gradientUnits="userSpaceOnUse">
<stop stop-color="#FF9085"/>
<stop offset="1" stop-color="#FB6FBB"/>
</linearGradient>
<linearGradient id="paint52_linear_4_2600" x1="1446.58" y1="445.178" x2="1403.23" y2="445.178" gradientUnits="userSpaceOnUse">
<stop stop-color="#FF9085"/>
<stop offset="1" stop-color="#FB6FBB"/>
</linearGradient>
<linearGradient id="paint53_linear_4_2600" x1="747.169" y1="296.795" x2="757.18" y2="296.795" gradientUnits="userSpaceOnUse">
<stop stop-color="#FFC444"/>
<stop offset="1" stop-color="#F36F56"/>
</linearGradient>
<linearGradient id="paint54_linear_4_2600" x1="774.275" y1="338.317" x2="794.455" y2="338.317" gradientUnits="userSpaceOnUse">
<stop stop-color="#444B8C"/>
<stop offset="1" stop-color="#26264F"/>
</linearGradient>
<linearGradient id="paint55_linear_4_2600" x1="780.335" y1="335.568" x2="797.766" y2="335.568" gradientUnits="userSpaceOnUse">
<stop stop-color="#FFC444"/>
<stop offset="1" stop-color="#F36F56"/>
</linearGradient>
<linearGradient id="paint56_linear_4_2600" x1="797.199" y1="293.619" x2="792.396" y2="293.619" gradientUnits="userSpaceOnUse">
<stop stop-color="#AA80F9"/>
<stop offset="1" stop-color="#6165D7"/>
</linearGradient>
<linearGradient id="paint57_linear_4_2600" x1="793.886" y1="326.406" x2="798.728" y2="326.406" gradientUnits="userSpaceOnUse">
<stop stop-color="#FFC444"/>
<stop offset="1" stop-color="#F36F56"/>
</linearGradient>
<linearGradient id="paint58_linear_4_2600" x1="776.419" y1="327.512" x2="720.922" y2="327.512" gradientUnits="userSpaceOnUse">
<stop stop-color="#FF9085"/>
<stop offset="1" stop-color="#FB6FBB"/>
</linearGradient>
<linearGradient id="paint59_linear_4_2600" x1="742.045" y1="261.952" x2="701.571" y2="261.952" gradientUnits="userSpaceOnUse">
<stop stop-color="#444B8C"/>
<stop offset="1" stop-color="#26264F"/>
</linearGradient>
<linearGradient id="paint60_linear_4_2600" x1="1228.68" y1="451.35" x2="1196.14" y2="451.35" gradientUnits="userSpaceOnUse">
<stop stop-color="#AB316D"/>
<stop offset="1" stop-color="#792D3D"/>
</linearGradient>
<linearGradient id="paint61_linear_4_2600" x1="1197.73" y1="442.297" x2="1210.81" y2="442.297" gradientUnits="userSpaceOnUse">
<stop stop-color="#FFC444"/>
<stop offset="1" stop-color="#F36F56"/>
</linearGradient>
<linearGradient id="paint62_linear_4_2600" x1="1210.49" y1="379.03" x2="1234.28" y2="379.03" gradientUnits="userSpaceOnUse">
<stop stop-color="#AA80F9"/>
<stop offset="1" stop-color="#6165D7"/>
</linearGradient>
<linearGradient id="paint63_linear_4_2600" x1="1191.94" y1="430.133" x2="1203.43" y2="430.133" gradientUnits="userSpaceOnUse">
<stop stop-color="#E38DDD"/>
<stop offset="1" stop-color="#9571F6"/>
</linearGradient>
<linearGradient id="paint64_linear_4_2600" x1="1204.35" y1="374.714" x2="1169.71" y2="374.714" gradientUnits="userSpaceOnUse">
<stop stop-color="#AA80F9"/>
<stop offset="1" stop-color="#6165D7"/>
</linearGradient>
</defs>
</svg>
