<svg width="533" height="209" viewBox="0 0 533 209" fill="none" xmlns="http://www.w3.org/2000/svg">
<path d="M70.4111 131.494L316.494 72.1858L532.002 167.228L109.916 207.719L70.4111 131.494Z" fill="#F0F4FF"/>
<path d="M51.9714 12.6958V69.3358H41.9714V21.3358H17.3314V69.3358H7.33141V12.6958H51.9714ZM103.062 49.8958C103.062 52.9358 102.502 55.7358 101.382 58.2958C100.315 60.8025 98.822 62.9625 96.902 64.7758C95.0354 66.5891 92.7954 68.0025 90.182 69.0158C87.622 69.9758 84.8487 70.4558 81.862 70.4558C78.8754 70.4558 76.102 69.9758 73.542 69.0158C70.982 68.0025 68.742 66.5891 66.822 64.7758C64.9554 62.9625 63.462 60.8025 62.342 58.2958C61.2754 55.7358 60.742 52.9358 60.742 49.8958C60.742 46.8558 61.2754 44.0825 62.342 41.5758C63.462 39.0691 64.9554 36.9358 66.822 35.1758C68.742 33.3625 70.982 31.9758 73.542 31.0158C76.102 30.0025 78.8754 29.4958 81.862 29.4958C84.8487 29.4958 87.622 30.0025 90.182 31.0158C92.7954 31.9758 95.0354 33.3625 96.902 35.1758C98.822 36.9358 100.315 39.0691 101.382 41.5758C102.502 44.0825 103.062 46.8558 103.062 49.8958ZM93.542 49.8958C93.542 48.2425 93.2754 46.6691 92.742 45.1758C92.2087 43.6291 91.4354 42.2958 90.422 41.1758C89.462 40.0025 88.2354 39.0958 86.742 38.4558C85.302 37.7625 83.6754 37.4158 81.862 37.4158C80.0487 37.4158 78.422 37.7625 76.982 38.4558C75.542 39.0958 74.3154 40.0025 73.302 41.1758C72.342 42.2958 71.5954 43.6291 71.062 45.1758C70.5287 46.6691 70.262 48.2425 70.262 49.8958C70.262 51.5491 70.5287 53.1491 71.062 54.6958C71.5954 56.1891 72.342 57.5225 73.302 58.6958C74.3154 59.8158 75.542 60.7225 76.982 61.4158C78.422 62.0558 80.0487 62.3758 81.862 62.3758C83.6754 62.3758 85.302 62.0558 86.742 61.4158C88.2354 60.7225 89.462 59.8158 90.422 58.6958C91.4354 57.5225 92.2087 56.1891 92.742 54.6958C93.2754 53.1491 93.542 51.5491 93.542 49.8958ZM138.506 41.4958C137.706 40.2691 136.559 39.3091 135.066 38.6158C133.572 37.8691 131.999 37.4958 130.346 37.4958C128.586 37.4958 126.986 37.8158 125.546 38.4558C124.159 39.0958 122.959 39.9758 121.946 41.0958C120.986 42.2158 120.212 43.5491 119.626 45.0958C119.092 46.5891 118.826 48.2158 118.826 49.9758C118.826 51.6825 119.092 53.3091 119.626 54.8558C120.159 56.3491 120.932 57.6558 121.946 58.7758C122.959 59.8958 124.186 60.7758 125.626 61.4158C127.066 62.0558 128.666 62.3758 130.426 62.3758C132.239 62.3758 133.866 62.0291 135.306 61.3358C136.799 60.6425 137.999 59.7091 138.906 58.5358L144.746 64.6958C143.092 66.4558 141.012 67.8691 138.506 68.9358C136.052 69.9491 133.279 70.4558 130.186 70.4558C127.092 70.4558 124.239 69.9758 121.626 69.0158C119.066 68.0025 116.826 66.6158 114.906 64.8558C113.039 63.0425 111.572 60.8825 110.506 58.3758C109.492 55.8691 108.986 53.0691 108.986 49.9758C108.986 46.9358 109.519 44.1625 110.586 41.6558C111.652 39.1491 113.119 36.9891 114.986 35.1758C116.852 33.3625 119.092 31.9758 121.706 31.0158C124.319 30.0025 127.146 29.4958 130.186 29.4958C132.906 29.4958 135.572 30.0025 138.186 31.0158C140.852 32.0291 142.986 33.4691 144.586 35.3358L138.506 41.4958ZM144.982 30.6158H179.222V38.2158H166.662V69.3358H157.062V38.2158H144.982V30.6158ZM200.663 58.9358H200.903L210.503 30.6158H220.743L203.623 74.2958C202.769 76.4291 201.889 78.3758 200.983 80.1358C200.129 81.8958 199.089 83.3891 197.863 84.6158C196.689 85.8425 195.276 86.8025 193.623 87.4958C191.969 88.1891 189.969 88.5358 187.623 88.5358C186.556 88.5358 185.489 88.4558 184.423 88.2958C183.409 88.1892 182.449 88.0291 181.543 87.8158L182.583 79.5758C183.169 79.7891 183.809 79.9491 184.503 80.0558C185.249 80.2158 185.969 80.2958 186.663 80.2958C188.636 80.2958 190.103 79.7625 191.063 78.6958C192.023 77.6825 192.876 76.2158 193.623 74.2958L195.703 68.9358L179.383 30.6158H190.023L200.663 58.9358ZM235.243 69.3358H225.643V30.6158H261.243V69.3358H251.643V38.2158H235.243V69.3358ZM294.985 44.3758C294.985 41.8158 294.211 39.9225 292.665 38.6958C291.118 37.4691 289.065 36.8558 286.505 36.8558C284.478 36.8558 282.531 37.2558 280.665 38.0558C278.851 38.8558 277.305 39.8691 276.025 41.0958L271.065 35.5758C273.038 33.7091 275.438 32.2425 278.265 31.1758C281.145 30.0558 284.185 29.4958 287.385 29.4958C292.451 29.4958 296.398 30.6958 299.225 33.0958C302.051 35.4958 303.598 39.2558 303.865 44.3758C303.918 45.1225 303.945 45.8691 303.945 46.6158C303.998 47.3625 304.025 48.1358 304.025 48.9358V61.1758C304.025 62.5625 304.051 63.9758 304.105 65.4158C304.158 66.8025 304.238 68.1091 304.345 69.3358H295.545C295.491 68.5358 295.438 67.7091 295.385 66.8558C295.331 66.0025 295.305 65.1225 295.305 64.2158H295.145C293.758 66.2425 292.025 67.7625 289.945 68.7758C287.865 69.7891 285.465 70.2958 282.745 70.2958C281.251 70.2958 279.678 70.0825 278.025 69.6558C276.425 69.2291 274.958 68.5625 273.625 67.6558C272.291 66.6958 271.171 65.4691 270.265 63.9758C269.411 62.4291 268.985 60.5358 268.985 58.2958C268.985 55.4158 269.731 53.1225 271.225 51.4158C272.771 49.7091 274.771 48.4025 277.225 47.4958C279.731 46.5891 282.531 46.0025 285.625 45.7358C288.718 45.4691 291.838 45.3358 294.985 45.3358V44.3758ZM293.545 51.3358C291.731 51.3358 289.891 51.4158 288.025 51.5758C286.211 51.7358 284.558 52.0558 283.065 52.5358C281.625 52.9625 280.425 53.6291 279.465 54.5358C278.558 55.3891 278.105 56.5358 278.105 57.9758C278.105 59.0425 278.318 59.9225 278.745 60.6158C279.171 61.3091 279.705 61.8691 280.345 62.2958C281.038 62.7225 281.811 63.0425 282.665 63.2558C283.518 63.4158 284.371 63.4958 285.225 63.4958C288.425 63.4958 290.878 62.5358 292.585 60.6158C294.291 58.6425 295.145 56.2158 295.145 53.3358V51.3358H293.545ZM343.607 69.3358H353.287V30.6158H343.607L323.607 56.4558V30.6158H313.927V69.3358H323.607L343.607 42.8558V69.3358ZM325.607 12.2158C326.247 13.8158 327.314 15.1491 328.807 16.2158C330.354 17.2291 332.087 17.7358 334.007 17.7358C335.927 17.7358 337.634 17.2291 339.127 16.2158C340.674 15.1491 341.767 13.8158 342.407 12.2158L347.527 14.8558C347.1 15.9758 346.46 17.0425 345.607 18.0558C344.807 19.0158 343.82 19.8691 342.647 20.6158C341.474 21.3625 340.14 21.9758 338.647 22.4558C337.207 22.8825 335.66 23.0958 334.007 23.0958C332.3 23.0958 330.7 22.8825 329.207 22.4558C327.767 21.9758 326.46 21.3625 325.287 20.6158C324.167 19.8691 323.18 19.0158 322.327 18.0558C321.474 17.0425 320.86 15.9758 320.487 14.8558L325.607 12.2158ZM409.259 41.4958C408.459 40.2691 407.312 39.3091 405.819 38.6158C404.326 37.8691 402.752 37.4958 401.099 37.4958C399.339 37.4958 397.739 37.8158 396.299 38.4558C394.912 39.0958 393.712 39.9758 392.699 41.0958C391.739 42.2158 390.966 43.5491 390.379 45.0958C389.846 46.5891 389.579 48.2158 389.579 49.9758C389.579 51.6825 389.846 53.3091 390.379 54.8558C390.912 56.3491 391.686 57.6558 392.699 58.7758C393.712 59.8958 394.939 60.7758 396.379 61.4158C397.819 62.0558 399.419 62.3758 401.179 62.3758C402.992 62.3758 404.619 62.0291 406.059 61.3358C407.552 60.6425 408.752 59.7091 409.659 58.5358L415.499 64.6958C413.846 66.4558 411.766 67.8691 409.259 68.9358C406.806 69.9491 404.032 70.4558 400.939 70.4558C397.846 70.4558 394.992 69.9758 392.379 69.0158C389.819 68.0025 387.579 66.6158 385.659 64.8558C383.792 63.0425 382.326 60.8825 381.259 58.3758C380.246 55.8691 379.739 53.0691 379.739 49.9758C379.739 46.9358 380.272 44.1625 381.339 41.6558C382.406 39.1491 383.872 36.9891 385.739 35.1758C387.606 33.3625 389.846 31.9758 392.459 31.0158C395.072 30.0025 397.899 29.4958 400.939 29.4958C403.659 29.4958 406.326 30.0025 408.939 31.0158C411.606 32.0291 413.739 33.4691 415.339 35.3358L409.259 41.4958Z" fill="#0E1726"/>
<path d="M126.051 118.936V124.296H126.291C126.771 123.549 127.385 122.802 128.131 122.056C128.931 121.256 129.891 120.562 131.011 119.976C132.131 119.336 133.385 118.829 134.771 118.456C136.211 118.029 137.811 117.816 139.571 117.816C142.291 117.816 144.798 118.349 147.091 119.416C149.385 120.429 151.358 121.842 153.011 123.656C154.665 125.469 155.945 127.602 156.851 130.056C157.758 132.509 158.211 135.149 158.211 137.976C158.211 140.802 157.758 143.469 156.851 145.976C155.998 148.429 154.745 150.589 153.091 152.456C151.491 154.269 149.518 155.736 147.171 156.856C144.878 157.922 142.265 158.456 139.331 158.456C136.611 158.456 134.105 157.896 131.811 156.776C129.571 155.656 127.838 154.136 126.611 152.216H126.451V176.536H116.851V118.936H126.051ZM148.451 137.976C148.451 136.482 148.211 135.016 147.731 133.576C147.305 132.082 146.638 130.749 145.731 129.576C144.825 128.402 143.678 127.469 142.291 126.776C140.905 126.029 139.278 125.656 137.411 125.656C135.651 125.656 134.078 126.029 132.691 126.776C131.305 127.522 130.105 128.482 129.091 129.656C128.131 130.829 127.385 132.162 126.851 133.656C126.371 135.149 126.131 136.642 126.131 138.136C126.131 139.629 126.371 141.122 126.851 142.616C127.385 144.056 128.131 145.362 129.091 146.536C130.105 147.709 131.305 148.669 132.691 149.416C134.078 150.109 135.651 150.456 137.411 150.456C139.278 150.456 140.905 150.082 142.291 149.336C143.678 148.589 144.825 147.629 145.731 146.456C146.638 145.282 147.305 143.949 147.731 142.456C148.211 140.962 148.451 139.469 148.451 137.976ZM163.636 137.976C163.636 134.936 164.17 132.189 165.236 129.736C166.356 127.229 167.85 125.096 169.716 123.336C171.583 121.576 173.796 120.216 176.356 119.256C178.916 118.296 181.636 117.816 184.516 117.816C187.396 117.816 190.116 118.296 192.676 119.256C195.236 120.216 197.45 121.576 199.316 123.336C201.183 125.096 202.65 127.229 203.716 129.736C204.836 132.189 205.396 134.936 205.396 137.976C205.396 141.016 204.836 143.789 203.716 146.296C202.65 148.802 201.183 150.962 199.316 152.776C197.45 154.536 195.236 155.922 192.676 156.936C190.116 157.949 187.396 158.456 184.516 158.456C181.636 158.456 178.916 157.949 176.356 156.936C173.796 155.922 171.583 154.536 169.716 152.776C167.85 150.962 166.356 148.802 165.236 146.296C164.17 143.789 163.636 141.016 163.636 137.976ZM173.396 137.976C173.396 139.469 173.61 140.962 174.036 142.456C174.516 143.949 175.21 145.282 176.116 146.456C177.023 147.629 178.17 148.589 179.556 149.336C180.943 150.082 182.596 150.456 184.516 150.456C186.436 150.456 188.09 150.082 189.476 149.336C190.863 148.589 192.01 147.629 192.916 146.456C193.823 145.282 194.49 143.949 194.916 142.456C195.396 140.962 195.636 139.469 195.636 137.976C195.636 136.482 195.396 135.016 194.916 133.576C194.49 132.082 193.823 130.749 192.916 129.576C192.01 128.402 190.863 127.469 189.476 126.776C188.09 126.029 186.436 125.656 184.516 125.656C182.596 125.656 180.943 126.029 179.556 126.776C178.17 127.469 177.023 128.402 176.116 129.576C175.21 130.749 174.516 132.082 174.036 133.576C173.61 135.016 173.396 136.482 173.396 137.976ZM234.145 129.176C233.291 128.056 232.118 127.096 230.625 126.296C229.131 125.442 227.505 125.016 225.745 125.016C224.198 125.016 222.785 125.336 221.505 125.976C220.225 126.616 219.585 127.682 219.585 129.176C219.585 130.669 220.278 131.736 221.665 132.376C223.105 132.962 225.185 133.576 227.905 134.216C229.345 134.536 230.785 134.962 232.225 135.496C233.718 136.029 235.051 136.749 236.225 137.656C237.451 138.509 238.438 139.602 239.185 140.936C239.931 142.216 240.305 143.789 240.305 145.656C240.305 148.002 239.851 150.002 238.945 151.656C238.091 153.256 236.918 154.562 235.425 155.576C233.985 156.589 232.278 157.309 230.305 157.736C228.385 158.216 226.385 158.456 224.305 158.456C221.318 158.456 218.411 157.922 215.585 156.856C212.758 155.736 210.411 154.162 208.545 152.136L214.865 146.216C215.931 147.602 217.318 148.749 219.025 149.656C220.731 150.562 222.625 151.016 224.705 151.016C225.398 151.016 226.091 150.936 226.785 150.776C227.531 150.616 228.198 150.376 228.785 150.056C229.425 149.682 229.931 149.202 230.305 148.616C230.678 148.029 230.865 147.309 230.865 146.456C230.865 144.856 230.118 143.709 228.625 143.016C227.185 142.322 224.998 141.629 222.065 140.936C220.625 140.616 219.211 140.216 217.825 139.736C216.491 139.202 215.291 138.536 214.225 137.736C213.158 136.882 212.305 135.842 211.665 134.616C211.025 133.389 210.705 131.869 210.705 130.056C210.705 127.922 211.131 126.082 211.985 124.536C212.891 122.989 214.065 121.736 215.505 120.776C216.945 119.762 218.571 119.016 220.385 118.536C222.198 118.056 224.065 117.816 225.985 117.816C228.758 117.816 231.451 118.296 234.065 119.256C236.731 120.216 238.838 121.682 240.385 123.656L234.145 129.176ZM241.531 126.616V118.936H248.251V107.816H257.691V118.936H267.291V126.616H257.691V144.456C257.691 146.162 257.985 147.576 258.571 148.696C259.211 149.816 260.598 150.376 262.731 150.376C263.371 150.376 264.065 150.322 264.811 150.216C265.558 150.056 266.225 149.842 266.811 149.576L267.131 157.096C266.278 157.416 265.265 157.656 264.091 157.816C262.918 158.029 261.798 158.136 260.731 158.136C258.171 158.136 256.091 157.789 254.491 157.096C252.891 156.349 251.611 155.362 250.651 154.136C249.745 152.856 249.105 151.416 248.731 149.816C248.411 148.162 248.251 146.402 248.251 144.536V126.616H241.531ZM307.679 157.336H298.559V151.176H298.399C297.546 153.096 296.052 154.802 293.919 156.296C291.839 157.736 289.359 158.456 286.479 158.456C283.972 158.456 281.812 158.029 279.999 157.176C278.239 156.269 276.772 155.096 275.599 153.656C274.479 152.216 273.652 150.562 273.119 148.696C272.586 146.829 272.319 144.909 272.319 142.936V118.936H281.919V140.216C281.919 141.336 281.999 142.509 282.159 143.736C282.319 144.962 282.666 146.082 283.199 147.096C283.732 148.056 284.452 148.856 285.359 149.496C286.319 150.136 287.572 150.456 289.119 150.456C290.612 150.456 291.919 150.162 293.039 149.576C294.212 148.936 295.146 148.136 295.839 147.176C296.586 146.216 297.146 145.122 297.519 143.896C297.892 142.616 298.079 141.336 298.079 140.056V118.936H307.679V157.336ZM326.801 118.936V124.296H327.041C327.521 123.549 328.135 122.802 328.881 122.056C329.681 121.256 330.641 120.562 331.761 119.976C332.881 119.336 334.135 118.829 335.521 118.456C336.961 118.029 338.561 117.816 340.321 117.816C343.041 117.816 345.548 118.349 347.841 119.416C350.135 120.429 352.108 121.842 353.761 123.656C355.415 125.469 356.695 127.602 357.601 130.056C358.508 132.509 358.961 135.149 358.961 137.976C358.961 140.802 358.508 143.469 357.601 145.976C356.748 148.429 355.495 150.589 353.841 152.456C352.241 154.269 350.268 155.736 347.921 156.856C345.628 157.922 343.015 158.456 340.081 158.456C337.361 158.456 334.855 157.896 332.561 156.776C330.321 155.656 328.588 154.136 327.361 152.216H327.201V176.536H317.601V118.936H326.801ZM349.201 137.976C349.201 136.482 348.961 135.016 348.481 133.576C348.055 132.082 347.388 130.749 346.481 129.576C345.575 128.402 344.428 127.469 343.041 126.776C341.655 126.029 340.028 125.656 338.161 125.656C336.401 125.656 334.828 126.029 333.441 126.776C332.055 127.522 330.855 128.482 329.841 129.656C328.881 130.829 328.135 132.162 327.601 133.656C327.121 135.149 326.881 136.642 326.881 138.136C326.881 139.629 327.121 141.122 327.601 142.616C328.135 144.056 328.881 145.362 329.841 146.536C330.855 147.709 332.055 148.669 333.441 149.416C334.828 150.109 336.401 150.456 338.161 150.456C340.028 150.456 341.655 150.082 343.041 149.336C344.428 148.589 345.575 147.629 346.481 146.456C347.388 145.282 348.055 143.949 348.481 142.456C348.961 140.962 349.201 139.469 349.201 137.976ZM390.466 152.456H390.226C389.266 154.162 387.72 155.576 385.586 156.696C383.453 157.762 381.026 158.296 378.306 158.296C376.76 158.296 375.133 158.082 373.426 157.656C371.773 157.282 370.226 156.642 368.786 155.736C367.4 154.776 366.226 153.549 365.266 152.056C364.36 150.509 363.906 148.616 363.906 146.376C363.906 143.496 364.706 141.202 366.306 139.496C367.96 137.789 370.066 136.482 372.626 135.576C375.186 134.669 378.013 134.082 381.106 133.816C384.253 133.496 387.32 133.336 390.306 133.336V132.376C390.306 129.976 389.426 128.216 387.666 127.096C385.96 125.922 383.906 125.336 381.506 125.336C379.48 125.336 377.533 125.762 375.666 126.616C373.8 127.469 372.253 128.509 371.026 129.736L366.066 123.896C368.253 121.869 370.76 120.349 373.586 119.336C376.466 118.322 379.373 117.816 382.306 117.816C385.72 117.816 388.52 118.296 390.706 119.256C392.946 120.216 394.706 121.469 395.986 123.016C397.266 124.562 398.146 126.296 398.626 128.216C399.16 130.136 399.426 132.056 399.426 133.976V157.336H390.466V152.456ZM390.306 139.816H388.146C386.6 139.816 384.973 139.896 383.266 140.056C381.56 140.162 379.986 140.456 378.546 140.936C377.106 141.362 375.906 142.002 374.946 142.856C373.986 143.656 373.506 144.776 373.506 146.216C373.506 147.122 373.693 147.896 374.066 148.536C374.493 149.122 375.026 149.602 375.666 149.976C376.306 150.349 377.026 150.616 377.826 150.776C378.626 150.936 379.426 151.016 380.226 151.016C383.533 151.016 386.04 150.136 387.746 148.376C389.453 146.616 390.306 144.216 390.306 141.176V139.816ZM403.251 118.936H413.891L424.611 146.856H424.771L434.291 118.936H444.291L426.131 165.576C425.437 167.336 424.691 168.882 423.891 170.216C423.091 171.602 422.131 172.749 421.011 173.656C419.891 174.616 418.557 175.336 417.011 175.816C415.517 176.296 413.704 176.536 411.571 176.536C410.771 176.536 409.944 176.482 409.091 176.376C408.291 176.322 407.464 176.189 406.611 175.976L407.411 167.656C408.051 167.869 408.664 168.002 409.251 168.056C409.891 168.162 410.477 168.216 411.011 168.216C412.024 168.216 412.877 168.082 413.571 167.816C414.264 167.602 414.851 167.229 415.331 166.696C415.811 166.216 416.237 165.602 416.611 164.856C416.984 164.109 417.384 163.229 417.811 162.216L419.731 157.336L403.251 118.936Z" fill="#2152F5"/>
</svg>
