<svg width="46" height="46" viewBox="0 0 46 46" fill="none" xmlns="http://www.w3.org/2000/svg">
<path d="M22.6055 45.9906C17.3906 45.987 12.3372 44.186 8.30136 40.8929C4.26551 37.5998 1.49529 33.0169 0.459926 27.9205C-0.575438 22.8242 0.187703 17.5276 2.62009 12.928C5.05247 8.32835 9.00456 4.70846 13.8069 2.68143C19.3185 0.424118 25.5008 0.427188 31.0101 2.68997C36.5194 4.95275 40.9103 9.29234 43.2284 14.7654C45.5465 20.2386 45.6043 26.4028 43.3895 31.9182C41.1746 37.4336 36.8659 41.8545 31.4001 44.2197C28.6179 45.3937 25.6267 45.9961 22.6055 45.9906ZM22.6055 8.69093C19.1822 8.69175 15.8651 9.876 13.2192 12.0419C10.5734 14.2079 8.76251 17.2215 8.09509 20.5694C7.42766 23.9173 7.94499 27.3924 9.55894 30.4027C11.1729 33.4129 13.7836 35.7721 16.9463 37.0783C20.1091 38.3845 23.6282 38.5569 26.9041 37.5662C30.18 36.5755 33.0101 34.4829 34.9123 31.6449C36.8144 28.8069 37.671 25.3991 37.3359 22.0021C37.0009 18.6051 35.4951 15.4289 33.0749 13.0148C31.7034 11.6394 30.0719 10.549 28.2747 9.80679C26.4776 9.06458 24.5507 8.6853 22.6055 8.69093ZM22.5996 35.6416C19.8786 35.644 17.2359 34.7337 15.0965 33.0573C16.2111 31.2708 17.6153 29.6811 19.252 28.3531C20.8023 27.1265 22.5748 26.2088 24.4729 25.6502C25.6119 28.6184 26.455 31.6913 26.99 34.8242C25.5895 35.3643 24.1013 35.643 22.5996 35.6465V35.6416ZM29.3961 33.5914V33.5806C28.8582 30.6916 28.0659 27.8555 27.0284 25.1053C27.9837 24.9721 28.9474 24.9066 29.9121 24.9093C31.51 24.9191 33.104 25.0676 34.676 25.3533C34.4115 27.0153 33.8063 28.605 32.898 30.0233C31.9897 31.4416 30.7979 32.6579 29.3971 33.5963L29.3961 33.5914ZM13.2123 31.2393C11.3872 29.0514 10.387 26.2959 10.3846 23.4501H10.3738C10.3754 23.3462 10.3826 23.2425 10.3954 23.1394H10.4072C14.553 23.2131 18.6863 22.6664 22.6694 21.5175C22.9918 22.1712 23.2591 22.7474 23.494 23.2815C19.2382 24.6564 15.6001 27.475 13.2123 31.2472V31.2393ZM34.8048 22.7494C33.2156 22.4818 31.6072 22.3438 29.9956 22.3368C28.6719 22.3344 27.3504 22.4445 26.0455 22.6661C25.6956 21.8566 25.3958 21.196 25.103 20.5943C27.7603 19.5064 30.109 17.7844 31.9427 15.5795C33.6575 17.5951 34.6621 20.1158 34.8028 22.7552L34.8048 22.7494ZM10.7375 20.5561C11.1575 18.849 11.9425 17.2526 13.0387 15.876C14.1349 14.4995 15.5164 13.3754 17.0887 12.5806C18.6978 14.6814 20.1545 16.8941 21.4477 19.2017C17.9563 20.1434 14.3512 20.5995 10.7345 20.5571L10.7375 20.5561ZM23.9078 18.3353C22.6297 16.0105 21.1912 13.7768 19.6029 11.6506C20.5837 11.3975 21.5924 11.2678 22.6055 11.2645V11.2537C25.3056 11.2503 27.9294 12.1472 30.0595 13.8018C28.4333 15.811 26.3167 17.3701 23.9127 18.3295L23.9078 18.3353Z" fill="#2455C6"/>
</svg>
