<svg width="46" height="46" viewBox="0 0 46 46" fill="none" xmlns="http://www.w3.org/2000/svg">
<path d="M22.5378 45.5862C17.3381 45.5833 12.2992 43.785 8.27487 40.496C4.25053 37.207 1.48815 32.6295 0.455718 27.539C-0.576714 22.4486 0.184283 17.1581 2.60979 12.5639C5.03529 7.96966 8.97616 4.35423 13.7648 2.33007C19.2678 0.0310231 25.4588 0.0042724 30.9816 2.25567C36.5043 4.50708 40.9087 8.85309 43.2299 14.3418C45.5511 19.8304 45.6 26.0143 43.3658 31.5389C41.1315 37.0635 36.7964 41.4784 31.3098 43.8165C28.5348 44.9899 25.5512 45.5918 22.5378 45.5862ZM25.9557 18.5253C23.5019 19.1464 21.0035 19.5757 18.483 19.8095C17.1503 19.9152 16.4742 20.064 16.4742 20.2509C16.4742 20.4105 16.7035 20.5857 17.1601 20.7726C17.6267 20.9212 18.0624 21.1534 18.4457 21.4578C18.6788 21.7034 18.8597 21.9935 18.9776 22.3108C19.0955 22.628 19.1479 22.9658 19.1317 23.3038V34.8586C19.1466 35.2023 19.0371 35.5399 18.8231 35.8096C18.6091 36.0792 18.305 36.2628 17.9666 36.3268C17.1934 36.5529 16.8015 36.7623 16.8015 36.9483C16.8015 37.2145 16.9504 37.3496 17.2434 37.3496H27.8439C28.1379 37.3496 28.2859 37.2145 28.2859 36.9483C28.2859 36.7613 27.8939 36.5568 27.1208 36.3268C26.7823 36.2628 26.4782 36.0792 26.2643 35.8096C26.0503 35.5399 25.9407 35.2023 25.9557 34.8586V18.5253ZM22.5378 8.01005C22.0062 8.00072 21.4784 8.10109 20.9874 8.30488C20.4964 8.50867 20.0528 8.81149 19.6843 9.1944C19.3074 9.57004 19.0101 10.0177 18.8101 10.5105C18.6101 11.0034 18.5115 11.5315 18.5202 12.0633C18.5116 12.5953 18.6103 13.1235 18.8104 13.6166C19.0106 14.1097 19.3082 14.5574 19.6853 14.9331C20.0595 15.3081 20.504 15.6056 20.9935 15.8086C21.483 16.0116 22.0078 16.1161 22.5378 16.1161C23.0678 16.1161 23.5926 16.0116 24.0821 15.8086C24.5716 15.6056 25.0161 15.3081 25.3903 14.9331C25.7676 14.5575 26.0652 14.1098 26.2654 13.6167C26.4656 13.1236 26.5642 12.5953 26.5554 12.0633C26.5645 11.5316 26.4663 11.0036 26.2666 10.5107C26.067 10.0178 25.7699 9.5701 25.3932 9.1944C25.0246 8.8112 24.5807 8.50821 24.0893 8.30441C23.598 8.1006 23.0697 8.00039 22.5378 8.01005Z" fill="#2455C6"/>
</svg>
