<svg width="55" height="54" viewBox="0 0 55 54" fill="none" xmlns="http://www.w3.org/2000/svg">
<path d="M27.5944 0.0925312C20.2742 0.0925312 19.3555 0.124537 16.4805 0.255377C13.611 0.386776 11.6524 0.841057 9.93858 1.5076C8.16581 2.19604 6.66202 3.11696 5.16384 4.6157C3.66454 6.11388 2.74362 7.61767 2.05293 9.38988C1.38471 11.1042 0.929863 13.0634 0.800711 15.9318C0.672119 18.8068 0.638428 19.7261 0.638428 27.0462C0.638428 34.3664 0.670998 35.2823 0.801273 38.1573C0.933235 41.0268 1.38752 42.9854 2.0535 44.6992C2.7425 46.472 3.66342 47.9758 5.16216 49.474C6.65977 50.9733 8.16357 51.8964 9.93521 52.5849C11.6501 53.2514 13.6093 53.7057 16.4782 53.8371C19.3533 53.9679 20.2714 54 27.591 54C34.9118 54 35.8276 53.9679 38.7027 53.8371C41.5721 53.7057 43.533 53.2514 45.2479 52.5849C47.0201 51.8964 48.5217 50.9733 50.0193 49.474C51.5186 47.9758 52.4395 46.472 53.1302 44.6998C53.7928 42.9854 54.2477 41.0262 54.3824 38.1579C54.5116 35.2828 54.5453 34.3664 54.5453 27.0462C54.5453 19.7261 54.5116 18.8074 54.3824 15.9323C54.2477 13.0629 53.7928 11.1042 53.1302 9.39044C52.4395 7.61767 51.5186 6.11388 50.0193 4.6157C48.52 3.1164 47.0207 2.19548 45.2463 1.5076C43.528 0.841057 41.5682 0.386774 38.6988 0.255375C35.8237 0.124537 34.9084 0.0925293 27.586 0.0925293L27.5944 0.0925312ZM25.1764 4.94981C25.8941 4.94869 26.6948 4.94981 27.5944 4.94981C34.791 4.94981 35.644 4.97564 38.4859 5.1048C41.1139 5.22497 42.5402 5.66409 43.4903 6.03301C44.7482 6.52155 45.6449 7.10555 46.5878 8.04893C47.5311 8.99231 48.1151 9.89076 48.6048 11.1486C48.9737 12.0976 49.4134 13.5239 49.533 16.1519C49.6622 18.9933 49.6903 19.8468 49.6903 27.0401C49.6903 34.2333 49.6622 35.0869 49.533 37.9282C49.4129 40.5562 48.9737 41.9825 48.6048 42.9315C48.1163 44.1894 47.5311 45.085 46.5878 46.0278C45.6444 46.9712 44.7487 47.5552 43.4903 48.0437C42.5413 48.4144 41.1139 48.8524 38.4859 48.9725C35.6446 49.1017 34.791 49.1298 27.5944 49.1298C20.3972 49.1298 19.5442 49.1017 16.7028 48.9725C14.0749 48.8512 12.6486 48.4121 11.6979 48.0432C10.44 47.5546 9.54158 46.9706 8.5982 46.0273C7.65482 45.0839 7.07082 44.1877 6.58116 42.9293C6.21223 41.9803 5.77255 40.554 5.65294 37.926C5.52379 35.0846 5.49796 34.2311 5.49796 27.0333C5.49796 19.8356 5.52379 18.9865 5.65294 16.1452C5.77311 13.5172 6.21223 12.0909 6.58116 11.1407C7.0697 9.8829 7.65482 8.98445 8.5982 8.04107C9.54158 7.09769 10.44 6.51369 11.6979 6.02403C12.648 5.65342 14.0749 5.21542 16.7028 5.09469C19.1893 4.98238 20.1529 4.94869 25.1764 4.94308L25.1764 4.94981ZM41.9821 9.42525C40.1964 9.42525 38.7476 10.8723 38.7476 12.6586C38.7476 14.4443 40.1964 15.893 41.9821 15.893C43.7677 15.893 45.2165 14.4443 45.2165 12.6586C45.2165 10.8729 43.7677 9.42413 41.9821 9.42413V9.42525ZM27.5944 13.2044C19.9502 13.2044 13.7525 19.4021 13.7525 27.0462C13.7525 34.6904 19.9502 40.8853 27.5944 40.8853C35.2386 40.8853 41.434 34.6904 41.434 27.0462C41.434 19.4021 35.238 13.2044 27.5938 13.2044H27.5944ZM27.5944 18.0617C32.5561 18.0617 36.579 22.084 36.579 27.0462C36.579 32.008 32.5561 36.0308 27.5944 36.0308C22.6321 36.0308 18.6098 32.008 18.6098 27.0462C18.6098 22.084 22.6321 18.0617 27.5944 18.0617Z" fill="#2455C6"/>
</svg>
