<?xml version="1.0" encoding="UTF-8"?>
<svg id="Layer_2" data-name="Layer 2" xmlns="http://www.w3.org/2000/svg" viewBox="0 0 16 16.58">
  <defs>
    <style>
      .cls-1 {
        fill: #fff;
        font-family: AvenirNext-Bold, 'Avenir Next';
        font-size: 12.35px;
        font-weight: 700;
      }

      .cls-2 {
        opacity: .5;
      }

      .cls-2, .cls-3 {
        fill: #2455c6;
      }

      .cls-3 {
        opacity: .7;
      }
    </style>
  </defs>
  <g id="Layer_1-2" data-name="Layer 1">
    <g>
      <path class="cls-3" d="M14.17,5.97c.21,1.85,2.45,4.39,1.57,6.38-1.42,3.24-4.91,1.79-7.13,1.73-1.82-.05-2.6,.19-4.77-.56-1.18-.41-3.39-1.19-3.81-3.77-.37-2.29,2.98-3.66,5.02-5.15C6.64,3.45,7.75,.34,9.86,.7c3.59,.61,4.14,3.81,4.31,5.27Z"/>
      <path class="cls-3" d="M1.03,7.66c.14-1.55,1.61-3.16,2.17-4.09,.95-1.54,1.46-2.63,3.71-2.43,1.75,.15,3.84,1.03,5.87,2,1.1,.53,2.88,2.35,3.18,4.45,.34,2.41-1.46,4.27-3.57,5.65-1.64,1.08-5.23,3.6-7.28,3.32-2.23-.31-2.1-2.16-3.09-4.71-.59-1.53-1.12-2.64-.99-4.19Z"/>
      <path class="cls-2" d="M1.52,13.14c-.17-2.87-2.14-5.83-.92-7.87,.98-1.63,4.45-2.22,6.99-2.24s4.88-1.39,6.33-.15c1.66,1.42,1.22,3.88,.25,6.21-.75,1.81-.96,5.23-2.83,6.38-2.04,1.25-4.35,.55-6.63-.55-1.37-.66-3.11-.4-3.19-1.79Z"/>
      <text class="cls-1" transform="translate(4.44 10.55) scale(.94 1)"><tspan x="0" y="0">p</tspan></text>
    </g>
  </g>
</svg>