<svg width="45" height="46" viewBox="0 0 45 46" fill="none" xmlns="http://www.w3.org/2000/svg">
<path d="M22.5 45.5665C34.9264 45.5665 45 35.4929 45 23.0665C45 10.6401 34.9264 0.566467 22.5 0.566467C10.0736 0.566467 0 10.6401 0 23.0665C0 35.4929 10.0736 45.5665 22.5 45.5665Z" fill="#2455C6"/>
<path d="M30.8165 13.773H14.1861C11.2146 13.773 8.80566 16.1819 8.80566 19.1534V26.9795C8.80566 29.9511 11.2146 32.36 14.1861 32.36H30.8165C33.7881 32.36 36.197 29.9511 36.197 26.9795V19.1534C36.197 16.1819 33.7881 13.773 30.8165 13.773Z" stroke="#F8F8F8" stroke-width="3"/>
<path d="M9.44824 16.3869C9.44824 16.3869 19.8438 24.6923 22.672 24.6855C25.5001 24.6786 35.2317 16.3869 35.2317 16.3869" stroke="#F8F8F8" stroke-width="3"/>
</svg>
