<svg width="54" height="54" viewBox="0 0 54 54" fill="none" xmlns="http://www.w3.org/2000/svg">
<path d="M27.0458 0.0925293C12.1601 0.0925293 0.0925293 12.1601 0.0925293 27.0468C0.0925293 41.9334 12.1601 54 27.0458 54C41.9314 54 54 41.9324 54 27.0468C54 12.1611 41.9324 0.0925293 27.0458 0.0925293ZM39.8997 17.6203C39.8219 18.7109 39.1983 22.5286 38.5756 26.6576L36.6279 38.888C36.6279 38.888 36.4722 40.679 35.1481 40.9914C33.824 41.3027 31.6427 39.9007 31.2526 39.5884C30.9413 39.3549 25.4103 35.8496 23.3847 34.1353C22.8399 33.6683 22.2163 32.7334 23.4626 31.6427C26.2675 29.0724 29.6172 25.8783 31.6427 23.8527C32.5767 22.9178 33.5117 20.7365 29.6172 23.3858L18.6331 30.7856C18.6331 30.7856 17.3868 31.5649 15.0489 30.8634C12.712 30.163 9.98596 29.228 9.98596 29.228C9.98596 29.228 8.11603 28.0596 11.3101 26.8133L29.4615 19.3346C31.2526 18.5553 37.3293 16.0627 37.3293 16.0627C37.3293 16.0627 40.1332 14.9721 39.8997 17.6203H39.8997Z" fill="#2455C6"/>
</svg>
