<svg width="45" height="45" viewBox="0 0 45 45" fill="none" xmlns="http://www.w3.org/2000/svg">
<path d="M22.5683 45C17.3599 44.9965 12.3127 43.1967 8.28174 39.9054C4.25079 36.614 1.48388 32.0335 0.449692 26.9397C-0.584498 21.8459 0.177611 16.552 2.60693 11.9546C5.03624 7.35728 8.98341 3.73917 13.7798 1.71316C19.2877 -0.561734 25.4736 -0.571366 30.9885 1.68636C36.5035 3.94409 40.9002 8.28604 43.2199 13.7654C45.5396 19.2448 45.5942 25.4171 43.3717 30.9365C41.1492 36.4558 36.83 40.8745 31.3558 43.229C28.5759 44.4032 25.5871 45.0056 22.5683 45ZM13.4481 10.3789C13.1208 10.3884 12.799 10.4644 12.5022 10.6023C12.2055 10.7403 11.9401 10.9372 11.7224 11.1812L11.6026 11.3075C10.9054 11.9806 10.3555 12.7906 9.98756 13.6862C9.6196 14.5819 9.44155 15.544 9.46462 16.5117C9.47318 17.2471 9.58452 17.9776 9.79543 18.6823C10.3 20.2791 11.08 21.7757 12.1003 23.1048C12.1258 23.1381 12.1759 23.2106 12.2515 23.3213C13.2881 24.8507 14.455 26.2881 15.7392 27.6175C17.7997 29.8318 20.3095 31.5826 23.1013 32.7531C27.232 34.3565 28.6357 34.5622 29.3965 34.5622C29.7042 34.5608 30.0103 34.5179 30.3065 34.4349C30.4823 34.3872 30.6614 34.3529 30.8424 34.332C31.9811 34.241 34.656 32.8128 35.193 31.3014C35.6193 30.3515 35.7509 29.296 35.5709 28.2708C35.3477 28.028 35.0678 27.844 34.7562 27.735C34.6325 27.6743 34.4921 27.6057 34.3409 27.5283H34.3537C33.5684 27.1444 30.5303 25.6672 29.9452 25.4517C29.7279 25.3554 29.4953 25.2981 29.2581 25.2823C29.0986 25.2885 28.9436 25.3372 28.8093 25.4233C28.675 25.5094 28.5663 25.6298 28.4944 25.772C28.0036 26.5037 26.4654 28.2434 26.4497 28.261C26.3684 28.3711 26.2632 28.4614 26.142 28.5252C26.0208 28.589 25.8867 28.6246 25.7498 28.6293C25.5021 28.6153 25.2606 28.5464 25.043 28.4275C24.936 28.3736 24.7897 28.3119 24.6052 28.2316C22.8608 27.5203 21.253 26.5128 19.8532 25.2539C18.4496 23.9676 17.243 22.4824 16.2722 20.8461C15.9021 20.2025 16.2496 19.8548 16.5559 19.5482C16.7247 19.3797 16.9063 19.1564 17.0987 18.9272C17.2391 18.7577 17.3834 18.5834 17.5247 18.4276C17.6229 18.3003 17.6995 18.2033 17.7603 18.122C17.9136 17.8768 18.0481 17.6204 18.1628 17.3551C18.2503 17.1795 18.2918 16.9847 18.2836 16.7887C18.2754 16.5928 18.2176 16.4022 18.1157 16.2345C18.0175 16.0386 17.4914 14.7809 16.9839 13.5633V13.5575C16.6629 12.7866 16.3321 11.9902 16.12 11.4936C15.7362 10.5553 15.3406 10.4289 15.0039 10.4289C14.9431 10.4289 14.8842 10.4289 14.8272 10.4367C14.7703 10.4446 14.7291 10.4436 14.678 10.4436C14.4945 10.4436 14.3031 10.4299 14.0999 10.4152C13.8967 10.4005 13.667 10.3789 13.4481 10.3789Z" fill="#2455C6"/>
</svg>
